<?xml version="1.0" standalone="no"?>
<!DOCTYPE svg PUBLIC "-//W3C//DTD SVG 1.1//EN" "http://www.w3.org/Graphics/SVG/1.1/DTD/svg11.dtd">
<svg width="152.00000000000003mm" height="920.0000000000041mm"
 viewBox="0 0 152.00000000000003 920.0000000000041"
 xmlns="http://www.w3.org/2000/svg" version="1.1"
 xmlns:xlink="http://www.w3.org/1999/xlink">
<desc>Output from Flights of Ideas SVG Sketchup Plugin</desc>

  <path id="face0-cut"
 style="fill:none;stroke:#0000FF;stroke-width:1;stroke-miterlimit:4;stroke-dasharray:none;stroke-linejoin:round;stroke-linecap:round"
        d="M 26.0,13.000000000000085 L 10.0,13.000000000000085 L 10.0,106.00000000000023 L 19.999999999999886,106.00000000000023 L 20.000000000000114,109.00000000000027 L 40.0,109.00000000000027 L 40.0,106.00000000000023 L 74.5,106.00000000000024 L 74.5,104.00000000000031 L 73.20000000000005,104.00000000000033 L 73.20000000000005,101.80000000000028 L 74.5,101.80000000000027 L 74.5,98.80000000000024 L 77.5,98.80000000000024 L 77.5,101.80000000000027 L 78.79999999999984,101.80000000000028 L 78.80000000000007,104.00000000000034 L 77.5,104.00000000000033 L 77.5,106.00000000000024 L 111.99999999999989,106.00000000000023 L 112.00000000000011,109.00000000000026 L 132.0,109.0000000000003 L 132.0,106.00000000000024 L 141.9999999999999,106.00000000000023 L 141.9999999999999,13.000000000000085 L 126.0,13.000000000000085 L 126.0,10.0 L 95.99999999999989,10.000000000000142 L 95.99999999999989,13.000000000000085 L 69.5,13.000000000000085 L 69.5,15.000000000000128 L 70.80000000000007,15.000000000000014 L 70.79999999999984,17.200000000000173 L 69.5,17.20000000000023 L 69.5,20.200000000000273 L 66.5,20.20000000000026 L 66.5,17.20000000000023 L 65.20000000000005,17.200000000000188 L 65.20000000000005,15.000000000000142 L 66.5,15.0000000000001 L 66.5,13.000000000000085 L 45.999999999999886,13.000000000000085 L 45.999999999999886,10.000000000000227 L 26.0,10.000000000000227 L 26.0,13.000000000000085 M 92.99999999999989,43.0000000000003 L 122.99999999999989,43.0000000000003 L 122.99999999999989,46.00000000000014 L 93.00000000000011,46.00000000000014 L 92.99999999999989,43.0000000000003 M 29.0,46.000000000000156 L 29.0,43.000000000000114 L 49.0,43.000000000000114 L 49.0,46.000000000000156 L 29.0,46.000000000000156 M 13.0,23.000000000000156 L 16.000000000000114,23.000000000000156 L 15.999999999999886,33.00000000000023 L 13.0,33.00000000000023 L 13.0,23.000000000000156 M 139.00000000001796,33.000000000000185 L 136.00000000001785,33.00000000000014 L 136.00000000001785,23.000000000000355 L 139.00000000001796,23.0000000000003 L 139.00000000001796,33.000000000000185 M 76.51763809020508,74.73185165257847 L 76.0,74.8000000000003 L 75.48236190979492,74.73185165257846 L 75.0,74.53205080756915 L 74.58578643762701,74.21421356237339 L 74.26794919243116,73.80000000000032 L 74.06814834742192,73.31763809020526 L 74.00000000000011,72.80000000000018 L 74.06814834742192,72.28236190979513 L 74.26794919243116,71.80000000000024 L 74.58578643762701,71.38578643762719 L 75.0,71.06794919243143 L 75.48236190979492,70.8681483474221 L 76.0,70.8000000000003 L 76.51763809020508,70.86814834742212 L 76.99999999999989,71.06794919243143 L 77.41421356237299,71.38578643762719 L 77.73205080756895,71.80000000000024 L 77.93185165257808,72.28236190979513 L 78.0,72.80000000000021 L 77.93185165257819,73.31763809020526 L 77.73205080756895,73.80000000000035 L 77.4142135623731,74.21421356237339 L 76.99999999999989,74.53205080756915 L 76.51763809020508,74.73185165257847 M 41.16636229124856,67.19171458155027 L 41.30265898609218,68.22699076196025 L 41.16636229124856,69.26226694237039 L 40.766760601229976,70.22699076196034 L 40.131086110838396,71.05541788670644 L 39.3026589860923,71.69109237709816 L 38.33793516650235,72.09069406711657 L 37.30265898609218,72.22699076196025 L 36.26738280568213,72.09069406711657 L 35.30265898609218,71.69109237709816 L 34.474231861346084,71.05541788670644 L 33.838557370954504,70.22699076196034 L 33.43895568093592,69.26226694237036 L 33.3026589860923,68.22699076196025 L 33.43895568093592,67.1917145815503 L 33.838557370954504,66.22699076196034 L 34.474231861346084,65.39856363721405 L 35.30265898609218,64.76288914682252 L 36.26738280568213,64.36328745680409 L 37.30265898609218,64.22699076196025 L 38.33793516650235,64.36328745680409 L 39.3026589860923,64.76288914682252 L 40.131086110838396,65.39856363721405 L 40.766760601229976,66.22699076196034 L 41.16636229124856,67.19171458155027 "
  />
  <path id="face1-cut"
 style="fill:none;stroke:#0000FF;stroke-width:1;stroke-miterlimit:4;stroke-dasharray:none;stroke-linejoin:round;stroke-linecap:round"
        d="M 12.999999999998067,241.999999999978 L 85.9999999999983,241.999999999978 L 85.99999999999739,245.0000000000004 L 95.99999999999727,245.00000000000364 L 95.99999999999818,241.999999999978 L 105.99999999999818,241.999999999978 L 106.00000000000216,229.00000000000642 L 109.00000000000227,229.00000000000745 L 109.00000000001137,199.0000000000074 L 106.00000000001137,199.00000000000648 L 106.00000000001751,178.50000000000654 L 103.98000000001753,178.5000000000059 L 103.98000000001718,179.80000000000592 L 101.78000000001714,179.80000000000518 L 101.7800000000176,178.50000000000517 L 98.78000000001771,178.5000000000043 L 98.78000000001862,175.50000000000432 L 101.78000000001862,175.50000000000523 L 101.78000000001896,174.2000000000052 L 104.00000000001887,174.2000000000059 L 104.00000000001853,175.50000000000585 L 106.00000000001864,175.50000000000654 L 106.00000000002478,155.00000000000654 L 109.00000000002478,155.00000000000745 L 109.00000000003092,135.00000000000742 L 106.00000000003092,135.00000000000642 L 106.0000000000349,122.00000000000648 L 96.0000000000349,122.00000000000341 L 96.00000000003581,119.00000000000337 L 86.00000000003581,119.0000000000003 L 86.0000000000349,122.00000000000034 L 13.000000000034788,121.99999999997796 L 13.000000000032855,128.49999999997803 L 10.000000000032742,128.49999999997712 L 10.00000000003081,134.9999999999771 L 43.00000000003081,134.99999999998718 L 46.024322859235895,142.4775534634129 L 48.5191586407708,150.1480246991502 L 50.4723295013232,157.97397244652166 L 51.874301583442275,165.91719652972972 L 52.71823155240054,173.93892432133384 L 53.0000000000166,181.9999999999903 L 52.71823155239565,190.06107567864657 L 51.87430158343261,198.08280347025016 L 50.47232950130831,206.02602755345742 L 48.51915864075124,213.85197530082775 L 46.02432285921168,221.5224465365634 L 43.000000000002046,228.9999999999872 L 10.000000000002046,228.9999999999771 L 10.0,235.49999999997704 L 13.0,235.49999999997794 L 12.999999999998067,241.999999999978 M 76.00000000002467,154.99999999999736 L 73.0000000000249,154.99999999999645 L 73.00000000003104,134.99999999999642 L 76.00000000003081,134.9999999999973 L 76.00000000002467,154.99999999999736 M 76.00000000000216,228.99999999999727 L 73.00000000000216,228.99999999999636 L 73.00000000001125,198.99999999999636 L 76.00000000001137,198.99999999999727 L 76.00000000000216,228.99999999999727 "
  />
  <path id="face2-cut"
 style="fill:none;stroke:#0000FF;stroke-width:1;stroke-miterlimit:4;stroke-dasharray:none;stroke-linejoin:round;stroke-linecap:round"
        d="M 106.00000000000011,258.0000000000035 L 33.000000000000114,258.0000000000035 L 33.000000000000114,255.00000000000364 L 23.0,255.00000000000364 L 23.0,258.0000000000035 L 13.000000000000114,258.0000000000035 L 13.0,271.0000000000035 L 10.000000000000114,271.0000000000035 L 10.0,301.0000000000035 L 13.0,301.0000000000035 L 13.000000000000114,321.5000000000035 L 15.019999999999982,321.5000000000035 L 15.019999999999982,320.2000000000035 L 17.220000000000027,320.2000000000035 L 17.220000000000027,321.5000000000035 L 20.220000000000027,321.5000000000035 L 20.220000000000027,324.5000000000035 L 17.220000000000027,324.5000000000035 L 17.220000000000027,325.80000000000354 L 15.0,325.8000000000035 L 15.000000000000114,324.5000000000035 L 13.000000000000114,324.5000000000035 L 13.000000000000114,345.0000000000035 L 10.000000000000114,345.0000000000035 L 10.000000000000114,365.00000000000364 L 13.000000000000114,365.00000000000364 L 13.000000000000114,378.0000000000036 L 23.0,378.0000000000035 L 23.0,381.0000000000036 L 33.000000000000114,381.00000000000364 L 33.000000000000114,378.0000000000036 L 106.00000000000011,378.0000000000035 L 106.00000000000011,371.5000000000036 L 109.00000000000023,371.5000000000036 L 109.00000000000023,365.0000000000035 L 76.00000000000011,365.0000000000035 L 72.97567714079275,357.52244653657874 L 70.48084135925546,349.85197530084224 L 68.5276704987009,342.0260275534714 L 67.1256984165791,334.0828034702637 L 66.28176844761856,326.06107567865985 L 66.00000000000011,318.00000000000347 L 66.28176844761856,309.93892432134714 L 67.1256984165791,301.91719652974325 L 68.5276704987009,293.9739724465355 L 70.48084135925546,286.1480246991647 L 72.97567714079275,278.47755346342825 L 76.00000000000011,271.0000000000035 L 109.00000000000023,271.0000000000035 L 109.00000000000023,264.5000000000035 L 106.00000000000011,264.5000000000035 L 106.00000000000011,258.0000000000035 M 43.000000000000114,345.0000000000035 L 46.000000000000114,345.0000000000035 L 46.0,365.0000000000035 L 43.000000000000114,365.0000000000035 L 43.000000000000114,345.0000000000035 M 43.0,271.0000000000035 L 46.0,271.0000000000035 L 46.0,301.0000000000035 L 43.0,301.0000000000035 L 43.0,271.0000000000035 "
  />
  <path id="face3-cut"
 style="fill:none;stroke:#0000FF;stroke-width:1;stroke-miterlimit:4;stroke-dasharray:none;stroke-linejoin:round;stroke-linecap:round"
        d="M 10.0,391.00000000000364 L 10.0,523.0000000000038 L 142.0,523.0000000000038 L 142.0,391.00000000000364 L 10.0,391.00000000000364 M 126.0,520.0000000000036 L 105.99999999999994,520.0000000000036 L 105.99999999999994,517.0000000000036 L 126.0,517.0000000000036 L 126.0,520.0000000000036 M 82.70096189432331,519.2500000000036 L 82.55111126056636,518.8882285676575 L 82.49999999999994,518.5000000000036 L 82.55111126056636,518.11177143235 L 82.70096189432331,517.7500000000036 L 82.93933982822017,517.4393398282239 L 83.24999999999994,517.2009618943271 L 83.61177143234619,517.05111126057 L 84.0,517.0000000000036 L 84.38822856765375,517.05111126057 L 84.75,517.2009618943271 L 85.06066017177977,517.4393398282239 L 85.29903810567663,517.7500000000036 L 85.44888873943358,518.11177143235 L 85.5,518.5000000000036 L 85.44888873943358,518.8882285676575 L 85.29903810567663,519.2500000000036 L 85.06066017177977,519.5606601717835 L 84.75,519.7990381056803 L 84.38822856765375,519.9488887394373 L 84.0,520.0000000000036 L 83.61177143234619,519.9488887394373 L 83.24999999999994,519.7990381056803 L 82.93933982822017,519.5606601717834 L 82.70096189432331,519.2500000000036 M 138.99999999999477,504.0000000000033 L 135.99999999998568,504.0000000000033 L 135.99999999998568,474.00000000000415 L 138.99999999999477,474.00000000000415 L 138.99999999999477,504.0000000000033 M 19.536584372056723,509.7966021341398 L 19.96073466765472,510.29260989429145 L 20.24205613755521,510.8814947743484 L 20.36137718848994,511.52312524291307 L 20.3105662880252,512.1737752438971 L 20.093086115058668,512.7891040549837 L 19.72375758397493,513.3271780345758 L 19.227749823823274,513.7513283301739 L 18.638864943766293,514.0326498000743 L 17.99723447520165,514.1519708510091 L 17.346584474217536,514.1011599505443 L 16.731255663131094,513.8836797775778 L 16.19318168353891,513.5143512464941 L 15.7690313879408,513.0183434863425 L 15.487709918040423,512.4294586062854 L 15.368388867105637,511.7878281377208 L 15.419199767570376,511.1371781367367 L 15.636679940536965,510.52184932565024 L 16.00600847162059,509.98377534605805 L 16.50201623177236,509.55962505046 L 17.090901111829282,509.2783035805595 L 17.732531580393868,509.1589825296248 L 18.383181581377983,509.2097934300895 L 18.998510392464482,509.42727360305605 L 19.536584372056723,509.7966021341398 M 56.00000000000006,517.0000000000036 L 56.00000000000006,520.0000000000036 L 26.0,520.0000000000036 L 26.0,517.0000000000036 L 56.00000000000006,517.0000000000036 M 13.051111260566415,462.3882285676574 L 13.0,462.0000000000037 L 13.051111260566415,461.6117714323499 L 13.200961894323314,461.2500000000037 L 13.43933982822017,460.9393398282238 L 13.75,460.70096189432707 L 14.111771432346188,460.5511112605701 L 14.5,460.5000000000037 L 14.888228567653812,460.55111126057 L 15.25,460.700961894327 L 15.560660171779773,460.9393398282238 L 15.799038105676573,461.2500000000037 L 15.948888739433585,461.6117714323499 L 15.999999999999943,462.0000000000037 L 15.948888739433585,462.3882285676574 L 15.799038105676573,462.7500000000037 L 15.560660171779773,463.0606601717835 L 15.25,463.29903810568027 L 14.888228567653698,463.4488887394373 L 14.5,463.50000000000364 L 14.111771432346188,463.4488887394373 L 13.75,463.29903810568027 L 13.439339828220113,463.0606601717835 L 13.200961894323314,462.7500000000037 L 13.051111260566415,462.3882285676574 M 13.0,484.00000000000364 L 16.0,484.00000000000364 L 16.0,504.0000000000037 L 13.0,504.0000000000037 L 13.0,484.00000000000364 M 67.61177143234619,394.05111126057 L 67.99999999999994,394.00000000000364 L 68.38822856765381,394.0511112605701 L 68.74999999999994,394.2009618943269 L 69.06066017177983,394.4393398282237 L 69.29903810567669,394.75000000000364 L 69.44888873943358,395.11177143234977 L 69.49999999999994,395.50000000000375 L 69.44888873943358,395.8882285676574 L 69.29903810567669,396.25000000000364 L 69.06066017177983,396.5606601717834 L 68.74999999999994,396.79903810568044 L 68.38822856765381,396.9488887394373 L 67.99999999999994,397.0000000000037 L 67.61177143234619,396.94888873943717 L 67.25,396.7990381056803 L 66.93933982822011,396.56066017178347 L 66.70096189432331,396.25000000000375 L 66.55111126056642,395.8882285676575 L 66.5,395.5000000000037 L 66.55111126056642,395.11177143234994 L 66.70096189432331,394.75000000000364 L 66.93933982822011,394.43933982822386 L 67.25,394.20096189432684 L 67.61177143234619,394.05111126057 M 16.0,440.00000000000364 L 13.0,440.00000000000364 L 13.0,410.00000000000364 L 16.0,410.00000000000364 L 16.0,440.00000000000364 M 45.99999999999994,394.00000000000364 L 45.99999999999994,397.0000000000037 L 26.0,397.0000000000037 L 26.0,394.00000000000364 L 45.99999999999994,394.00000000000364 M 136.0000000000083,410.0000000000041 L 139.00000000001444,410.0000000000041 L 139.00000000001444,430.0000000000032 L 136.0000000000083,430.0000000000032 L 136.0000000000083,410.0000000000041 M 136.75000000000364,450.70096189432627 L 137.11177143234988,450.5511112605695 L 137.50000000000364,450.50000000000324 L 137.8882285676574,450.5511112605697 L 138.25000000000364,450.7009618943269 L 138.5606601717833,450.9393398282238 L 138.79903810567998,451.25000000000375 L 138.94888873943682,451.61177143235 L 139.00000000000307,452.00000000000375 L 138.9488887394366,452.38822856765756 L 138.79903810567941,452.75000000000375 L 138.5606601717825,453.06066017178347 L 138.2500000000025,453.2990381056801 L 137.88822856765637,453.44888873943694 L 137.5000000000025,453.50000000000324 L 137.11177143234886,453.4488887394367 L 136.75000000000261,453.2990381056796 L 136.43933982822296,453.0606601717826 L 136.20096189432616,452.75000000000273 L 136.05111126056943,452.3882285676565 L 136.00000000000307,452.0000000000026 L 136.05111126056966,451.6117714323489 L 136.2009618943266,451.25000000000273 L 136.43933982822364,450.939339828223 L 136.75000000000364,450.70096189432627 M 126.0,397.00000000000364 L 95.99999999999994,397.0000000000038 L 95.99999999999994,394.00000000000375 L 126.0,394.00000000000284 L 126.0,397.00000000000364 "
  />
  <path id="face4-cut"
 style="fill:none;stroke:#0000FF;stroke-width:1;stroke-miterlimit:4;stroke-dasharray:none;stroke-linejoin:round;stroke-linecap:round"
        d="M 112.0,533.0000000000038 L 112.0,536.0000000000038 L 77.5,536.0000000000038 L 77.5,538.0000000000038 L 78.79999999999995,538.0000000000038 L 78.79999999999995,540.2000000000038 L 77.5,540.2000000000038 L 77.5,543.2000000000038 L 74.5,543.2000000000038 L 74.5,540.2000000000038 L 73.19999999999993,540.2000000000037 L 73.19999999999993,538.0000000000039 L 74.5,538.0000000000038 L 74.5,536.0000000000038 L 40.0,536.000000000004 L 39.999999999999886,533.0000000000038 L 20.0,533.0000000000038 L 20.0,536.000000000004 L 10.0,536.0000000000038 L 10.0,629.0000000000039 L 26.0,629.0000000000039 L 26.0,632.0000000000039 L 56.0,632.0000000000038 L 56.0,629.0000000000039 L 82.60000000000002,629.0000000000039 L 82.60000000000002,627.0000000000039 L 81.29999999999995,627.0000000000039 L 81.29999999999995,624.8000000000038 L 82.5,624.8000000000038 L 82.5,621.8000000000038 L 85.5,621.8000000000038 L 85.5,624.8000000000038 L 86.80000000000007,624.8000000000038 L 86.80000000000007,627.0000000000039 L 85.5,627.0000000000039 L 85.5,629.0000000000039 L 106.0,629.0000000000039 L 106.0,632.0000000000039 L 126.0,632.0000000000038 L 126.0,629.0000000000039 L 142.0,629.0000000000039 L 142.0,536.0000000000038 L 132.0,536.0000000000038 L 131.9999999999999,533.0000000000038 L 112.0,533.0000000000038 M 69.5,582.2000000000041 L 68.8529523872437,582.1148145657268 L 68.24999999999989,581.8650635094652 L 67.73223304703356,581.4677669529705 L 67.33493649053878,580.9500000000041 L 67.08518543427726,580.3470476127604 L 66.99999999999989,579.700000000004 L 67.08518543427726,579.0529523872478 L 67.33493649053878,578.450000000004 L 67.73223304703345,577.9322330470377 L 68.24999999999989,577.5349364905429 L 68.85295238724359,577.2851854342813 L 69.49999999999989,577.2000000000039 L 70.14704761275618,577.2851854342813 L 70.74999999999989,577.5349364905429 L 71.26776695296633,577.9322330470377 L 71.66506350946099,578.450000000004 L 71.91481456572262,579.0529523872477 L 72.0,579.700000000004 L 71.91481456572274,580.3470476127603 L 71.66506350946099,580.950000000004 L 71.26776695296633,581.4677669529705 L 70.75,581.8650635094652 L 70.1470476127563,582.1148145657268 L 69.5,582.2000000000041 M 135.99999999998215,609.0000000000038 L 138.99999999998215,609.0000000000038 L 138.99999999998215,619.0000000000038 L 135.99999999998215,619.0000000000038 L 135.99999999998215,609.0000000000038 M 12.999999999999886,609.0000000000039 L 16.0,609.0000000000039 L 16.0,619.0000000000039 L 12.999999999999886,619.0000000000039 L 12.999999999999886,609.0000000000039 M 54.0,545.780610528475 L 66.99999999999989,545.780610528475 L 66.99999999999989,564.5806105284751 L 54.0,564.5806105284751 L 54.0,545.780610528475 M 85.0,564.5806105284751 L 85.0,545.780610528475 L 97.99999999999989,545.780610528475 L 97.99999999999989,564.5806105284751 L 85.0,564.5806105284751 M 69.5,564.5806105284751 L 69.5,545.780610528475 L 82.5,545.780610528475 L 82.49999999999989,564.5806105284751 L 69.5,564.5806105284751 M 27.100000000000023,586.5000000000036 L 27.100000000000023,573.5000000000038 L 45.89999999999998,573.5000000000038 L 45.89999999999998,586.5000000000036 L 27.100000000000023,586.5000000000036 M 103.0,596.0000000000039 L 123.0,596.0000000000039 L 123.0,599.0000000000035 L 103.0,599.0000000000035 L 103.0,596.0000000000039 M 29.0,599.0000000000039 L 29.0,596.0000000000039 L 58.999999999999886,596.0000000000039 L 58.999999999999886,599.0000000000039 L 29.0,599.0000000000039 M 105.74118095489757,576.1703708685582 L 107.03527618041016,576.0000000000035 L 108.32937140592276,576.1703708685582 L 109.53527618041005,576.6698729810813 L 110.57081008634282,577.4644660940709 L 111.36540319933226,578.5000000000036 L 111.86490531185541,579.705904774491 L 112.03527618041005,581.0000000000035 L 111.86490531185541,582.2940952255161 L 111.36540319933226,583.5000000000036 L 110.57081008634282,584.5355339059363 L 109.53527618041005,585.3301270189257 L 108.32937140592276,585.829629131449 L 107.03527618041005,586.0000000000036 L 105.74118095489746,585.829629131449 L 104.53527618041005,585.3301270189257 L 103.49974227447728,584.5355339059363 L 102.70514916148795,583.5000000000036 L 102.2056470489648,582.2940952255161 L 102.03527618041005,581.0000000000035 L 102.2056470489648,579.705904774491 L 102.70514916148795,578.5000000000036 L 103.49974227447728,577.4644660940709 L 104.53527618041005,576.6698729810813 L 105.74118095489757,576.1703708685582 "
  />
  <path id="face5-cut"
 style="fill:none;stroke:#0000FF;stroke-width:1;stroke-miterlimit:4;stroke-dasharray:none;stroke-linejoin:round;stroke-linecap:round"
        d="M 10.0,642.0000000000039 L 10.0,774.0000000000039 L 142.00000000000003,774.0000000000039 L 141.99999999999997,642.0000000000039 L 10.0,642.0000000000039 M 119.46666218300803,696.3531429703905 L 121.00000000000003,708.0000000000039 L 119.46666218300803,719.6468570296174 L 114.97114317029977,730.5000000000039 L 107.81980515339464,739.8198051533985 L 98.50000000000003,746.9711431703037 L 87.64685702961347,751.466662183012 L 75.99999999999997,753.0000000000039 L 64.35314297038653,751.466662183012 L 53.49999999999997,746.9711431703037 L 44.18019484660536,739.8198051533985 L 37.02885682970023,730.5000000000039 L 32.53333781699192,719.6468570296173 L 31.00000000000003,708.0000000000039 L 32.533337816991974,696.3531429703904 L 37.02885682970029,685.5000000000039 L 44.18019484660542,676.1801948466092 L 53.49999999999997,669.0288568297042 L 64.35314297038659,664.5333378169958 L 75.99999999999997,663.0000000000039 L 87.64685702961347,664.5333378169958 L 98.50000000000003,669.0288568297042 L 107.81980515339464,676.1801948466093 L 114.97114317029977,685.5000000000039 L 119.46666218300803,696.3531429703905 M 19.99999999999997,771.0000000000039 L 19.99999999999997,768.0000000000039 L 39.99999999999997,768.0000000000039 L 39.99999999999997,771.0000000000039 L 19.99999999999997,771.0000000000039 M 16.000000000000057,761.5000000000039 L 13.000000000000085,761.5000000000039 L 13.000000000000085,755.0000000000039 L 16.000000000000057,755.0000000000039 L 16.000000000000057,761.5000000000039 M 112.00000000000003,771.0000000000039 L 112.00000000000003,768.0000000000039 L 131.99999999999997,768.0000000000039 L 131.99999999999997,771.0000000000039 L 112.00000000000003,771.0000000000039 M 135.9999999999857,755.0000000000034 L 138.99999999998366,755.0000000000034 L 138.99999999998366,761.5000000000043 L 135.9999999999857,761.5000000000043 L 135.9999999999857,755.0000000000034 M 136.0000000000164,654.5000000000035 L 139.00000000001435,654.5000000000034 L 139.00000000001435,661.0000000000043 L 136.0000000000164,661.0000000000043 L 136.0000000000164,654.5000000000035 M 131.99999999999997,645.0000000000041 L 131.99999999999997,648.0000000000041 L 112.00000000000003,648.0000000000038 L 112.00000000000003,645.0000000000039 L 131.99999999999997,645.0000000000041 M 39.99999999999997,648.0000000000039 L 19.99999999999997,648.0000000000039 L 19.99999999999997,645.0000000000039 L 39.99999999999997,645.0000000000039 L 39.99999999999997,648.0000000000039 M 16.0,654.5000000000039 L 16.0,661.0000000000039 L 13.000000000000057,661.0000000000039 L 13.000000000000057,654.5000000000039 L 16.0,654.5000000000039 M 77.44888873943356,646.11177143235 L 77.49999999999997,646.5000000000039 L 77.44888873943356,646.8882285676576 L 77.29903810567666,647.2500000000039 L 77.0606601717798,647.5606601717836 L 76.74999999999997,647.7990381056807 L 76.38822856765378,647.9488887394375 L 75.99999999999997,648.000000000004 L 75.61177143234622,647.9488887394375 L 75.25000000000003,647.7990381056804 L 74.9393398282202,647.5606601717836 L 74.70096189432334,647.2500000000039 L 74.55111126056639,646.8882285676576 L 74.50000000000003,646.5000000000039 L 74.55111126056639,646.1117714323502 L 74.70096189432334,645.7500000000038 L 74.9393398282202,645.439339828224 L 75.25000000000003,645.2009618943273 L 75.61177143234622,645.0511112605702 L 75.99999999999997,645.0000000000039 L 76.38822856765378,645.05111126057 L 76.74999999999997,645.2009618943273 L 77.0606601717798,645.4393398282241 L 77.29903810567666,645.7500000000038 L 77.44888873943356,646.11177143235 M 77.44888873943356,769.1117714323502 L 77.49999999999997,769.5000000000039 L 77.44888873943356,769.8882285676576 L 77.29903810567666,770.2500000000039 L 77.0606601717798,770.5606601717838 L 76.74999999999997,770.7990381056806 L 76.38822856765378,770.9488887394375 L 75.99999999999997,771.0000000000039 L 75.61177143234622,770.9488887394375 L 75.25000000000003,770.7990381056804 L 74.9393398282202,770.5606601717838 L 74.70096189432334,770.2500000000039 L 74.55111126056639,769.8882285676576 L 74.50000000000003,769.5000000000039 L 74.55111126056639,769.1117714323502 L 74.70096189432334,768.7500000000039 L 74.9393398282202,768.4393398282241 L 75.25000000000003,768.2009618943273 L 75.61177143234622,768.0511112605702 L 75.99999999999997,768.0000000000039 L 76.38822856765378,768.0511112605703 L 76.74999999999997,768.2009618943273 L 77.0606601717798,768.4393398282241 L 77.29903810567666,768.7500000000039 L 77.44888873943356,769.1117714323502 "
  />
  <path id="face6-cut"
 style="fill:none;stroke:#0000FF;stroke-width:1;stroke-miterlimit:4;stroke-dasharray:none;stroke-linejoin:round;stroke-linecap:round"
        d="M 13.0,787.0000000000041 L 13.0,800.000000000004 L 10.0,800.000000000004 L 10.000000000000114,830.0000000000041 L 13.0,830.0000000000041 L 13.0,874.0000000000041 L 10.000000000000114,874.0000000000041 L 10.000000000000114,894.000000000004 L 13.0,894.000000000004 L 13.0,907.0000000000041 L 26.0,907.0000000000041 L 26.0,910.0000000000041 L 56.0,910.0000000000041 L 56.0,907.0000000000041 L 100.0,907.0000000000041 L 100.0,910.0000000000041 L 120.00000000000011,910.0000000000041 L 120.00000000000011,907.0000000000041 L 133.0,907.0000000000041 L 133.0,894.0000000000041 L 136.0,894.0000000000041 L 136.0,864.0000000000041 L 133.0,864.0000000000041 L 133.0,820.000000000004 L 136.0,820.0000000000041 L 136.0,800.0000000000041 L 133.0,800.0000000000041 L 133.0,787.0000000000041 L 120.00000000000011,787.0000000000041 L 120.00000000000011,784.000000000004 L 90.0,784.0000000000039 L 90.0,787.0000000000041 L 46.000000000000114,787.0000000000041 L 46.000000000000114,784.0000000000041 L 26.0,784.0000000000041 L 26.0,787.0000000000041 L 13.0,787.0000000000041 M 39.192596079882605,856.0586665785922 L 38.0,847.0000000000041 L 39.19259607988272,837.9413334214158 L 42.68911086754474,829.500000000004 L 48.251262658470864,822.251262658475 L 55.500000000000114,816.6891108675487 L 63.94133342141174,813.1925960798867 L 73.00000000000011,812.0000000000041 L 82.05866657858826,813.1925960798867 L 90.50000000000011,816.6891108675487 L 97.74873734152914,822.251262658475 L 103.31088913245537,829.5000000000041 L 106.8074039201174,837.9413334214158 L 108.00000000000011,847.0000000000041 L 106.8074039201174,856.0586665785922 L 103.31088913245537,864.5000000000041 L 97.74873734152914,871.7487373415332 L 90.5,877.3108891324594 L 82.05866657858826,880.8074039201215 L 73.00000000000011,882.0000000000041 L 63.94133342141174,880.8074039201215 L 55.5,877.3108891324594 L 48.251262658470864,871.7487373415331 L 42.68911086754474,864.5000000000041 L 39.192596079882605,856.0586665785922 M 36.5,812.5490381056808 L 36.18933982822023,812.3106601717839 L 35.95096189432343,812.0000000000041 L 35.80111126056647,811.6382285676578 L 35.750000000000114,811.2500000000041 L 35.80111126056647,810.8617714323502 L 35.950961894323314,810.5000000000041 L 36.18933982822023,810.1893398282242 L 36.5,809.9509618943274 L 36.861771432346245,809.8011112605705 L 37.25,809.7500000000041 L 37.63822856765387,809.8011112605705 L 38.0,809.9509618943274 L 38.31066017177977,810.1893398282242 L 38.549038105676686,810.5000000000041 L 38.69888873943364,810.8617714323502 L 38.75,811.250000000004 L 38.69888873943364,811.6382285676578 L 38.549038105676686,812.000000000004 L 38.31066017177989,812.3106601717839 L 38.0,812.5490381056808 L 37.63822856765387,812.6988887394377 L 37.25,812.750000000004 L 36.861771432346245,812.6988887394377 L 36.5,812.5490381056808 M 107.45096189432343,810.5000000000041 L 107.68933982822023,810.1893398282241 L 108.00000000000011,809.9509618943274 L 108.36177143234625,809.8011112605705 L 108.75,809.7500000000041 L 109.13822856765375,809.8011112605705 L 109.5,809.9509618943274 L 109.81066017177977,810.1893398282242 L 110.04903810567669,810.5000000000041 L 110.19888873943364,810.8617714323503 L 110.25,811.2500000000041 L 110.19888873943364,811.6382285676578 L 110.04903810567669,812.0000000000039 L 109.81066017177989,812.3106601717839 L 109.5,812.5490381056807 L 109.13822856765375,812.6988887394377 L 108.75,812.750000000004 L 108.36177143234625,812.6988887394377 L 108.00000000000011,812.5490381056808 L 107.68933982822023,812.3106601717839 L 107.45096189432331,812.0000000000041 L 107.30111126056636,811.6382285676578 L 107.25,811.2500000000041 L 107.30111126056636,810.8617714323503 L 107.45096189432343,810.5000000000041 M 38.549038105676686,882.0000000000041 L 38.69888873943364,882.3617714323503 L 38.75,882.7500000000041 L 38.69888873943364,883.1382285676578 L 38.549038105676686,883.5000000000041 L 38.31066017177977,883.810660171784 L 38.0,884.0490381056807 L 37.63822856765387,884.1988887394376 L 37.25,884.2500000000041 L 36.861771432346245,884.1988887394376 L 36.5,884.0490381056807 L 36.18933982822023,883.810660171784 L 35.950961894323314,883.5000000000041 L 35.80111126056647,883.1382285676578 L 35.750000000000114,882.7500000000041 L 35.80111126056647,882.3617714323502 L 35.950961894323314,882.0000000000041 L 36.18933982822023,881.6893398282242 L 36.500000000000114,881.4509618943274 L 36.861771432346245,881.3011112605705 L 37.25,881.2500000000041 L 37.63822856765387,881.3011112605705 L 38.0,881.4509618943275 L 38.31066017177989,881.6893398282243 L 38.549038105676686,882.0000000000041 M 109.81066017177989,883.8106601717839 L 109.5,884.0490381056807 L 109.13822856765375,884.1988887394376 L 108.75000000000011,884.2500000000041 L 108.36177143234625,884.1988887394376 L 108.00000000000011,884.0490381056807 L 107.68933982822023,883.810660171784 L 107.45096189432343,883.5000000000041 L 107.30111126056636,883.1382285676578 L 107.25000000000011,882.7500000000042 L 107.30111126056636,882.3617714323503 L 107.45096189432331,882.0000000000041 L 107.68933982822023,881.6893398282242 L 108.00000000000011,881.4509618943274 L 108.36177143234625,881.3011112605705 L 108.75000000000011,881.2500000000041 L 109.13822856765375,881.3011112605705 L 109.5,881.4509618943274 L 109.81066017177989,881.6893398282242 L 110.04903810567669,882.0000000000041 L 110.19888873943364,882.3617714323503 L 110.25,882.7500000000041 L 110.19888873943364,883.1382285676578 L 110.04903810567669,883.5000000000041 L 109.81066017177989,883.8106601717839 M 22.819529020599134,899.7383103040218 L 22.569777964337504,900.3412626912653 L 22.172481407842838,900.8590296442318 L 21.654714454876512,901.2563262007266 L 21.051762067632694,901.506077256988 L 20.404714454876512,901.5912626912653 L 19.757666842120216,901.506077256988 L 19.154714454876512,901.2563262007266 L 18.636947501910072,900.8590296442318 L 18.239650945415292,900.3412626912655 L 17.989899889153776,899.7383103040218 L 17.904714454876512,899.0912626912653 L 17.989899889153776,898.4442150785092 L 18.239650945415292,897.8412626912653 L 18.636947501910072,897.323495738299 L 19.154714454876512,896.9261991818043 L 19.757666842120216,896.6764481255427 L 20.404714454876512,896.5912626912655 L 21.051762067632694,896.6764481255427 L 21.654714454876512,896.9261991818043 L 22.172481407842838,897.323495738299 L 22.569777964337504,897.8412626912653 L 22.819529020599134,898.4442150785092 L 22.904714454876398,899.0912626912653 L 22.819529020599134,899.7383103040218 "
  />
  <path id="face0-interior"
 style="fill:none;stroke:#FF0000;stroke-width:1;stroke-miterlimit:4;stroke-dasharray:none;stroke-linejoin:round;stroke-linecap:round"
        d="M 26.0,13.000000000000085 M 10.0,13.000000000000085 M 10.0,106.00000000000023 M 19.999999999999886,106.00000000000023 M 20.000000000000114,109.00000000000027 M 40.0,109.00000000000027 M 40.0,106.00000000000023 M 74.5,106.00000000000024 M 74.5,104.00000000000031 M 73.20000000000005,104.00000000000033 M 73.20000000000005,101.80000000000028 M 74.5,101.80000000000027 M 74.5,98.80000000000024 M 77.5,98.80000000000024 M 77.5,101.80000000000027 M 78.79999999999984,101.80000000000028 M 78.80000000000007,104.00000000000034 M 77.5,104.00000000000033 M 77.5,106.00000000000024 M 111.99999999999989,106.00000000000023 M 112.00000000000011,109.00000000000026 M 132.0,109.0000000000003 M 132.0,106.00000000000024 M 141.9999999999999,106.00000000000023 M 141.9999999999999,13.000000000000085 M 126.0,13.000000000000085 M 126.0,10.0 M 95.99999999999989,10.000000000000142 M 95.99999999999989,13.000000000000085 M 69.5,13.000000000000085 M 69.5,15.000000000000128 M 70.80000000000007,15.000000000000014 M 70.79999999999984,17.200000000000173 M 69.5,17.20000000000023 M 69.5,20.200000000000273 M 66.5,20.20000000000026 M 66.5,17.20000000000023 M 65.20000000000005,17.200000000000188 M 65.20000000000005,15.000000000000142 M 66.5,15.0000000000001 M 66.5,13.000000000000085 M 45.999999999999886,13.000000000000085 M 45.999999999999886,10.000000000000227 M 26.0,10.000000000000227 M 92.99999999999989,43.0000000000003 M 122.99999999999989,43.0000000000003 M 122.99999999999989,46.00000000000014 M 93.00000000000011,46.00000000000014 M 29.0,46.000000000000156 M 29.0,43.000000000000114 M 49.0,43.000000000000114 M 49.0,46.000000000000156 M 13.0,23.000000000000156 M 16.000000000000114,23.000000000000156 M 15.999999999999886,33.00000000000023 M 13.0,33.00000000000023 M 139.00000000001796,33.000000000000185 M 136.00000000001785,33.00000000000014 M 136.00000000001785,23.000000000000355 M 139.00000000001796,23.0000000000003 M 76.51763809020508,74.73185165257847 M 76.0,74.8000000000003 M 75.48236190979492,74.73185165257846 M 75.0,74.53205080756915 M 74.58578643762701,74.21421356237339 M 74.26794919243116,73.80000000000032 M 74.06814834742192,73.31763809020526 M 74.00000000000011,72.80000000000018 M 74.06814834742192,72.28236190979513 M 74.26794919243116,71.80000000000024 M 74.58578643762701,71.38578643762719 M 75.0,71.06794919243143 M 75.48236190979492,70.8681483474221 M 76.0,70.8000000000003 M 76.51763809020508,70.86814834742212 M 76.99999999999989,71.06794919243143 M 77.41421356237299,71.38578643762719 M 77.73205080756895,71.80000000000024 M 77.93185165257808,72.28236190979513 M 78.0,72.80000000000021 M 77.93185165257819,73.31763809020526 M 77.73205080756895,73.80000000000035 M 77.4142135623731,74.21421356237339 M 76.99999999999989,74.53205080756915 M 41.16636229124856,67.19171458155027 M 41.30265898609218,68.22699076196025 M 41.16636229124856,69.26226694237039 M 40.766760601229976,70.22699076196034 M 40.131086110838396,71.05541788670644 M 39.3026589860923,71.69109237709816 M 38.33793516650235,72.09069406711657 M 37.30265898609218,72.22699076196025 M 36.26738280568213,72.09069406711657 M 35.30265898609218,71.69109237709816 M 34.474231861346084,71.05541788670644 M 33.838557370954504,70.22699076196034 M 33.43895568093592,69.26226694237036 M 33.3026589860923,68.22699076196025 M 33.43895568093592,67.1917145815503 M 33.838557370954504,66.22699076196034 M 34.474231861346084,65.39856363721405 M 35.30265898609218,64.76288914682252 M 36.26738280568213,64.36328745680409 M 37.30265898609218,64.22699076196025 M 38.33793516650235,64.36328745680409 M 39.3026589860923,64.76288914682252 M 40.131086110838396,65.39856363721405 M 40.766760601229976,66.22699076196034 "
  />
  <path id="face1-interior"
 style="fill:none;stroke:#FF0000;stroke-width:1;stroke-miterlimit:4;stroke-dasharray:none;stroke-linejoin:round;stroke-linecap:round"
        d="M 12.999999999998067,241.999999999978 M 85.9999999999983,241.999999999978 M 85.99999999999739,245.0000000000004 M 95.99999999999727,245.00000000000364 M 95.99999999999818,241.999999999978 M 105.99999999999818,241.999999999978 M 106.00000000000216,229.00000000000642 M 109.00000000000227,229.00000000000745 M 109.00000000001137,199.0000000000074 M 106.00000000001137,199.00000000000648 M 106.00000000001751,178.50000000000654 M 103.98000000001753,178.5000000000059 M 103.98000000001718,179.80000000000592 M 101.78000000001714,179.80000000000518 M 101.7800000000176,178.50000000000517 M 98.78000000001771,178.5000000000043 M 98.78000000001862,175.50000000000432 M 101.78000000001862,175.50000000000523 M 101.78000000001896,174.2000000000052 M 104.00000000001887,174.2000000000059 M 104.00000000001853,175.50000000000585 M 106.00000000001864,175.50000000000654 M 106.00000000002478,155.00000000000654 M 109.00000000002478,155.00000000000745 M 109.00000000003092,135.00000000000742 M 106.00000000003092,135.00000000000642 M 106.0000000000349,122.00000000000648 M 96.0000000000349,122.00000000000341 M 96.00000000003581,119.00000000000337 M 86.00000000003581,119.0000000000003 M 86.0000000000349,122.00000000000034 M 13.000000000034788,121.99999999997796 M 13.000000000032855,128.49999999997803 M 10.000000000032742,128.49999999997712 M 10.00000000003081,134.9999999999771 M 43.00000000003081,134.99999999998718 M 46.024322859235895,142.4775534634129 M 48.5191586407708,150.1480246991502 M 50.4723295013232,157.97397244652166 M 51.874301583442275,165.91719652972972 M 52.71823155240054,173.93892432133384 M 53.0000000000166,181.9999999999903 M 52.71823155239565,190.06107567864657 M 51.87430158343261,198.08280347025016 M 50.47232950130831,206.02602755345742 M 48.51915864075124,213.85197530082775 M 46.02432285921168,221.5224465365634 M 43.000000000002046,228.9999999999872 M 10.000000000002046,228.9999999999771 M 10.0,235.49999999997704 M 13.0,235.49999999997794 M 76.00000000002467,154.99999999999736 M 73.0000000000249,154.99999999999645 M 73.00000000003104,134.99999999999642 M 76.00000000003081,134.9999999999973 M 76.00000000000216,228.99999999999727 M 73.00000000000216,228.99999999999636 M 73.00000000001125,198.99999999999636 M 76.00000000001137,198.99999999999727 "
  />
  <path id="face2-interior"
 style="fill:none;stroke:#FF0000;stroke-width:1;stroke-miterlimit:4;stroke-dasharray:none;stroke-linejoin:round;stroke-linecap:round"
        d="M 106.00000000000011,258.0000000000035 M 33.000000000000114,258.0000000000035 M 33.000000000000114,255.00000000000364 M 23.0,255.00000000000364 M 23.0,258.0000000000035 M 13.000000000000114,258.0000000000035 M 13.0,271.0000000000035 M 10.000000000000114,271.0000000000035 M 10.0,301.0000000000035 M 13.0,301.0000000000035 M 13.000000000000114,321.5000000000035 M 15.019999999999982,321.5000000000035 M 15.019999999999982,320.2000000000035 M 17.220000000000027,320.2000000000035 M 17.220000000000027,321.5000000000035 M 20.220000000000027,321.5000000000035 M 20.220000000000027,324.5000000000035 M 17.220000000000027,324.5000000000035 M 17.220000000000027,325.80000000000354 M 15.0,325.8000000000035 M 15.000000000000114,324.5000000000035 M 13.000000000000114,324.5000000000035 M 13.000000000000114,345.0000000000035 M 10.000000000000114,345.0000000000035 M 10.000000000000114,365.00000000000364 M 13.000000000000114,365.00000000000364 M 13.000000000000114,378.0000000000036 M 23.0,378.0000000000035 M 23.0,381.0000000000036 M 33.000000000000114,381.00000000000364 M 33.000000000000114,378.0000000000036 M 106.00000000000011,378.0000000000035 M 106.00000000000011,371.5000000000036 M 109.00000000000023,371.5000000000036 M 109.00000000000023,365.0000000000035 M 76.00000000000011,365.0000000000035 M 72.97567714079275,357.52244653657874 M 70.48084135925546,349.85197530084224 M 68.5276704987009,342.0260275534714 M 67.1256984165791,334.0828034702637 M 66.28176844761856,326.06107567865985 M 66.00000000000011,318.00000000000347 M 66.28176844761856,309.93892432134714 M 67.1256984165791,301.91719652974325 M 68.5276704987009,293.9739724465355 M 70.48084135925546,286.1480246991647 M 72.97567714079275,278.47755346342825 M 76.00000000000011,271.0000000000035 M 109.00000000000023,271.0000000000035 M 109.00000000000023,264.5000000000035 M 106.00000000000011,264.5000000000035 M 43.000000000000114,345.0000000000035 M 46.000000000000114,345.0000000000035 M 46.0,365.0000000000035 M 43.000000000000114,365.0000000000035 M 43.0,271.0000000000035 M 46.0,271.0000000000035 M 46.0,301.0000000000035 M 43.0,301.0000000000035 "
  />
  <path id="face3-interior"
 style="fill:none;stroke:#FF0000;stroke-width:1;stroke-miterlimit:4;stroke-dasharray:none;stroke-linejoin:round;stroke-linecap:round"
        d="M 10.0,391.00000000000364 M 10.0,523.0000000000038 M 142.0,523.0000000000038 M 142.0,391.00000000000364 M 126.0,520.0000000000036 M 105.99999999999994,520.0000000000036 M 105.99999999999994,517.0000000000036 M 126.0,517.0000000000036 M 82.70096189432331,519.2500000000036 M 82.55111126056636,518.8882285676575 M 82.49999999999994,518.5000000000036 M 82.55111126056636,518.11177143235 M 82.70096189432331,517.7500000000036 M 82.93933982822017,517.4393398282239 M 83.24999999999994,517.2009618943271 M 83.61177143234619,517.05111126057 M 84.0,517.0000000000036 M 84.38822856765375,517.05111126057 M 84.75,517.2009618943271 M 85.06066017177977,517.4393398282239 M 85.29903810567663,517.7500000000036 M 85.44888873943358,518.11177143235 M 85.5,518.5000000000036 M 85.44888873943358,518.8882285676575 M 85.29903810567663,519.2500000000036 M 85.06066017177977,519.5606601717835 M 84.75,519.7990381056803 M 84.38822856765375,519.9488887394373 M 84.0,520.0000000000036 M 83.61177143234619,519.9488887394373 M 83.24999999999994,519.7990381056803 M 82.93933982822017,519.5606601717834 M 138.99999999999477,504.0000000000033 M 135.99999999998568,504.0000000000033 M 135.99999999998568,474.00000000000415 M 138.99999999999477,474.00000000000415 M 19.536584372056723,509.7966021341398 M 19.96073466765472,510.29260989429145 M 20.24205613755521,510.8814947743484 M 20.36137718848994,511.52312524291307 M 20.3105662880252,512.1737752438971 M 20.093086115058668,512.7891040549837 M 19.72375758397493,513.3271780345758 M 19.227749823823274,513.7513283301739 M 18.638864943766293,514.0326498000743 M 17.99723447520165,514.1519708510091 M 17.346584474217536,514.1011599505443 M 16.731255663131094,513.8836797775778 M 16.19318168353891,513.5143512464941 M 15.7690313879408,513.0183434863425 M 15.487709918040423,512.4294586062854 M 15.368388867105637,511.7878281377208 M 15.419199767570376,511.1371781367367 M 15.636679940536965,510.52184932565024 M 16.00600847162059,509.98377534605805 M 16.50201623177236,509.55962505046 M 17.090901111829282,509.2783035805595 M 17.732531580393868,509.1589825296248 M 18.383181581377983,509.2097934300895 M 18.998510392464482,509.42727360305605 M 56.00000000000006,517.0000000000036 M 56.00000000000006,520.0000000000036 M 26.0,520.0000000000036 M 26.0,517.0000000000036 M 13.051111260566415,462.3882285676574 M 13.0,462.0000000000037 M 13.051111260566415,461.6117714323499 M 13.200961894323314,461.2500000000037 M 13.43933982822017,460.9393398282238 M 13.75,460.70096189432707 M 14.111771432346188,460.5511112605701 M 14.5,460.5000000000037 M 14.888228567653812,460.55111126057 M 15.25,460.700961894327 M 15.560660171779773,460.9393398282238 M 15.799038105676573,461.2500000000037 M 15.948888739433585,461.6117714323499 M 15.999999999999943,462.0000000000037 M 15.948888739433585,462.3882285676574 M 15.799038105676573,462.7500000000037 M 15.560660171779773,463.0606601717835 M 15.25,463.29903810568027 M 14.888228567653698,463.4488887394373 M 14.5,463.50000000000364 M 14.111771432346188,463.4488887394373 M 13.75,463.29903810568027 M 13.439339828220113,463.0606601717835 M 13.200961894323314,462.7500000000037 M 13.0,484.00000000000364 M 16.0,484.00000000000364 M 16.0,504.0000000000037 M 13.0,504.0000000000037 M 67.61177143234619,394.05111126057 M 67.99999999999994,394.00000000000364 M 68.38822856765381,394.0511112605701 M 68.74999999999994,394.2009618943269 M 69.06066017177983,394.4393398282237 M 69.29903810567669,394.75000000000364 M 69.44888873943358,395.11177143234977 M 69.49999999999994,395.50000000000375 M 69.44888873943358,395.8882285676574 M 69.29903810567669,396.25000000000364 M 69.06066017177983,396.5606601717834 M 68.74999999999994,396.79903810568044 M 68.38822856765381,396.9488887394373 M 67.99999999999994,397.0000000000037 M 67.61177143234619,396.94888873943717 M 67.25,396.7990381056803 M 66.93933982822011,396.56066017178347 M 66.70096189432331,396.25000000000375 M 66.55111126056642,395.8882285676575 M 66.5,395.5000000000037 M 66.55111126056642,395.11177143234994 M 66.70096189432331,394.75000000000364 M 66.93933982822011,394.43933982822386 M 67.25,394.20096189432684 M 16.0,440.00000000000364 M 13.0,440.00000000000364 M 13.0,410.00000000000364 M 16.0,410.00000000000364 M 45.99999999999994,394.00000000000364 M 45.99999999999994,397.0000000000037 M 26.0,397.0000000000037 M 26.0,394.00000000000364 M 136.0000000000083,410.0000000000041 M 139.00000000001444,410.0000000000041 M 139.00000000001444,430.0000000000032 M 136.0000000000083,430.0000000000032 M 136.75000000000364,450.70096189432627 M 137.11177143234988,450.5511112605695 M 137.50000000000364,450.50000000000324 M 137.8882285676574,450.5511112605697 M 138.25000000000364,450.7009618943269 M 138.5606601717833,450.9393398282238 M 138.79903810567998,451.25000000000375 M 138.94888873943682,451.61177143235 M 139.00000000000307,452.00000000000375 M 138.9488887394366,452.38822856765756 M 138.79903810567941,452.75000000000375 M 138.5606601717825,453.06066017178347 M 138.2500000000025,453.2990381056801 M 137.88822856765637,453.44888873943694 M 137.5000000000025,453.50000000000324 M 137.11177143234886,453.4488887394367 M 136.75000000000261,453.2990381056796 M 136.43933982822296,453.0606601717826 M 136.20096189432616,452.75000000000273 M 136.05111126056943,452.3882285676565 M 136.00000000000307,452.0000000000026 M 136.05111126056966,451.6117714323489 M 136.2009618943266,451.25000000000273 M 136.43933982822364,450.939339828223 M 126.0,397.00000000000364 M 95.99999999999994,397.0000000000038 M 95.99999999999994,394.00000000000375 M 126.0,394.00000000000284 "
  />
  <path id="face4-interior"
 style="fill:none;stroke:#FF0000;stroke-width:1;stroke-miterlimit:4;stroke-dasharray:none;stroke-linejoin:round;stroke-linecap:round"
        d="M 112.0,533.0000000000038 M 112.0,536.0000000000038 M 77.5,536.0000000000038 M 77.5,538.0000000000038 M 78.79999999999995,538.0000000000038 M 78.79999999999995,540.2000000000038 M 77.5,540.2000000000038 M 77.5,543.2000000000038 M 74.5,543.2000000000038 M 74.5,540.2000000000038 M 73.19999999999993,540.2000000000037 M 73.19999999999993,538.0000000000039 M 74.5,538.0000000000038 M 74.5,536.0000000000038 M 40.0,536.000000000004 M 39.999999999999886,533.0000000000038 M 20.0,533.0000000000038 M 20.0,536.000000000004 M 10.0,536.0000000000038 M 10.0,629.0000000000039 M 26.0,629.0000000000039 M 26.0,632.0000000000039 M 56.0,632.0000000000038 M 56.0,629.0000000000039 M 82.60000000000002,629.0000000000039 M 82.60000000000002,627.0000000000039 M 81.29999999999995,627.0000000000039 M 81.29999999999995,624.8000000000038 M 82.5,624.8000000000038 M 82.5,621.8000000000038 M 85.5,621.8000000000038 M 85.5,624.8000000000038 M 86.80000000000007,624.8000000000038 M 86.80000000000007,627.0000000000039 M 85.5,627.0000000000039 M 85.5,629.0000000000039 M 106.0,629.0000000000039 M 106.0,632.0000000000039 M 126.0,632.0000000000038 M 126.0,629.0000000000039 M 142.0,629.0000000000039 M 142.0,536.0000000000038 M 132.0,536.0000000000038 M 131.9999999999999,533.0000000000038 M 69.5,582.2000000000041 M 68.8529523872437,582.1148145657268 M 68.24999999999989,581.8650635094652 M 67.73223304703356,581.4677669529705 M 67.33493649053878,580.9500000000041 M 67.08518543427726,580.3470476127604 M 66.99999999999989,579.700000000004 M 67.08518543427726,579.0529523872478 M 67.33493649053878,578.450000000004 M 67.73223304703345,577.9322330470377 M 68.24999999999989,577.5349364905429 M 68.85295238724359,577.2851854342813 M 69.49999999999989,577.2000000000039 M 70.14704761275618,577.2851854342813 M 70.74999999999989,577.5349364905429 M 71.26776695296633,577.9322330470377 M 71.66506350946099,578.450000000004 M 71.91481456572262,579.0529523872477 M 72.0,579.700000000004 M 71.91481456572274,580.3470476127603 M 71.66506350946099,580.950000000004 M 71.26776695296633,581.4677669529705 M 70.75,581.8650635094652 M 70.1470476127563,582.1148145657268 M 135.99999999998215,609.0000000000038 M 138.99999999998215,609.0000000000038 M 138.99999999998215,619.0000000000038 M 135.99999999998215,619.0000000000038 M 12.999999999999886,609.0000000000039 M 16.0,609.0000000000039 M 16.0,619.0000000000039 M 12.999999999999886,619.0000000000039 M 54.0,545.780610528475 M 66.99999999999989,545.780610528475 M 66.99999999999989,564.5806105284751 M 54.0,564.5806105284751 M 85.0,564.5806105284751 M 85.0,545.780610528475 M 97.99999999999989,545.780610528475 M 97.99999999999989,564.5806105284751 M 69.5,564.5806105284751 M 69.5,545.780610528475 M 82.5,545.780610528475 M 82.49999999999989,564.5806105284751 M 27.100000000000023,586.5000000000036 M 27.100000000000023,573.5000000000038 M 45.89999999999998,573.5000000000038 M 45.89999999999998,586.5000000000036 M 103.0,596.0000000000039 M 123.0,596.0000000000039 M 123.0,599.0000000000035 M 103.0,599.0000000000035 M 29.0,599.0000000000039 M 29.0,596.0000000000039 M 58.999999999999886,596.0000000000039 M 58.999999999999886,599.0000000000039 M 105.74118095489757,576.1703708685582 M 107.03527618041016,576.0000000000035 M 108.32937140592276,576.1703708685582 M 109.53527618041005,576.6698729810813 M 110.57081008634282,577.4644660940709 M 111.36540319933226,578.5000000000036 M 111.86490531185541,579.705904774491 M 112.03527618041005,581.0000000000035 M 111.86490531185541,582.2940952255161 M 111.36540319933226,583.5000000000036 M 110.57081008634282,584.5355339059363 M 109.53527618041005,585.3301270189257 M 108.32937140592276,585.829629131449 M 107.03527618041005,586.0000000000036 M 105.74118095489746,585.829629131449 M 104.53527618041005,585.3301270189257 M 103.49974227447728,584.5355339059363 M 102.70514916148795,583.5000000000036 M 102.2056470489648,582.2940952255161 M 102.03527618041005,581.0000000000035 M 102.2056470489648,579.705904774491 M 102.70514916148795,578.5000000000036 M 103.49974227447728,577.4644660940709 M 104.53527618041005,576.6698729810813 "
  />
  <path id="face5-interior"
 style="fill:none;stroke:#FF0000;stroke-width:1;stroke-miterlimit:4;stroke-dasharray:none;stroke-linejoin:round;stroke-linecap:round"
        d="M 10.0,642.0000000000039 M 10.0,774.0000000000039 M 142.00000000000003,774.0000000000039 M 141.99999999999997,642.0000000000039 M 119.46666218300803,696.3531429703905 M 121.00000000000003,708.0000000000039 M 119.46666218300803,719.6468570296174 M 114.97114317029977,730.5000000000039 M 107.81980515339464,739.8198051533985 M 98.50000000000003,746.9711431703037 M 87.64685702961347,751.466662183012 M 75.99999999999997,753.0000000000039 M 64.35314297038653,751.466662183012 M 53.49999999999997,746.9711431703037 M 44.18019484660536,739.8198051533985 M 37.02885682970023,730.5000000000039 M 32.53333781699192,719.6468570296173 M 31.00000000000003,708.0000000000039 M 32.533337816991974,696.3531429703904 M 37.02885682970029,685.5000000000039 M 44.18019484660542,676.1801948466092 M 53.49999999999997,669.0288568297042 M 64.35314297038659,664.5333378169958 M 75.99999999999997,663.0000000000039 M 87.64685702961347,664.5333378169958 M 98.50000000000003,669.0288568297042 M 107.81980515339464,676.1801948466093 M 114.97114317029977,685.5000000000039 M 19.99999999999997,771.0000000000039 M 19.99999999999997,768.0000000000039 M 39.99999999999997,768.0000000000039 M 39.99999999999997,771.0000000000039 M 16.000000000000057,761.5000000000039 M 13.000000000000085,761.5000000000039 M 13.000000000000085,755.0000000000039 M 16.000000000000057,755.0000000000039 M 112.00000000000003,771.0000000000039 M 112.00000000000003,768.0000000000039 M 131.99999999999997,768.0000000000039 M 131.99999999999997,771.0000000000039 M 135.9999999999857,755.0000000000034 M 138.99999999998366,755.0000000000034 M 138.99999999998366,761.5000000000043 M 135.9999999999857,761.5000000000043 M 136.0000000000164,654.5000000000035 M 139.00000000001435,654.5000000000034 M 139.00000000001435,661.0000000000043 M 136.0000000000164,661.0000000000043 M 131.99999999999997,645.0000000000041 M 131.99999999999997,648.0000000000041 M 112.00000000000003,648.0000000000038 M 112.00000000000003,645.0000000000039 M 39.99999999999997,648.0000000000039 M 19.99999999999997,648.0000000000039 M 19.99999999999997,645.0000000000039 M 39.99999999999997,645.0000000000039 M 16.0,654.5000000000039 M 16.0,661.0000000000039 M 13.000000000000057,661.0000000000039 M 13.000000000000057,654.5000000000039 M 77.44888873943356,646.11177143235 M 77.49999999999997,646.5000000000039 M 77.44888873943356,646.8882285676576 M 77.29903810567666,647.2500000000039 M 77.0606601717798,647.5606601717836 M 76.74999999999997,647.7990381056807 M 76.38822856765378,647.9488887394375 M 75.99999999999997,648.000000000004 M 75.61177143234622,647.9488887394375 M 75.25000000000003,647.7990381056804 M 74.9393398282202,647.5606601717836 M 74.70096189432334,647.2500000000039 M 74.55111126056639,646.8882285676576 M 74.50000000000003,646.5000000000039 M 74.55111126056639,646.1117714323502 M 74.70096189432334,645.7500000000038 M 74.9393398282202,645.439339828224 M 75.25000000000003,645.2009618943273 M 75.61177143234622,645.0511112605702 M 75.99999999999997,645.0000000000039 M 76.38822856765378,645.05111126057 M 76.74999999999997,645.2009618943273 M 77.0606601717798,645.4393398282241 M 77.29903810567666,645.7500000000038 M 77.44888873943356,769.1117714323502 M 77.49999999999997,769.5000000000039 M 77.44888873943356,769.8882285676576 M 77.29903810567666,770.2500000000039 M 77.0606601717798,770.5606601717838 M 76.74999999999997,770.7990381056806 M 76.38822856765378,770.9488887394375 M 75.99999999999997,771.0000000000039 M 75.61177143234622,770.9488887394375 M 75.25000000000003,770.7990381056804 M 74.9393398282202,770.5606601717838 M 74.70096189432334,770.2500000000039 M 74.55111126056639,769.8882285676576 M 74.50000000000003,769.5000000000039 M 74.55111126056639,769.1117714323502 M 74.70096189432334,768.7500000000039 M 74.9393398282202,768.4393398282241 M 75.25000000000003,768.2009618943273 M 75.61177143234622,768.0511112605702 M 75.99999999999997,768.0000000000039 M 76.38822856765378,768.0511112605703 M 76.74999999999997,768.2009618943273 M 77.0606601717798,768.4393398282241 M 77.29903810567666,768.7500000000039 "
  />
  <path id="face6-interior"
 style="fill:none;stroke:#FF0000;stroke-width:1;stroke-miterlimit:4;stroke-dasharray:none;stroke-linejoin:round;stroke-linecap:round"
        d="M 13.0,787.0000000000041 M 13.0,800.000000000004 M 10.0,800.000000000004 M 10.000000000000114,830.0000000000041 M 13.0,830.0000000000041 M 13.0,874.0000000000041 M 10.000000000000114,874.0000000000041 M 10.000000000000114,894.000000000004 M 13.0,894.000000000004 M 13.0,907.0000000000041 M 26.0,907.0000000000041 M 26.0,910.0000000000041 M 56.0,910.0000000000041 M 56.0,907.0000000000041 M 100.0,907.0000000000041 M 100.0,910.0000000000041 M 120.00000000000011,910.0000000000041 M 120.00000000000011,907.0000000000041 M 133.0,907.0000000000041 M 133.0,894.0000000000041 M 136.0,894.0000000000041 M 136.0,864.0000000000041 M 133.0,864.0000000000041 M 133.0,820.000000000004 M 136.0,820.0000000000041 M 136.0,800.0000000000041 M 133.0,800.0000000000041 M 133.0,787.0000000000041 M 120.00000000000011,787.0000000000041 M 120.00000000000011,784.000000000004 M 90.0,784.0000000000039 M 90.0,787.0000000000041 M 46.000000000000114,787.0000000000041 M 46.000000000000114,784.0000000000041 M 26.0,784.0000000000041 M 26.0,787.0000000000041 M 39.192596079882605,856.0586665785922 M 38.0,847.0000000000041 M 39.19259607988272,837.9413334214158 M 42.68911086754474,829.500000000004 M 48.251262658470864,822.251262658475 M 55.500000000000114,816.6891108675487 M 63.94133342141174,813.1925960798867 M 73.00000000000011,812.0000000000041 M 82.05866657858826,813.1925960798867 M 90.50000000000011,816.6891108675487 M 97.74873734152914,822.251262658475 M 103.31088913245537,829.5000000000041 M 106.8074039201174,837.9413334214158 M 108.00000000000011,847.0000000000041 M 106.8074039201174,856.0586665785922 M 103.31088913245537,864.5000000000041 M 97.74873734152914,871.7487373415332 M 90.5,877.3108891324594 M 82.05866657858826,880.8074039201215 M 73.00000000000011,882.0000000000041 M 63.94133342141174,880.8074039201215 M 55.5,877.3108891324594 M 48.251262658470864,871.7487373415331 M 42.68911086754474,864.5000000000041 M 36.5,812.5490381056808 M 36.18933982822023,812.3106601717839 M 35.95096189432343,812.0000000000041 M 35.80111126056647,811.6382285676578 M 35.750000000000114,811.2500000000041 M 35.80111126056647,810.8617714323502 M 35.950961894323314,810.5000000000041 M 36.18933982822023,810.1893398282242 M 36.5,809.9509618943274 M 36.861771432346245,809.8011112605705 M 37.25,809.7500000000041 M 37.63822856765387,809.8011112605705 M 38.0,809.9509618943274 M 38.31066017177977,810.1893398282242 M 38.549038105676686,810.5000000000041 M 38.69888873943364,810.8617714323502 M 38.75,811.250000000004 M 38.69888873943364,811.6382285676578 M 38.549038105676686,812.000000000004 M 38.31066017177989,812.3106601717839 M 38.0,812.5490381056808 M 37.63822856765387,812.6988887394377 M 37.25,812.750000000004 M 36.861771432346245,812.6988887394377 M 107.45096189432343,810.5000000000041 M 107.68933982822023,810.1893398282241 M 108.00000000000011,809.9509618943274 M 108.36177143234625,809.8011112605705 M 108.75,809.7500000000041 M 109.13822856765375,809.8011112605705 M 109.5,809.9509618943274 M 109.81066017177977,810.1893398282242 M 110.04903810567669,810.5000000000041 M 110.19888873943364,810.8617714323503 M 110.25,811.2500000000041 M 110.19888873943364,811.6382285676578 M 110.04903810567669,812.0000000000039 M 109.81066017177989,812.3106601717839 M 109.5,812.5490381056807 M 109.13822856765375,812.6988887394377 M 108.75,812.750000000004 M 108.36177143234625,812.6988887394377 M 108.00000000000011,812.5490381056808 M 107.68933982822023,812.3106601717839 M 107.45096189432331,812.0000000000041 M 107.30111126056636,811.6382285676578 M 107.25,811.2500000000041 M 107.30111126056636,810.8617714323503 M 38.549038105676686,882.0000000000041 M 38.69888873943364,882.3617714323503 M 38.75,882.7500000000041 M 38.69888873943364,883.1382285676578 M 38.549038105676686,883.5000000000041 M 38.31066017177977,883.810660171784 M 38.0,884.0490381056807 M 37.63822856765387,884.1988887394376 M 37.25,884.2500000000041 M 36.861771432346245,884.1988887394376 M 36.5,884.0490381056807 M 36.18933982822023,883.810660171784 M 35.950961894323314,883.5000000000041 M 35.80111126056647,883.1382285676578 M 35.750000000000114,882.7500000000041 M 35.80111126056647,882.3617714323502 M 35.950961894323314,882.0000000000041 M 36.18933982822023,881.6893398282242 M 36.500000000000114,881.4509618943274 M 36.861771432346245,881.3011112605705 M 37.25,881.2500000000041 M 37.63822856765387,881.3011112605705 M 38.0,881.4509618943275 M 38.31066017177989,881.6893398282243 M 109.81066017177989,883.8106601717839 M 109.5,884.0490381056807 M 109.13822856765375,884.1988887394376 M 108.75000000000011,884.2500000000041 M 108.36177143234625,884.1988887394376 M 108.00000000000011,884.0490381056807 M 107.68933982822023,883.810660171784 M 107.45096189432343,883.5000000000041 M 107.30111126056636,883.1382285676578 M 107.25000000000011,882.7500000000042 M 107.30111126056636,882.3617714323503 M 107.45096189432331,882.0000000000041 M 107.68933982822023,881.6893398282242 M 108.00000000000011,881.4509618943274 M 108.36177143234625,881.3011112605705 M 108.75000000000011,881.2500000000041 M 109.13822856765375,881.3011112605705 M 109.5,881.4509618943274 M 109.81066017177989,881.6893398282242 M 110.04903810567669,882.0000000000041 M 110.19888873943364,882.3617714323503 M 110.25,882.7500000000041 M 110.19888873943364,883.1382285676578 M 110.04903810567669,883.5000000000041 M 22.819529020599134,899.7383103040218 M 22.569777964337504,900.3412626912653 M 22.172481407842838,900.8590296442318 M 21.654714454876512,901.2563262007266 M 21.051762067632694,901.506077256988 M 20.404714454876512,901.5912626912653 M 19.757666842120216,901.506077256988 M 19.154714454876512,901.2563262007266 M 18.636947501910072,900.8590296442318 M 18.239650945415292,900.3412626912655 M 17.989899889153776,899.7383103040218 M 17.904714454876512,899.0912626912653 M 17.989899889153776,898.4442150785092 M 18.239650945415292,897.8412626912653 M 18.636947501910072,897.323495738299 M 19.154714454876512,896.9261991818043 M 19.757666842120216,896.6764481255427 M 20.404714454876512,896.5912626912655 M 21.051762067632694,896.6764481255427 M 21.654714454876512,896.9261991818043 M 22.172481407842838,897.323495738299 M 22.569777964337504,897.8412626912653 M 22.819529020599134,898.4442150785092 M 22.904714454876398,899.0912626912653 "
  />
  <path id="face0-interior"
 style="fill:none;stroke:#00FF00;stroke-width:1;stroke-miterlimit:4;stroke-dasharray:none;stroke-linejoin:round;stroke-linecap:round"
        d="M 26.0,13.000000000000085 M 10.0,13.000000000000085 M 10.0,106.00000000000023 M 19.999999999999886,106.00000000000023 M 20.000000000000114,109.00000000000027 M 40.0,109.00000000000027 M 40.0,106.00000000000023 M 74.5,106.00000000000024 M 74.5,104.00000000000031 M 73.20000000000005,104.00000000000033 M 73.20000000000005,101.80000000000028 M 74.5,101.80000000000027 M 74.5,98.80000000000024 M 77.5,98.80000000000024 M 77.5,101.80000000000027 M 78.79999999999984,101.80000000000028 M 78.80000000000007,104.00000000000034 M 77.5,104.00000000000033 M 77.5,106.00000000000024 M 111.99999999999989,106.00000000000023 M 112.00000000000011,109.00000000000026 M 132.0,109.0000000000003 M 132.0,106.00000000000024 M 141.9999999999999,106.00000000000023 M 141.9999999999999,13.000000000000085 M 126.0,13.000000000000085 M 126.0,10.0 M 95.99999999999989,10.000000000000142 M 95.99999999999989,13.000000000000085 M 69.5,13.000000000000085 M 69.5,15.000000000000128 M 70.80000000000007,15.000000000000014 M 70.79999999999984,17.200000000000173 M 69.5,17.20000000000023 M 69.5,20.200000000000273 M 66.5,20.20000000000026 M 66.5,17.20000000000023 M 65.20000000000005,17.200000000000188 M 65.20000000000005,15.000000000000142 M 66.5,15.0000000000001 M 66.5,13.000000000000085 M 45.999999999999886,13.000000000000085 M 45.999999999999886,10.000000000000227 M 26.0,10.000000000000227 M 92.99999999999989,43.0000000000003 M 122.99999999999989,43.0000000000003 M 122.99999999999989,46.00000000000014 M 93.00000000000011,46.00000000000014 M 29.0,46.000000000000156 M 29.0,43.000000000000114 M 49.0,43.000000000000114 M 49.0,46.000000000000156 M 13.0,23.000000000000156 M 16.000000000000114,23.000000000000156 M 15.999999999999886,33.00000000000023 M 13.0,33.00000000000023 M 139.00000000001796,33.000000000000185 M 136.00000000001785,33.00000000000014 M 136.00000000001785,23.000000000000355 M 139.00000000001796,23.0000000000003 M 76.51763809020508,74.73185165257847 M 76.0,74.8000000000003 M 75.48236190979492,74.73185165257846 M 75.0,74.53205080756915 M 74.58578643762701,74.21421356237339 M 74.26794919243116,73.80000000000032 M 74.06814834742192,73.31763809020526 M 74.00000000000011,72.80000000000018 M 74.06814834742192,72.28236190979513 M 74.26794919243116,71.80000000000024 M 74.58578643762701,71.38578643762719 M 75.0,71.06794919243143 M 75.48236190979492,70.8681483474221 M 76.0,70.8000000000003 M 76.51763809020508,70.86814834742212 M 76.99999999999989,71.06794919243143 M 77.41421356237299,71.38578643762719 M 77.73205080756895,71.80000000000024 M 77.93185165257808,72.28236190979513 M 78.0,72.80000000000021 M 77.93185165257819,73.31763809020526 M 77.73205080756895,73.80000000000035 M 77.4142135623731,74.21421356237339 M 76.99999999999989,74.53205080756915 M 41.16636229124856,67.19171458155027 M 41.30265898609218,68.22699076196025 M 41.16636229124856,69.26226694237039 M 40.766760601229976,70.22699076196034 M 40.131086110838396,71.05541788670644 M 39.3026589860923,71.69109237709816 M 38.33793516650235,72.09069406711657 M 37.30265898609218,72.22699076196025 M 36.26738280568213,72.09069406711657 M 35.30265898609218,71.69109237709816 M 34.474231861346084,71.05541788670644 M 33.838557370954504,70.22699076196034 M 33.43895568093592,69.26226694237036 M 33.3026589860923,68.22699076196025 M 33.43895568093592,67.1917145815503 M 33.838557370954504,66.22699076196034 M 34.474231861346084,65.39856363721405 M 35.30265898609218,64.76288914682252 M 36.26738280568213,64.36328745680409 M 37.30265898609218,64.22699076196025 M 38.33793516650235,64.36328745680409 M 39.3026589860923,64.76288914682252 M 40.131086110838396,65.39856363721405 M 40.766760601229976,66.22699076196034 "
  />
  <path id="face1-interior"
 style="fill:none;stroke:#00FF00;stroke-width:1;stroke-miterlimit:4;stroke-dasharray:none;stroke-linejoin:round;stroke-linecap:round"
        d="M 12.999999999998067,241.999999999978 M 85.9999999999983,241.999999999978 M 85.99999999999739,245.0000000000004 M 95.99999999999727,245.00000000000364 M 95.99999999999818,241.999999999978 M 105.99999999999818,241.999999999978 M 106.00000000000216,229.00000000000642 M 109.00000000000227,229.00000000000745 M 109.00000000001137,199.0000000000074 M 106.00000000001137,199.00000000000648 M 106.00000000001751,178.50000000000654 M 103.98000000001753,178.5000000000059 M 103.98000000001718,179.80000000000592 M 101.78000000001714,179.80000000000518 M 101.7800000000176,178.50000000000517 M 98.78000000001771,178.5000000000043 M 98.78000000001862,175.50000000000432 M 101.78000000001862,175.50000000000523 M 101.78000000001896,174.2000000000052 M 104.00000000001887,174.2000000000059 M 104.00000000001853,175.50000000000585 M 106.00000000001864,175.50000000000654 M 106.00000000002478,155.00000000000654 M 109.00000000002478,155.00000000000745 M 109.00000000003092,135.00000000000742 M 106.00000000003092,135.00000000000642 M 106.0000000000349,122.00000000000648 M 96.0000000000349,122.00000000000341 M 96.00000000003581,119.00000000000337 M 86.00000000003581,119.0000000000003 M 86.0000000000349,122.00000000000034 M 13.000000000034788,121.99999999997796 M 13.000000000032855,128.49999999997803 M 10.000000000032742,128.49999999997712 M 10.00000000003081,134.9999999999771 M 43.00000000003081,134.99999999998718 M 46.024322859235895,142.4775534634129 M 48.5191586407708,150.1480246991502 M 50.4723295013232,157.97397244652166 M 51.874301583442275,165.91719652972972 M 52.71823155240054,173.93892432133384 M 53.0000000000166,181.9999999999903 M 52.71823155239565,190.06107567864657 M 51.87430158343261,198.08280347025016 M 50.47232950130831,206.02602755345742 M 48.51915864075124,213.85197530082775 M 46.02432285921168,221.5224465365634 M 43.000000000002046,228.9999999999872 M 10.000000000002046,228.9999999999771 M 10.0,235.49999999997704 M 13.0,235.49999999997794 M 76.00000000002467,154.99999999999736 M 73.0000000000249,154.99999999999645 M 73.00000000003104,134.99999999999642 M 76.00000000003081,134.9999999999973 M 76.00000000000216,228.99999999999727 M 73.00000000000216,228.99999999999636 M 73.00000000001125,198.99999999999636 M 76.00000000001137,198.99999999999727 "
  />
  <path id="face2-interior"
 style="fill:none;stroke:#00FF00;stroke-width:1;stroke-miterlimit:4;stroke-dasharray:none;stroke-linejoin:round;stroke-linecap:round"
        d="M 106.00000000000011,258.0000000000035 M 33.000000000000114,258.0000000000035 M 33.000000000000114,255.00000000000364 M 23.0,255.00000000000364 M 23.0,258.0000000000035 M 13.000000000000114,258.0000000000035 M 13.0,271.0000000000035 M 10.000000000000114,271.0000000000035 M 10.0,301.0000000000035 M 13.0,301.0000000000035 M 13.000000000000114,321.5000000000035 M 15.019999999999982,321.5000000000035 M 15.019999999999982,320.2000000000035 M 17.220000000000027,320.2000000000035 M 17.220000000000027,321.5000000000035 M 20.220000000000027,321.5000000000035 M 20.220000000000027,324.5000000000035 M 17.220000000000027,324.5000000000035 M 17.220000000000027,325.80000000000354 M 15.0,325.8000000000035 M 15.000000000000114,324.5000000000035 M 13.000000000000114,324.5000000000035 M 13.000000000000114,345.0000000000035 M 10.000000000000114,345.0000000000035 M 10.000000000000114,365.00000000000364 M 13.000000000000114,365.00000000000364 M 13.000000000000114,378.0000000000036 M 23.0,378.0000000000035 M 23.0,381.0000000000036 M 33.000000000000114,381.00000000000364 M 33.000000000000114,378.0000000000036 M 106.00000000000011,378.0000000000035 M 106.00000000000011,371.5000000000036 M 109.00000000000023,371.5000000000036 M 109.00000000000023,365.0000000000035 M 76.00000000000011,365.0000000000035 M 72.97567714079275,357.52244653657874 M 70.48084135925546,349.85197530084224 M 68.5276704987009,342.0260275534714 M 67.1256984165791,334.0828034702637 M 66.28176844761856,326.06107567865985 M 66.00000000000011,318.00000000000347 M 66.28176844761856,309.93892432134714 M 67.1256984165791,301.91719652974325 M 68.5276704987009,293.9739724465355 M 70.48084135925546,286.1480246991647 M 72.97567714079275,278.47755346342825 M 76.00000000000011,271.0000000000035 M 109.00000000000023,271.0000000000035 M 109.00000000000023,264.5000000000035 M 106.00000000000011,264.5000000000035 M 43.000000000000114,345.0000000000035 M 46.000000000000114,345.0000000000035 M 46.0,365.0000000000035 M 43.000000000000114,365.0000000000035 M 43.0,271.0000000000035 M 46.0,271.0000000000035 M 46.0,301.0000000000035 M 43.0,301.0000000000035 "
  />
  <path id="face3-interior"
 style="fill:none;stroke:#00FF00;stroke-width:1;stroke-miterlimit:4;stroke-dasharray:none;stroke-linejoin:round;stroke-linecap:round"
        d="M 10.0,391.00000000000364 M 10.0,523.0000000000038 M 142.0,523.0000000000038 M 142.0,391.00000000000364 M 126.0,520.0000000000036 M 105.99999999999994,520.0000000000036 M 105.99999999999994,517.0000000000036 M 126.0,517.0000000000036 M 82.70096189432331,519.2500000000036 M 82.55111126056636,518.8882285676575 M 82.49999999999994,518.5000000000036 M 82.55111126056636,518.11177143235 M 82.70096189432331,517.7500000000036 M 82.93933982822017,517.4393398282239 M 83.24999999999994,517.2009618943271 M 83.61177143234619,517.05111126057 M 84.0,517.0000000000036 M 84.38822856765375,517.05111126057 M 84.75,517.2009618943271 M 85.06066017177977,517.4393398282239 M 85.29903810567663,517.7500000000036 M 85.44888873943358,518.11177143235 M 85.5,518.5000000000036 M 85.44888873943358,518.8882285676575 M 85.29903810567663,519.2500000000036 M 85.06066017177977,519.5606601717835 M 84.75,519.7990381056803 M 84.38822856765375,519.9488887394373 M 84.0,520.0000000000036 M 83.61177143234619,519.9488887394373 M 83.24999999999994,519.7990381056803 M 82.93933982822017,519.5606601717834 M 138.99999999999477,504.0000000000033 M 135.99999999998568,504.0000000000033 M 135.99999999998568,474.00000000000415 M 138.99999999999477,474.00000000000415 M 19.536584372056723,509.7966021341398 M 19.96073466765472,510.29260989429145 M 20.24205613755521,510.8814947743484 M 20.36137718848994,511.52312524291307 M 20.3105662880252,512.1737752438971 M 20.093086115058668,512.7891040549837 M 19.72375758397493,513.3271780345758 M 19.227749823823274,513.7513283301739 M 18.638864943766293,514.0326498000743 M 17.99723447520165,514.1519708510091 M 17.346584474217536,514.1011599505443 M 16.731255663131094,513.8836797775778 M 16.19318168353891,513.5143512464941 M 15.7690313879408,513.0183434863425 M 15.487709918040423,512.4294586062854 M 15.368388867105637,511.7878281377208 M 15.419199767570376,511.1371781367367 M 15.636679940536965,510.52184932565024 M 16.00600847162059,509.98377534605805 M 16.50201623177236,509.55962505046 M 17.090901111829282,509.2783035805595 M 17.732531580393868,509.1589825296248 M 18.383181581377983,509.2097934300895 M 18.998510392464482,509.42727360305605 M 56.00000000000006,517.0000000000036 M 56.00000000000006,520.0000000000036 M 26.0,520.0000000000036 M 26.0,517.0000000000036 M 13.051111260566415,462.3882285676574 M 13.0,462.0000000000037 M 13.051111260566415,461.6117714323499 M 13.200961894323314,461.2500000000037 M 13.43933982822017,460.9393398282238 M 13.75,460.70096189432707 M 14.111771432346188,460.5511112605701 M 14.5,460.5000000000037 M 14.888228567653812,460.55111126057 M 15.25,460.700961894327 M 15.560660171779773,460.9393398282238 M 15.799038105676573,461.2500000000037 M 15.948888739433585,461.6117714323499 M 15.999999999999943,462.0000000000037 M 15.948888739433585,462.3882285676574 M 15.799038105676573,462.7500000000037 M 15.560660171779773,463.0606601717835 M 15.25,463.29903810568027 M 14.888228567653698,463.4488887394373 M 14.5,463.50000000000364 M 14.111771432346188,463.4488887394373 M 13.75,463.29903810568027 M 13.439339828220113,463.0606601717835 M 13.200961894323314,462.7500000000037 M 13.0,484.00000000000364 M 16.0,484.00000000000364 M 16.0,504.0000000000037 M 13.0,504.0000000000037 M 67.61177143234619,394.05111126057 M 67.99999999999994,394.00000000000364 M 68.38822856765381,394.0511112605701 M 68.74999999999994,394.2009618943269 M 69.06066017177983,394.4393398282237 M 69.29903810567669,394.75000000000364 M 69.44888873943358,395.11177143234977 M 69.49999999999994,395.50000000000375 M 69.44888873943358,395.8882285676574 M 69.29903810567669,396.25000000000364 M 69.06066017177983,396.5606601717834 M 68.74999999999994,396.79903810568044 M 68.38822856765381,396.9488887394373 M 67.99999999999994,397.0000000000037 M 67.61177143234619,396.94888873943717 M 67.25,396.7990381056803 M 66.93933982822011,396.56066017178347 M 66.70096189432331,396.25000000000375 M 66.55111126056642,395.8882285676575 M 66.5,395.5000000000037 M 66.55111126056642,395.11177143234994 M 66.70096189432331,394.75000000000364 M 66.93933982822011,394.43933982822386 M 67.25,394.20096189432684 M 16.0,440.00000000000364 M 13.0,440.00000000000364 M 13.0,410.00000000000364 M 16.0,410.00000000000364 M 45.99999999999994,394.00000000000364 M 45.99999999999994,397.0000000000037 M 26.0,397.0000000000037 M 26.0,394.00000000000364 M 136.0000000000083,410.0000000000041 M 139.00000000001444,410.0000000000041 M 139.00000000001444,430.0000000000032 M 136.0000000000083,430.0000000000032 M 136.75000000000364,450.70096189432627 M 137.11177143234988,450.5511112605695 M 137.50000000000364,450.50000000000324 M 137.8882285676574,450.5511112605697 M 138.25000000000364,450.7009618943269 M 138.5606601717833,450.9393398282238 M 138.79903810567998,451.25000000000375 M 138.94888873943682,451.61177143235 M 139.00000000000307,452.00000000000375 M 138.9488887394366,452.38822856765756 M 138.79903810567941,452.75000000000375 M 138.5606601717825,453.06066017178347 M 138.2500000000025,453.2990381056801 M 137.88822856765637,453.44888873943694 M 137.5000000000025,453.50000000000324 M 137.11177143234886,453.4488887394367 M 136.75000000000261,453.2990381056796 M 136.43933982822296,453.0606601717826 M 136.20096189432616,452.75000000000273 M 136.05111126056943,452.3882285676565 M 136.00000000000307,452.0000000000026 M 136.05111126056966,451.6117714323489 M 136.2009618943266,451.25000000000273 M 136.43933982822364,450.939339828223 M 126.0,397.00000000000364 M 95.99999999999994,397.0000000000038 M 95.99999999999994,394.00000000000375 M 126.0,394.00000000000284 "
  />
  <path id="face4-interior"
 style="fill:none;stroke:#00FF00;stroke-width:1;stroke-miterlimit:4;stroke-dasharray:none;stroke-linejoin:round;stroke-linecap:round"
        d="M 112.0,533.0000000000038 M 112.0,536.0000000000038 M 77.5,536.0000000000038 M 77.5,538.0000000000038 M 78.79999999999995,538.0000000000038 M 78.79999999999995,540.2000000000038 M 77.5,540.2000000000038 M 77.5,543.2000000000038 M 74.5,543.2000000000038 M 74.5,540.2000000000038 M 73.19999999999993,540.2000000000037 M 73.19999999999993,538.0000000000039 M 74.5,538.0000000000038 M 74.5,536.0000000000038 M 40.0,536.000000000004 M 39.999999999999886,533.0000000000038 M 20.0,533.0000000000038 M 20.0,536.000000000004 M 10.0,536.0000000000038 M 10.0,629.0000000000039 M 26.0,629.0000000000039 M 26.0,632.0000000000039 M 56.0,632.0000000000038 M 56.0,629.0000000000039 M 82.60000000000002,629.0000000000039 M 82.60000000000002,627.0000000000039 M 81.29999999999995,627.0000000000039 M 81.29999999999995,624.8000000000038 M 82.5,624.8000000000038 M 82.5,621.8000000000038 M 85.5,621.8000000000038 M 85.5,624.8000000000038 M 86.80000000000007,624.8000000000038 M 86.80000000000007,627.0000000000039 M 85.5,627.0000000000039 M 85.5,629.0000000000039 M 106.0,629.0000000000039 M 106.0,632.0000000000039 M 126.0,632.0000000000038 M 126.0,629.0000000000039 M 142.0,629.0000000000039 M 142.0,536.0000000000038 M 132.0,536.0000000000038 M 131.9999999999999,533.0000000000038 M 69.5,582.2000000000041 M 68.8529523872437,582.1148145657268 M 68.24999999999989,581.8650635094652 M 67.73223304703356,581.4677669529705 M 67.33493649053878,580.9500000000041 M 67.08518543427726,580.3470476127604 M 66.99999999999989,579.700000000004 M 67.08518543427726,579.0529523872478 M 67.33493649053878,578.450000000004 M 67.73223304703345,577.9322330470377 M 68.24999999999989,577.5349364905429 M 68.85295238724359,577.2851854342813 M 69.49999999999989,577.2000000000039 M 70.14704761275618,577.2851854342813 M 70.74999999999989,577.5349364905429 M 71.26776695296633,577.9322330470377 M 71.66506350946099,578.450000000004 M 71.91481456572262,579.0529523872477 M 72.0,579.700000000004 M 71.91481456572274,580.3470476127603 M 71.66506350946099,580.950000000004 M 71.26776695296633,581.4677669529705 M 70.75,581.8650635094652 M 70.1470476127563,582.1148145657268 M 135.99999999998215,609.0000000000038 M 138.99999999998215,609.0000000000038 M 138.99999999998215,619.0000000000038 M 135.99999999998215,619.0000000000038 M 12.999999999999886,609.0000000000039 M 16.0,609.0000000000039 M 16.0,619.0000000000039 M 12.999999999999886,619.0000000000039 M 54.0,545.780610528475 M 66.99999999999989,545.780610528475 M 66.99999999999989,564.5806105284751 M 54.0,564.5806105284751 M 85.0,564.5806105284751 M 85.0,545.780610528475 M 97.99999999999989,545.780610528475 M 97.99999999999989,564.5806105284751 M 69.5,564.5806105284751 M 69.5,545.780610528475 M 82.5,545.780610528475 M 82.49999999999989,564.5806105284751 M 27.100000000000023,586.5000000000036 M 27.100000000000023,573.5000000000038 M 45.89999999999998,573.5000000000038 M 45.89999999999998,586.5000000000036 M 103.0,596.0000000000039 M 123.0,596.0000000000039 M 123.0,599.0000000000035 M 103.0,599.0000000000035 M 29.0,599.0000000000039 M 29.0,596.0000000000039 M 58.999999999999886,596.0000000000039 M 58.999999999999886,599.0000000000039 M 105.74118095489757,576.1703708685582 M 107.03527618041016,576.0000000000035 M 108.32937140592276,576.1703708685582 M 109.53527618041005,576.6698729810813 M 110.57081008634282,577.4644660940709 M 111.36540319933226,578.5000000000036 M 111.86490531185541,579.705904774491 M 112.03527618041005,581.0000000000035 M 111.86490531185541,582.2940952255161 M 111.36540319933226,583.5000000000036 M 110.57081008634282,584.5355339059363 M 109.53527618041005,585.3301270189257 M 108.32937140592276,585.829629131449 M 107.03527618041005,586.0000000000036 M 105.74118095489746,585.829629131449 M 104.53527618041005,585.3301270189257 M 103.49974227447728,584.5355339059363 M 102.70514916148795,583.5000000000036 M 102.2056470489648,582.2940952255161 M 102.03527618041005,581.0000000000035 M 102.2056470489648,579.705904774491 M 102.70514916148795,578.5000000000036 M 103.49974227447728,577.4644660940709 M 104.53527618041005,576.6698729810813 "
  />
  <path id="face5-interior"
 style="fill:none;stroke:#00FF00;stroke-width:1;stroke-miterlimit:4;stroke-dasharray:none;stroke-linejoin:round;stroke-linecap:round"
        d="M 10.0,642.0000000000039 M 10.0,774.0000000000039 M 142.00000000000003,774.0000000000039 M 141.99999999999997,642.0000000000039 M 119.46666218300803,696.3531429703905 M 121.00000000000003,708.0000000000039 M 119.46666218300803,719.6468570296174 M 114.97114317029977,730.5000000000039 M 107.81980515339464,739.8198051533985 M 98.50000000000003,746.9711431703037 M 87.64685702961347,751.466662183012 M 75.99999999999997,753.0000000000039 M 64.35314297038653,751.466662183012 M 53.49999999999997,746.9711431703037 M 44.18019484660536,739.8198051533985 M 37.02885682970023,730.5000000000039 M 32.53333781699192,719.6468570296173 M 31.00000000000003,708.0000000000039 M 32.533337816991974,696.3531429703904 M 37.02885682970029,685.5000000000039 M 44.18019484660542,676.1801948466092 M 53.49999999999997,669.0288568297042 M 64.35314297038659,664.5333378169958 M 75.99999999999997,663.0000000000039 M 87.64685702961347,664.5333378169958 M 98.50000000000003,669.0288568297042 M 107.81980515339464,676.1801948466093 M 114.97114317029977,685.5000000000039 M 19.99999999999997,771.0000000000039 M 19.99999999999997,768.0000000000039 M 39.99999999999997,768.0000000000039 M 39.99999999999997,771.0000000000039 M 16.000000000000057,761.5000000000039 M 13.000000000000085,761.5000000000039 M 13.000000000000085,755.0000000000039 M 16.000000000000057,755.0000000000039 M 112.00000000000003,771.0000000000039 M 112.00000000000003,768.0000000000039 M 131.99999999999997,768.0000000000039 M 131.99999999999997,771.0000000000039 M 135.9999999999857,755.0000000000034 M 138.99999999998366,755.0000000000034 M 138.99999999998366,761.5000000000043 M 135.9999999999857,761.5000000000043 M 136.0000000000164,654.5000000000035 M 139.00000000001435,654.5000000000034 M 139.00000000001435,661.0000000000043 M 136.0000000000164,661.0000000000043 M 131.99999999999997,645.0000000000041 M 131.99999999999997,648.0000000000041 M 112.00000000000003,648.0000000000038 M 112.00000000000003,645.0000000000039 M 39.99999999999997,648.0000000000039 M 19.99999999999997,648.0000000000039 M 19.99999999999997,645.0000000000039 M 39.99999999999997,645.0000000000039 M 16.0,654.5000000000039 M 16.0,661.0000000000039 M 13.000000000000057,661.0000000000039 M 13.000000000000057,654.5000000000039 M 77.44888873943356,646.11177143235 M 77.49999999999997,646.5000000000039 M 77.44888873943356,646.8882285676576 M 77.29903810567666,647.2500000000039 M 77.0606601717798,647.5606601717836 M 76.74999999999997,647.7990381056807 M 76.38822856765378,647.9488887394375 M 75.99999999999997,648.000000000004 M 75.61177143234622,647.9488887394375 M 75.25000000000003,647.7990381056804 M 74.9393398282202,647.5606601717836 M 74.70096189432334,647.2500000000039 M 74.55111126056639,646.8882285676576 M 74.50000000000003,646.5000000000039 M 74.55111126056639,646.1117714323502 M 74.70096189432334,645.7500000000038 M 74.9393398282202,645.439339828224 M 75.25000000000003,645.2009618943273 M 75.61177143234622,645.0511112605702 M 75.99999999999997,645.0000000000039 M 76.38822856765378,645.05111126057 M 76.74999999999997,645.2009618943273 M 77.0606601717798,645.4393398282241 M 77.29903810567666,645.7500000000038 M 77.44888873943356,769.1117714323502 M 77.49999999999997,769.5000000000039 M 77.44888873943356,769.8882285676576 M 77.29903810567666,770.2500000000039 M 77.0606601717798,770.5606601717838 M 76.74999999999997,770.7990381056806 M 76.38822856765378,770.9488887394375 M 75.99999999999997,771.0000000000039 M 75.61177143234622,770.9488887394375 M 75.25000000000003,770.7990381056804 M 74.9393398282202,770.5606601717838 M 74.70096189432334,770.2500000000039 M 74.55111126056639,769.8882285676576 M 74.50000000000003,769.5000000000039 M 74.55111126056639,769.1117714323502 M 74.70096189432334,768.7500000000039 M 74.9393398282202,768.4393398282241 M 75.25000000000003,768.2009618943273 M 75.61177143234622,768.0511112605702 M 75.99999999999997,768.0000000000039 M 76.38822856765378,768.0511112605703 M 76.74999999999997,768.2009618943273 M 77.0606601717798,768.4393398282241 M 77.29903810567666,768.7500000000039 "
  />
  <path id="face6-interior"
 style="fill:none;stroke:#00FF00;stroke-width:1;stroke-miterlimit:4;stroke-dasharray:none;stroke-linejoin:round;stroke-linecap:round"
        d="M 13.0,787.0000000000041 M 13.0,800.000000000004 M 10.0,800.000000000004 M 10.000000000000114,830.0000000000041 M 13.0,830.0000000000041 M 13.0,874.0000000000041 M 10.000000000000114,874.0000000000041 M 10.000000000000114,894.000000000004 M 13.0,894.000000000004 M 13.0,907.0000000000041 M 26.0,907.0000000000041 M 26.0,910.0000000000041 M 56.0,910.0000000000041 M 56.0,907.0000000000041 M 100.0,907.0000000000041 M 100.0,910.0000000000041 M 120.00000000000011,910.0000000000041 M 120.00000000000011,907.0000000000041 M 133.0,907.0000000000041 M 133.0,894.0000000000041 M 136.0,894.0000000000041 M 136.0,864.0000000000041 M 133.0,864.0000000000041 M 133.0,820.000000000004 M 136.0,820.0000000000041 M 136.0,800.0000000000041 M 133.0,800.0000000000041 M 133.0,787.0000000000041 M 120.00000000000011,787.0000000000041 M 120.00000000000011,784.000000000004 M 90.0,784.0000000000039 M 90.0,787.0000000000041 M 46.000000000000114,787.0000000000041 M 46.000000000000114,784.0000000000041 M 26.0,784.0000000000041 M 26.0,787.0000000000041 M 39.192596079882605,856.0586665785922 M 38.0,847.0000000000041 M 39.19259607988272,837.9413334214158 M 42.68911086754474,829.500000000004 M 48.251262658470864,822.251262658475 M 55.500000000000114,816.6891108675487 M 63.94133342141174,813.1925960798867 M 73.00000000000011,812.0000000000041 M 82.05866657858826,813.1925960798867 M 90.50000000000011,816.6891108675487 M 97.74873734152914,822.251262658475 M 103.31088913245537,829.5000000000041 M 106.8074039201174,837.9413334214158 M 108.00000000000011,847.0000000000041 M 106.8074039201174,856.0586665785922 M 103.31088913245537,864.5000000000041 M 97.74873734152914,871.7487373415332 M 90.5,877.3108891324594 M 82.05866657858826,880.8074039201215 M 73.00000000000011,882.0000000000041 M 63.94133342141174,880.8074039201215 M 55.5,877.3108891324594 M 48.251262658470864,871.7487373415331 M 42.68911086754474,864.5000000000041 M 36.5,812.5490381056808 M 36.18933982822023,812.3106601717839 M 35.95096189432343,812.0000000000041 M 35.80111126056647,811.6382285676578 M 35.750000000000114,811.2500000000041 M 35.80111126056647,810.8617714323502 M 35.950961894323314,810.5000000000041 M 36.18933982822023,810.1893398282242 M 36.5,809.9509618943274 M 36.861771432346245,809.8011112605705 M 37.25,809.7500000000041 M 37.63822856765387,809.8011112605705 M 38.0,809.9509618943274 M 38.31066017177977,810.1893398282242 M 38.549038105676686,810.5000000000041 M 38.69888873943364,810.8617714323502 M 38.75,811.250000000004 M 38.69888873943364,811.6382285676578 M 38.549038105676686,812.000000000004 M 38.31066017177989,812.3106601717839 M 38.0,812.5490381056808 M 37.63822856765387,812.6988887394377 M 37.25,812.750000000004 M 36.861771432346245,812.6988887394377 M 107.45096189432343,810.5000000000041 M 107.68933982822023,810.1893398282241 M 108.00000000000011,809.9509618943274 M 108.36177143234625,809.8011112605705 M 108.75,809.7500000000041 M 109.13822856765375,809.8011112605705 M 109.5,809.9509618943274 M 109.81066017177977,810.1893398282242 M 110.04903810567669,810.5000000000041 M 110.19888873943364,810.8617714323503 M 110.25,811.2500000000041 M 110.19888873943364,811.6382285676578 M 110.04903810567669,812.0000000000039 M 109.81066017177989,812.3106601717839 M 109.5,812.5490381056807 M 109.13822856765375,812.6988887394377 M 108.75,812.750000000004 M 108.36177143234625,812.6988887394377 M 108.00000000000011,812.5490381056808 M 107.68933982822023,812.3106601717839 M 107.45096189432331,812.0000000000041 M 107.30111126056636,811.6382285676578 M 107.25,811.2500000000041 M 107.30111126056636,810.8617714323503 M 38.549038105676686,882.0000000000041 M 38.69888873943364,882.3617714323503 M 38.75,882.7500000000041 M 38.69888873943364,883.1382285676578 M 38.549038105676686,883.5000000000041 M 38.31066017177977,883.810660171784 M 38.0,884.0490381056807 M 37.63822856765387,884.1988887394376 M 37.25,884.2500000000041 M 36.861771432346245,884.1988887394376 M 36.5,884.0490381056807 M 36.18933982822023,883.810660171784 M 35.950961894323314,883.5000000000041 M 35.80111126056647,883.1382285676578 M 35.750000000000114,882.7500000000041 M 35.80111126056647,882.3617714323502 M 35.950961894323314,882.0000000000041 M 36.18933982822023,881.6893398282242 M 36.500000000000114,881.4509618943274 M 36.861771432346245,881.3011112605705 M 37.25,881.2500000000041 M 37.63822856765387,881.3011112605705 M 38.0,881.4509618943275 M 38.31066017177989,881.6893398282243 M 109.81066017177989,883.8106601717839 M 109.5,884.0490381056807 M 109.13822856765375,884.1988887394376 M 108.75000000000011,884.2500000000041 M 108.36177143234625,884.1988887394376 M 108.00000000000011,884.0490381056807 M 107.68933982822023,883.810660171784 M 107.45096189432343,883.5000000000041 M 107.30111126056636,883.1382285676578 M 107.25000000000011,882.7500000000042 M 107.30111126056636,882.3617714323503 M 107.45096189432331,882.0000000000041 M 107.68933982822023,881.6893398282242 M 108.00000000000011,881.4509618943274 M 108.36177143234625,881.3011112605705 M 108.75000000000011,881.2500000000041 M 109.13822856765375,881.3011112605705 M 109.5,881.4509618943274 M 109.81066017177989,881.6893398282242 M 110.04903810567669,882.0000000000041 M 110.19888873943364,882.3617714323503 M 110.25,882.7500000000041 M 110.19888873943364,883.1382285676578 M 110.04903810567669,883.5000000000041 M 22.819529020599134,899.7383103040218 M 22.569777964337504,900.3412626912653 M 22.172481407842838,900.8590296442318 M 21.654714454876512,901.2563262007266 M 21.051762067632694,901.506077256988 M 20.404714454876512,901.5912626912653 M 19.757666842120216,901.506077256988 M 19.154714454876512,901.2563262007266 M 18.636947501910072,900.8590296442318 M 18.239650945415292,900.3412626912655 M 17.989899889153776,899.7383103040218 M 17.904714454876512,899.0912626912653 M 17.989899889153776,898.4442150785092 M 18.239650945415292,897.8412626912653 M 18.636947501910072,897.323495738299 M 19.154714454876512,896.9261991818043 M 19.757666842120216,896.6764481255427 M 20.404714454876512,896.5912626912655 M 21.051762067632694,896.6764481255427 M 21.654714454876512,896.9261991818043 M 22.172481407842838,897.323495738299 M 22.569777964337504,897.8412626912653 M 22.819529020599134,898.4442150785092 M 22.904714454876398,899.0912626912653 "
  />
</svg>
