<?xml version="1.0" standalone="no"?>
<!DOCTYPE svg PUBLIC "-//W3C//DTD SVG 1.1//EN" "http://www.w3.org/Graphics/SVG/1.1/DTD/svg11.dtd">
<svg width="152.00000000000003mm" height="996.0000000000043mm"
 viewBox="0 0 152.00000000000003 996.0000000000043"
 xmlns="http://www.w3.org/2000/svg" version="1.1"
 xmlns:xlink="http://www.w3.org/1999/xlink">
<desc>Output from Flights of Ideas SVG Sketchup Plugin</desc>

  <path id="face0-cut"
 style="fill:none;stroke:#0000FF;stroke-width:1;stroke-miterlimit:4;stroke-dasharray:none;stroke-linejoin:round;stroke-linecap:round"
        d="M 112.0,10.0 L 112.0,13.000000000000039 L 77.5,12.999999999999986 L 77.5,15.000000000000021 L 78.79999999999995,15.000000000000032 L 78.79999999999995,17.2 L 77.5,17.20000000000001 L 77.5,20.200000000000028 L 74.5,20.200000000000035 L 74.5,17.200000000000017 L 73.19999999999993,17.19999999999999 L 73.19999999999993,15.000000000000064 L 74.5,15.000000000000025 L 74.5,12.999999999999972 L 40.0,13.000000000000277 L 39.999999999999886,10.000000000000014 L 20.0,10.000000000000014 L 20.0,13.00000000000021 L 10.0,12.999999999999996 L 10.0,106.00000000000006 L 26.0,106.00000000000009 L 26.0,109.00000000000009 L 56.0,109.00000000000004 L 56.0,106.00000000000009 L 82.60000000000002,106.0000000000001 L 82.60000000000002,104.0000000000001 L 81.29999999999995,104.00000000000009 L 81.29999999999995,101.80000000000007 L 82.5,101.80000000000007 L 82.5,98.80000000000004 L 85.5,98.80000000000001 L 85.5,101.80000000000007 L 86.80000000000007,101.80000000000007 L 86.80000000000007,104.00000000000009 L 85.5,104.0000000000001 L 85.5,106.0000000000001 L 106.0,106.0000000000001 L 106.0,109.00000000000006 L 126.0,109.00000000000004 L 126.0,106.00000000000009 L 142.0,106.00000000000009 L 142.0,13.000000000000028 L 132.0,13.000000000000018 L 131.9999999999999,10.0 L 112.0,10.0 M 69.5,59.20000000000035 L 68.8529523872437,59.11481456572301 L 68.24999999999989,58.865063509461436 L 67.73223304703356,58.467766952966684 L 67.33493649053878,57.95000000000038 L 67.08518543427726,57.34704761275665 L 66.99999999999989,56.700000000000294 L 67.08518543427726,56.05295238724404 L 67.33493649053878,55.450000000000315 L 67.73223304703345,54.932233047033904 L 68.24999999999989,54.53493649053915 L 68.85295238724359,54.28518543427758 L 69.49999999999989,54.200000000000216 L 70.14704761275618,54.285185434277565 L 70.74999999999989,54.53493649053914 L 71.26776695296633,54.93223304703389 L 71.66506350946099,55.45000000000023 L 71.91481456572262,56.05295238724398 L 72.0,56.700000000000294 L 71.91481456572274,57.347047612756555 L 71.66506350946099,57.950000000000294 L 71.26776695296633,58.467766952966684 L 70.75,58.86506350946145 L 70.1470476127563,59.11481456572304 L 69.5,59.20000000000035 M 135.99999999998215,86.00000000000003 L 138.99999999998215,86.00000000000003 L 138.99999999998215,96.00000000000001 L 135.99999999998215,96.00000000000003 L 135.99999999998215,86.00000000000003 M 12.999999999999886,86.00000000000016 L 16.0,86.00000000000014 L 16.0,96.00000000000011 L 12.999999999999886,96.0000000000001 L 12.999999999999886,86.00000000000016 M 54.0,22.78061052847124 L 66.99999999999989,22.780610528471232 L 66.99999999999989,41.580610528471304 L 54.0,41.5806105284713 L 54.0,22.78061052847124 M 85.0,41.5806105284713 L 85.0,22.78061052847124 L 97.99999999999989,22.780610528471247 L 97.99999999999989,41.5806105284713 L 85.0,41.5806105284713 M 69.5,41.5806105284713 L 69.5,22.780610528471254 L 82.5,22.780610528471247 L 82.49999999999989,41.5806105284713 L 69.5,41.5806105284713 M 27.100000000000023,63.4999999999999 L 27.100000000000023,50.49999999999998 L 45.89999999999998,50.499999999999986 L 45.89999999999998,63.49999999999993 L 27.100000000000023,63.4999999999999 M 103.0,73.00000000000011 L 123.0,73.0000000000001 L 123.0,75.99999999999977 L 103.0,75.99999999999977 L 103.0,73.00000000000011 M 29.0,76.00000000000006 L 29.0,73.00000000000014 L 58.999999999999886,73.00000000000011 L 58.999999999999886,76.00000000000006 L 29.0,76.00000000000006 M 105.74118095489757,53.17037086855445 L 107.03527618041016,52.99999999999979 L 108.32937140592276,53.17037086855446 L 109.53527618041005,53.66987298107761 L 110.57081008634282,54.46446609406712 L 111.36540319933226,55.49999999999985 L 111.86490531185541,56.70590477448724 L 112.03527618041005,57.99999999999982 L 111.86490531185541,59.29409522551239 L 111.36540319933226,60.49999999999988 L 110.57081008634282,61.535533905932525 L 109.53527618041005,62.33012701892203 L 108.32937140592276,62.829629131445195 L 107.03527618041005,62.99999999999986 L 105.74118095489746,62.829629131445195 L 104.53527618041005,62.33012701892203 L 103.49974227447728,61.53553390593254 L 102.70514916148795,60.499999999999886 L 102.2056470489648,59.29409522551241 L 102.03527618041005,57.99999999999982 L 102.2056470489648,56.705904774487244 L 102.70514916148795,55.49999999999985 L 103.49974227447728,54.46446609406713 L 104.53527618041005,53.66987298107761 L 105.74118095489757,53.17037086855445 "
  />
  <path id="face1-cut"
 style="fill:none;stroke:#0000FF;stroke-width:1;stroke-miterlimit:4;stroke-dasharray:none;stroke-linejoin:round;stroke-linecap:round"
        d="M 10.0,119.00000000000009 L 10.0,251.0000000000001 L 142.00000000000003,251.0000000000001 L 141.99999999999997,119.00000000000009 L 10.0,119.00000000000009 M 119.46666218300803,173.35314297038673 L 121.00000000000003,185.0000000000001 L 119.46666218300803,196.64685702961359 L 114.97114317029977,207.50000000000009 L 107.81980515339464,216.81980515339473 L 98.50000000000003,223.97114317029988 L 87.64685702961347,228.46666218300817 L 75.99999999999997,230.0000000000001 L 64.35314297038653,228.46666218300817 L 53.49999999999997,223.97114317029985 L 44.18019484660536,216.81980515339475 L 37.02885682970023,207.5000000000001 L 32.53333781699192,196.64685702961356 L 31.00000000000003,185.0000000000001 L 32.533337816991974,173.35314297038667 L 37.02885682970029,162.50000000000009 L 44.18019484660542,153.18019484660545 L 53.49999999999997,146.0288568297004 L 64.35314297038659,141.533337816992 L 75.99999999999997,140.00000000000009 L 87.64685702961347,141.53333781699203 L 98.50000000000003,146.02885682970037 L 107.81980515339464,153.18019484660547 L 114.97114317029977,162.5000000000001 L 119.46666218300803,173.35314297038673 M 19.99999999999997,248.00000000000014 L 19.99999999999997,245.00000000000014 L 39.99999999999997,245.00000000000014 L 39.99999999999997,248.00000000000014 L 19.99999999999997,248.00000000000014 M 16.000000000000057,238.50000000000009 L 13.000000000000085,238.50000000000009 L 13.000000000000085,232.00000000000006 L 16.000000000000057,232.00000000000006 L 16.000000000000057,238.50000000000009 M 112.00000000000003,248.00000000000014 L 112.00000000000003,245.00000000000014 L 131.99999999999997,245.0000000000001 L 131.99999999999997,248.00000000000014 L 112.00000000000003,248.00000000000014 M 135.9999999999857,231.99999999999966 L 138.99999999998366,231.9999999999997 L 138.99999999998366,238.50000000000057 L 135.9999999999857,238.50000000000057 L 135.9999999999857,231.99999999999966 M 136.0000000000164,131.49999999999972 L 139.00000000001435,131.4999999999996 L 139.00000000001435,138.0000000000006 L 136.0000000000164,138.00000000000057 L 136.0000000000164,131.49999999999972 M 131.99999999999997,122.00000000000028 L 131.99999999999997,125.00000000000036 L 112.00000000000003,124.99999999999994 L 112.00000000000003,122.00000000000006 L 131.99999999999997,122.00000000000028 M 39.99999999999997,125.00000000000009 L 19.99999999999997,125.00000000000009 L 19.99999999999997,122.00000000000009 L 39.99999999999997,122.00000000000009 L 39.99999999999997,125.00000000000009 M 16.0,131.5000000000001 L 16.0,138.00000000000006 L 13.000000000000057,138.00000000000006 L 13.000000000000057,131.5000000000001 L 16.0,131.5000000000001 M 77.44888873943356,123.11177143234622 L 77.49999999999997,123.50000000000013 L 77.44888873943356,123.88822856765388 L 77.29903810567666,124.25000000000003 L 77.0606601717798,124.56066017177992 L 76.74999999999997,124.79903810567683 L 76.38822856765378,124.94888873943371 L 75.99999999999997,125.00000000000017 L 75.61177143234622,124.94888873943371 L 75.25000000000003,124.79903810567663 L 74.9393398282202,124.56066017177984 L 74.70096189432334,124.2500000000001 L 74.55111126056639,123.88822856765384 L 74.50000000000003,123.50000000000011 L 74.55111126056639,123.11177143234642 L 74.70096189432334,122.74999999999997 L 74.9393398282202,122.43933982822017 L 75.25000000000003,122.20096189432351 L 75.61177143234622,122.05111126056647 L 75.99999999999997,122.00000000000009 L 76.38822856765378,122.05111126056627 L 76.74999999999997,122.20096189432357 L 77.0606601717798,122.43933982822034 L 77.29903810567666,122.75 L 77.44888873943356,123.11177143234622 M 77.44888873943356,246.1117714323464 L 77.49999999999997,246.50000000000014 L 77.44888873943356,246.88822856765387 L 77.29903810567666,247.25000000000014 L 77.0606601717798,247.56066017177994 L 76.74999999999997,247.79903810567677 L 76.38822856765378,247.9488887394337 L 75.99999999999997,248.00000000000009 L 75.61177143234622,247.94888873943373 L 75.25000000000003,247.79903810567671 L 74.9393398282202,247.56066017177997 L 74.70096189432334,247.25000000000006 L 74.55111126056639,246.88822856765387 L 74.50000000000003,246.5000000000001 L 74.55111126056639,246.1117714323464 L 74.70096189432334,245.75000000000009 L 74.9393398282202,245.43933982822026 L 75.25000000000003,245.20096189432348 L 75.61177143234622,245.0511112605665 L 75.99999999999997,245.00000000000014 L 76.38822856765378,245.05111126056653 L 76.74999999999997,245.2009618943235 L 77.0606601717798,245.43933982822026 L 77.29903810567666,245.75000000000014 L 77.44888873943356,246.1117714323464 "
  />
  <path id="face2-cut"
 style="fill:none;stroke:#0000FF;stroke-width:1;stroke-miterlimit:4;stroke-dasharray:none;stroke-linejoin:round;stroke-linecap:round"
        d="M 13.0,264.00000000000034 L 13.0,277.0000000000002 L 10.0,277.0000000000002 L 10.000000000000114,307.0000000000003 L 13.0,307.0000000000003 L 13.0,351.00000000000034 L 10.000000000000114,351.00000000000034 L 10.000000000000114,371.0000000000003 L 13.0,371.0000000000003 L 13.0,384.0000000000003 L 26.0,384.0000000000003 L 26.0,387.00000000000034 L 56.0,387.00000000000034 L 56.0,384.0000000000003 L 100.0,384.0000000000003 L 100.0,387.00000000000034 L 120.00000000000011,387.00000000000034 L 120.00000000000011,384.0000000000003 L 133.0,384.00000000000034 L 133.0,371.00000000000034 L 136.0,371.00000000000034 L 136.0,341.00000000000034 L 133.0,341.00000000000034 L 133.0,297.0000000000003 L 136.0,297.0000000000003 L 136.0,277.0000000000003 L 133.0,277.00000000000034 L 133.0,264.00000000000034 L 120.00000000000011,264.00000000000034 L 120.00000000000011,261.0000000000002 L 90.0,261.0000000000001 L 90.0,264.00000000000034 L 46.000000000000114,264.00000000000034 L 46.000000000000114,261.0000000000003 L 26.0,261.0000000000003 L 26.0,264.00000000000034 L 13.0,264.00000000000034 M 39.192596079882605,333.05866657858854 L 38.0,324.0000000000003 L 39.19259607988272,314.9413334214121 L 42.68911086754474,306.5000000000002 L 48.251262658470864,299.2512626584712 L 55.500000000000114,293.68911086754497 L 63.94133342141174,290.1925960798829 L 73.00000000000011,289.00000000000034 L 82.05866657858826,290.1925960798829 L 90.50000000000011,293.68911086754497 L 97.74873734152914,299.2512626584712 L 103.31088913245537,306.5000000000003 L 106.8074039201174,314.9413334214121 L 108.00000000000011,324.00000000000034 L 106.8074039201174,333.0586665785885 L 103.31088913245537,341.50000000000034 L 97.74873734152914,348.7487373415295 L 90.5,354.3108891324556 L 82.05866657858826,357.80740392011774 L 73.00000000000011,359.0000000000003 L 63.94133342141174,357.80740392011774 L 55.5,354.3108891324556 L 48.251262658470864,348.74873734152936 L 42.68911086754474,341.5000000000003 L 39.192596079882605,333.05866657858854 M 36.5,289.54903810567697 L 36.18933982822023,289.3106601717801 L 35.95096189432343,289.00000000000034 L 35.80111126056647,288.6382285676541 L 35.750000000000114,288.25000000000034 L 35.80111126056647,287.86177143234653 L 35.950961894323314,287.50000000000034 L 36.18933982822023,287.18933982822045 L 36.5,286.95096189432365 L 36.861771432346245,286.8011112605667 L 37.25,286.7500000000003 L 37.63822856765387,286.8011112605667 L 38.0,286.95096189432365 L 38.31066017177977,287.18933982822045 L 38.549038105676686,287.50000000000034 L 38.69888873943364,287.86177143234653 L 38.75,288.2500000000002 L 38.69888873943364,288.6382285676541 L 38.549038105676686,289.0000000000002 L 38.31066017177989,289.3106601717801 L 38.0,289.54903810567697 L 37.63822856765387,289.6988887394339 L 37.25,289.7500000000002 L 36.861771432346245,289.6988887394339 L 36.5,289.54903810567697 M 107.45096189432343,287.5000000000003 L 107.68933982822023,287.1893398282204 L 108.00000000000011,286.95096189432365 L 108.36177143234625,286.8011112605667 L 108.75,286.75000000000034 L 109.13822856765375,286.8011112605667 L 109.5,286.95096189432365 L 109.81066017177977,287.18933982822045 L 110.04903810567669,287.50000000000034 L 110.19888873943364,287.8617714323466 L 110.25,288.25000000000034 L 110.19888873943364,288.63822856765404 L 110.04903810567669,289.0000000000001 L 109.81066017177989,289.3106601717801 L 109.5,289.54903810567697 L 109.13822856765375,289.698888739434 L 108.75,289.7500000000003 L 108.36177143234625,289.6988887394339 L 108.00000000000011,289.549038105677 L 107.68933982822023,289.3106601717801 L 107.45096189432331,289.00000000000034 L 107.30111126056636,288.6382285676541 L 107.25,288.25000000000034 L 107.30111126056636,287.86177143234653 L 107.45096189432343,287.5000000000003 M 38.549038105676686,359.0000000000004 L 38.69888873943364,359.3617714323466 L 38.75,359.7500000000004 L 38.69888873943364,360.1382285676541 L 38.549038105676686,360.5000000000004 L 38.31066017177977,360.8106601717802 L 38.0,361.04903810567697 L 37.63822856765387,361.19888873943387 L 37.25,361.25000000000034 L 36.861771432346245,361.19888873943387 L 36.5,361.04903810567697 L 36.18933982822023,360.8106601717802 L 35.950961894323314,360.50000000000034 L 35.80111126056647,360.1382285676541 L 35.750000000000114,359.7500000000004 L 35.80111126056647,359.3617714323465 L 35.950961894323314,359.0000000000004 L 36.18933982822023,358.68933982822045 L 36.500000000000114,358.45096189432365 L 36.861771432346245,358.3011112605667 L 37.25,358.25000000000034 L 37.63822856765387,358.3011112605667 L 38.0,358.4509618943237 L 38.31066017177989,358.68933982822057 L 38.549038105676686,359.0000000000004 M 109.81066017177989,360.81066017178017 L 109.5,361.04903810567697 L 109.13822856765375,361.1988887394339 L 108.75000000000011,361.2500000000004 L 108.36177143234625,361.19888873943387 L 108.00000000000011,361.04903810567697 L 107.68933982822023,360.8106601717802 L 107.45096189432343,360.50000000000034 L 107.30111126056636,360.1382285676541 L 107.25000000000011,359.7500000000004 L 107.30111126056636,359.3617714323466 L 107.45096189432331,359.0000000000004 L 107.68933982822023,358.68933982822045 L 108.00000000000011,358.45096189432365 L 108.36177143234625,358.3011112605667 L 108.75000000000011,358.25000000000034 L 109.13822856765375,358.3011112605667 L 109.5,358.45096189432365 L 109.81066017177989,358.6893398282205 L 110.04903810567669,359.00000000000034 L 110.19888873943364,359.3617714323466 L 110.25,359.7500000000004 L 110.19888873943364,360.1382285676541 L 110.04903810567669,360.5000000000004 L 109.81066017177989,360.81066017178017 M 22.819529020599134,376.73831030401794 L 22.569777964337504,377.3412626912616 L 22.172481407842838,377.85902964422803 L 21.654714454876512,378.2563262007228 L 21.051762067632694,378.50607725698427 L 20.404714454876512,378.5912626912616 L 19.757666842120216,378.50607725698427 L 19.154714454876512,378.2563262007228 L 18.636947501910072,377.85902964422803 L 18.239650945415292,377.3412626912617 L 17.989899889153776,376.73831030401794 L 17.904714454876512,376.0912626912616 L 17.989899889153776,375.4442150785054 L 18.239650945415292,374.84126269126165 L 18.636947501910072,374.3234957382952 L 19.154714454876512,373.92619918180054 L 19.757666842120216,373.67644812553897 L 20.404714454876512,373.59126269126165 L 21.051762067632694,373.67644812553897 L 21.654714454876512,373.92619918180054 L 22.172481407842838,374.3234957382952 L 22.569777964337504,374.84126269126165 L 22.819529020599134,375.4442150785054 L 22.904714454876398,376.0912626912616 L 22.819529020599134,376.73831030401794 "
  />
  <path id="face3-cut"
 style="fill:none;stroke:#0000FF;stroke-width:1;stroke-miterlimit:4;stroke-dasharray:none;stroke-linejoin:round;stroke-linecap:round"
        d="M 10.0,397.00000000000034 L 10.0,529.0000000000005 L 142.0,529.0000000000005 L 142.0,397.00000000000034 L 10.0,397.00000000000034 M 126.0,526.0000000000005 L 105.99999999999994,526.0000000000005 L 105.99999999999994,523.0000000000003 L 126.0,523.0000000000003 L 126.0,526.0000000000005 M 82.70096189432331,525.2500000000003 L 82.55111126056636,524.8882285676541 L 82.49999999999994,524.5000000000003 L 82.55111126056636,524.1117714323466 L 82.70096189432331,523.7500000000003 L 82.93933982822017,523.4393398282206 L 83.24999999999994,523.2009618943237 L 83.61177143234619,523.0511112605668 L 84.0,523.0000000000003 L 84.38822856765375,523.0511112605668 L 84.75,523.2009618943237 L 85.06066017177977,523.4393398282206 L 85.29903810567663,523.7500000000003 L 85.44888873943358,524.1117714323467 L 85.5,524.5000000000003 L 85.44888873943358,524.8882285676542 L 85.29903810567663,525.2500000000003 L 85.06066017177977,525.5606601717802 L 84.75,525.799038105677 L 84.38822856765375,525.948888739434 L 84.0,526.0000000000003 L 83.61177143234619,525.948888739434 L 83.24999999999994,525.799038105677 L 82.93933982822017,525.5606601717801 L 82.70096189432331,525.2500000000003 M 138.99999999999477,510.0 L 135.99999999998568,510.0 L 135.99999999998568,480.00000000000085 L 138.99999999999477,480.00000000000085 L 138.99999999999477,510.0 M 19.536584372056723,515.7966021341365 L 19.96073466765472,516.2926098942881 L 20.24205613755521,516.8814947743451 L 20.36137718848994,517.5231252429098 L 20.3105662880252,518.1737752438939 L 20.093086115058668,518.7891040549803 L 19.72375758397493,519.3271780345726 L 19.227749823823274,519.7513283301705 L 18.638864943766293,520.032649800071 L 17.99723447520165,520.1519708510058 L 17.346584474217536,520.101159950541 L 16.731255663131094,519.8836797775746 L 16.19318168353891,519.5143512464908 L 15.7690313879408,519.0183434863392 L 15.487709918040423,518.4294586062822 L 15.368388867105637,517.7878281377175 L 15.419199767570376,517.1371781367334 L 15.636679940536965,516.5218493256469 L 16.00600847162059,515.9837753460547 L 16.50201623177236,515.5596250504567 L 17.090901111829282,515.2783035805562 L 17.732531580393868,515.1589825296214 L 18.383181581377983,515.2097934300862 L 18.998510392464482,515.4272736030528 L 19.536584372056723,515.7966021341365 M 56.00000000000006,523.0000000000003 L 56.00000000000006,526.0000000000005 L 26.0,526.0000000000005 L 26.0,523.0000000000003 L 56.00000000000006,523.0000000000003 M 13.051111260566415,468.3882285676541 L 13.0,468.0000000000004 L 13.051111260566415,467.6117714323466 L 13.200961894323314,467.2500000000004 L 13.43933982822017,466.9393398282205 L 13.75,466.70096189432377 L 14.111771432346188,466.5511112605668 L 14.5,466.5000000000004 L 14.888228567653812,466.5511112605667 L 15.25,466.7009618943237 L 15.560660171779773,466.9393398282205 L 15.799038105676573,467.2500000000004 L 15.948888739433585,467.6117714323466 L 15.999999999999943,468.0000000000004 L 15.948888739433585,468.3882285676541 L 15.799038105676573,468.7500000000004 L 15.560660171779773,469.0606601717802 L 15.25,469.29903810567697 L 14.888228567653698,469.448888739434 L 14.5,469.50000000000034 L 14.111771432346188,469.448888739434 L 13.75,469.29903810567697 L 13.439339828220113,469.0606601717802 L 13.200961894323314,468.7500000000004 L 13.051111260566415,468.3882285676541 M 13.0,490.00000000000034 L 16.0,490.00000000000034 L 16.0,510.0000000000004 L 13.0,510.0000000000004 L 13.0,490.00000000000034 M 67.61177143234619,400.0511112605667 L 67.99999999999994,400.00000000000034 L 68.38822856765381,400.0511112605668 L 68.74999999999994,400.2009618943236 L 69.06066017177983,400.4393398282204 L 69.29903810567669,400.75000000000034 L 69.44888873943358,401.1117714323465 L 69.49999999999994,401.50000000000045 L 69.44888873943358,401.8882285676541 L 69.29903810567669,402.25000000000034 L 69.06066017177983,402.5606601717801 L 68.74999999999994,402.79903810567714 L 68.38822856765381,402.948888739434 L 67.99999999999994,403.0000000000004 L 67.61177143234619,402.94888873943387 L 67.25,402.799038105677 L 66.93933982822011,402.56066017178017 L 66.70096189432331,402.25000000000045 L 66.55111126056642,401.8882285676542 L 66.5,401.5000000000004 L 66.55111126056642,401.11177143234664 L 66.70096189432331,400.75000000000034 L 66.93933982822011,400.43933982822057 L 67.25,400.20096189432354 L 67.61177143234619,400.0511112605667 M 16.0,446.00000000000034 L 13.0,446.00000000000034 L 13.0,416.00000000000034 L 16.0,416.00000000000034 L 16.0,446.00000000000034 M 45.99999999999994,400.00000000000034 L 45.99999999999994,403.0000000000004 L 26.0,403.0000000000004 L 26.0,400.00000000000034 L 45.99999999999994,400.00000000000034 M 136.0000000000083,416.0000000000008 L 139.00000000001444,416.0000000000008 L 139.00000000001444,435.9999999999999 L 136.0000000000083,435.9999999999999 L 136.0000000000083,416.0000000000008 M 136.75000000000364,456.700961894323 L 137.11177143234988,456.5511112605662 L 137.50000000000364,456.49999999999994 L 137.8882285676574,456.5511112605664 L 138.25000000000364,456.7009618943236 L 138.5606601717833,456.9393398282205 L 138.79903810567998,457.25000000000045 L 138.94888873943682,457.6117714323467 L 139.00000000000307,458.00000000000045 L 138.9488887394366,458.38822856765427 L 138.79903810567941,458.75000000000045 L 138.5606601717825,459.06066017178017 L 138.2500000000025,459.2990381056768 L 137.88822856765637,459.44888873943364 L 137.5000000000025,459.49999999999994 L 137.11177143234886,459.4488887394334 L 136.75000000000261,459.2990381056763 L 136.43933982822296,459.0606601717793 L 136.20096189432616,458.74999999999943 L 136.05111126056943,458.3882285676532 L 136.00000000000307,457.9999999999993 L 136.05111126056966,457.6117714323456 L 136.2009618943266,457.24999999999943 L 136.43933982822364,456.9393398282197 L 136.75000000000364,456.700961894323 M 126.0,403.00000000000034 L 95.99999999999994,403.0000000000005 L 95.99999999999994,400.00000000000045 L 126.0,399.99999999999955 L 126.0,403.00000000000034 M 73.05111126056636,435.6382285676532 L 73.05111126056636,430.63822856765313 L 76.05111126056642,430.63822856765313 L 76.05111126056642,435.6382285676532 L 73.05111126056636,435.6382285676532 M 42.801111260566415,463.88822856765216 L 42.8011112605663,460.8882285676532 L 47.80111126056636,460.8882285676522 L 47.80111126056636,463.88822856765216 L 42.801111260566415,463.88822856765216 M 106.30111126056642,460.88822856765324 L 106.30111126056642,463.8882285676532 L 101.30111126056636,463.8882285676532 L 101.30111126056636,460.8882285676532 L 106.30111126056642,460.88822856765324 M 76.0511112605663,494.13822856765313 L 73.05111126056636,494.13822856765313 L 73.05111126056636,489.1382285676532 L 76.0511112605663,489.1382285676532 L 76.0511112605663,494.13822856765313 "
  />
  <path id="face4-cut"
 style="fill:none;stroke:#0000FF;stroke-width:1;stroke-miterlimit:4;stroke-dasharray:none;stroke-linejoin:round;stroke-linecap:round"
        d="M 106.00000000000011,542.0000000000003 L 33.000000000000114,542.0000000000003 L 33.000000000000114,539.0000000000005 L 23.0,539.0000000000005 L 23.0,542.0000000000003 L 13.000000000000114,542.0000000000003 L 13.0,555.0000000000003 L 10.000000000000114,555.0000000000003 L 10.0,585.0000000000003 L 13.0,585.0000000000003 L 13.000000000000114,605.5000000000003 L 15.019999999999982,605.5000000000003 L 15.019999999999982,604.2000000000004 L 17.220000000000027,604.2000000000004 L 17.220000000000027,605.5000000000003 L 20.220000000000027,605.5000000000003 L 20.220000000000027,608.5000000000003 L 17.220000000000027,608.5000000000003 L 17.220000000000027,609.8000000000003 L 15.0,609.8000000000003 L 15.000000000000114,608.5000000000003 L 13.000000000000114,608.5000000000003 L 13.000000000000114,629.0000000000003 L 10.000000000000114,629.0000000000003 L 10.000000000000114,649.0000000000005 L 13.000000000000114,649.0000000000005 L 13.000000000000114,662.0000000000005 L 23.0,662.0000000000003 L 23.0,665.0000000000005 L 33.000000000000114,665.0000000000005 L 33.000000000000114,662.0000000000005 L 106.00000000000011,662.0000000000003 L 106.00000000000011,655.5000000000005 L 109.00000000000023,655.5000000000003 L 109.00000000000023,649.0000000000003 L 76.00000000000011,649.0000000000003 L 72.97567714079275,641.5224465365756 L 70.48084135925546,633.8519753008391 L 68.5276704987009,626.0260275534682 L 67.1256984165791,618.0828034702605 L 66.28176844761856,610.0610756786566 L 66.00000000000011,602.0000000000003 L 66.28176844761856,593.938924321344 L 67.1256984165791,585.9171965297401 L 68.5276704987009,577.9739724465323 L 70.48084135925546,570.1480246991615 L 72.97567714079275,562.477553463425 L 76.00000000000011,555.0000000000003 L 109.00000000000023,555.0000000000003 L 109.00000000000023,548.5000000000003 L 106.00000000000011,548.5000000000003 L 106.00000000000011,542.0000000000003 M 43.000000000000114,629.0000000000003 L 46.000000000000114,629.0000000000003 L 46.0,649.0000000000003 L 43.000000000000114,649.0000000000003 L 43.000000000000114,629.0000000000003 M 43.0,555.0000000000003 L 46.0,555.0000000000003 L 46.0,585.0000000000003 L 43.0,585.0000000000003 L 43.0,555.0000000000003 "
  />
  <path id="face5-cut"
 style="fill:none;stroke:#0000FF;stroke-width:1;stroke-miterlimit:4;stroke-dasharray:none;stroke-linejoin:round;stroke-linecap:round"
        d="M 12.999999999998067,797.9999999999782 L 85.9999999999983,797.9999999999782 L 85.99999999999739,801.0000000000006 L 95.99999999999727,801.0000000000039 L 95.99999999999818,797.9999999999782 L 105.99999999999818,797.9999999999782 L 106.00000000000216,785.0000000000066 L 109.00000000000227,785.0000000000076 L 109.00000000001137,755.0000000000075 L 106.00000000001137,755.0000000000066 L 106.00000000001751,734.5000000000067 L 103.98000000001753,734.500000000006 L 103.98000000001718,735.8000000000061 L 101.78000000001714,735.8000000000053 L 101.7800000000176,734.5000000000053 L 98.78000000001771,734.5000000000044 L 98.78000000001862,731.5000000000045 L 101.78000000001862,731.5000000000053 L 101.78000000001896,730.2000000000054 L 104.00000000001887,730.2000000000061 L 104.00000000001853,731.500000000006 L 106.00000000001864,731.5000000000067 L 106.00000000002478,711.0000000000067 L 109.00000000002478,711.0000000000076 L 109.00000000003092,691.0000000000076 L 106.00000000003092,691.0000000000066 L 106.0000000000349,678.0000000000066 L 96.0000000000349,678.0000000000035 L 96.00000000003581,675.0000000000035 L 86.00000000003581,675.0000000000005 L 86.0000000000349,678.0000000000005 L 13.000000000034788,677.9999999999782 L 13.000000000032855,684.4999999999782 L 10.000000000032742,684.4999999999773 L 10.00000000003081,690.9999999999773 L 43.00000000003081,690.9999999999874 L 46.024322859235895,698.4775534634131 L 48.5191586407708,706.1480246991504 L 50.4723295013232,713.9739724465218 L 51.874301583442275,721.9171965297298 L 52.71823155240054,729.9389243213341 L 53.0000000000166,737.9999999999905 L 52.71823155239565,746.0610756786467 L 51.87430158343261,754.0828034702504 L 50.47232950130831,762.0260275534575 L 48.51915864075124,769.8519753008279 L 46.02432285921168,777.5224465365635 L 43.000000000002046,784.9999999999874 L 10.000000000002046,784.9999999999773 L 10.0,791.4999999999773 L 13.0,791.4999999999782 L 12.999999999998067,797.9999999999782 M 76.00000000002467,710.9999999999975 L 73.0000000000249,710.9999999999966 L 73.00000000003104,690.9999999999966 L 76.00000000003081,690.9999999999975 L 76.00000000002467,710.9999999999975 M 76.00000000000216,784.9999999999975 L 73.00000000000216,784.9999999999965 L 73.00000000001125,754.9999999999966 L 76.00000000001137,754.9999999999974 L 76.00000000000216,784.9999999999975 "
  />
  <path id="face6-cut"
 style="fill:none;stroke:#0000FF;stroke-width:1;stroke-miterlimit:4;stroke-dasharray:none;stroke-linejoin:round;stroke-linecap:round"
        d="M 10.000000000001137,817.0000000000049 L 15.000000000001023,817.0000000000049 L 15.000000000001705,820.0000000000039 L 20.000000000001705,820.000000000003 L 20.000000000001137,817.0000000000049 L 25.000000000001137,817.0000000000049 L 25.00000000000057,814.0000000000019 L 15.000000000000568,814.0000000000039 L 15.0,811.0000000000039 L 10.0,811.0000000000049 L 10.000000000001137,817.0000000000049 "
  />
  <path id="face7-cut"
 style="fill:none;stroke:#0000FF;stroke-width:1;stroke-miterlimit:4;stroke-dasharray:none;stroke-linejoin:round;stroke-linecap:round"
        d="M 26.0,833.000000000004 L 10.0,833.000000000004 L 10.0,926.0000000000041 L 19.999999999999886,926.0000000000041 L 20.000000000000114,929.0000000000041 L 40.0,929.0000000000041 L 40.0,926.0000000000041 L 74.5,926.0000000000041 L 74.5,924.0000000000042 L 73.20000000000005,924.0000000000042 L 73.20000000000005,921.8000000000042 L 74.5,921.8000000000042 L 74.5,918.800000000004 L 77.5,918.800000000004 L 77.5,921.8000000000042 L 78.79999999999984,921.8000000000042 L 78.80000000000007,924.0000000000042 L 77.5,924.0000000000042 L 77.5,926.0000000000041 L 111.99999999999989,926.0000000000041 L 112.00000000000011,929.0000000000041 L 132.0,929.0000000000042 L 132.0,926.0000000000041 L 141.9999999999999,926.0000000000041 L 141.9999999999999,833.000000000004 L 126.0,833.000000000004 L 126.0,830.0000000000039 L 95.99999999999989,830.000000000004 L 95.99999999999989,833.000000000004 L 69.5,833.000000000004 L 69.5,835.000000000004 L 70.80000000000007,835.0000000000039 L 70.79999999999984,837.200000000004 L 69.5,837.2000000000041 L 69.5,840.2000000000041 L 66.5,840.2000000000041 L 66.5,837.2000000000041 L 65.20000000000005,837.200000000004 L 65.20000000000005,835.000000000004 L 66.5,835.000000000004 L 66.5,833.000000000004 L 45.999999999999886,833.000000000004 L 45.999999999999886,830.0000000000041 L 26.0,830.0000000000041 L 26.0,833.000000000004 M 92.99999999999989,863.0000000000042 L 122.99999999999989,863.0000000000042 L 122.99999999999989,866.000000000004 L 93.00000000000011,866.000000000004 L 92.99999999999989,863.0000000000042 M 29.0,866.000000000004 L 29.0,863.000000000004 L 49.0,863.000000000004 L 49.0,866.000000000004 L 29.0,866.000000000004 M 13.0,843.000000000004 L 16.000000000000114,843.000000000004 L 15.999999999999886,853.0000000000041 L 13.0,853.0000000000041 L 13.0,843.000000000004 M 139.00000000001796,853.0000000000041 L 136.00000000001785,853.000000000004 L 136.00000000001785,843.0000000000042 L 139.00000000001796,843.0000000000042 L 139.00000000001796,853.0000000000041 M 76.51763809020508,894.7318516525823 L 76.0,894.8000000000042 L 75.48236190979492,894.7318516525823 L 75.0,894.532050807573 L 74.58578643762701,894.2142135623773 L 74.26794919243116,893.8000000000042 L 74.06814834742192,893.3176380902091 L 74.00000000000011,892.800000000004 L 74.06814834742192,892.282361909799 L 74.26794919243116,891.800000000004 L 74.58578643762701,891.385786437631 L 75.0,891.0679491924353 L 75.48236190979492,890.868148347426 L 76.0,890.8000000000042 L 76.51763809020508,890.868148347426 L 76.99999999999989,891.0679491924353 L 77.41421356237299,891.385786437631 L 77.73205080756895,891.800000000004 L 77.93185165257808,892.282361909799 L 78.0,892.800000000004 L 77.93185165257819,893.3176380902091 L 77.73205080756895,893.8000000000043 L 77.4142135623731,894.2142135623773 L 76.99999999999989,894.532050807573 L 76.51763809020508,894.7318516525823 M 41.16636229124856,887.1917145815542 L 41.30265898609218,888.2269907619641 L 41.16636229124856,889.2622669423743 L 40.766760601229976,890.2269907619642 L 40.131086110838396,891.0554178867103 L 39.3026589860923,891.691092377102 L 38.33793516650235,892.0906940671205 L 37.30265898609218,892.2269907619641 L 36.26738280568213,892.0906940671205 L 35.30265898609218,891.691092377102 L 34.474231861346084,891.0554178867103 L 33.838557370954504,890.2269907619642 L 33.43895568093592,889.2622669423743 L 33.3026589860923,888.2269907619641 L 33.43895568093592,887.1917145815542 L 33.838557370954504,886.2269907619642 L 34.474231861346084,885.3985636372179 L 35.30265898609218,884.7628891468264 L 36.26738280568213,884.3632874568079 L 37.30265898609218,884.2269907619641 L 38.33793516650235,884.3632874568079 L 39.3026589860923,884.7628891468264 L 40.131086110838396,885.3985636372179 L 40.766760601229976,886.2269907619642 L 41.16636229124856,887.1917145815542 "
  />
  <path id="face8-cut"
 style="fill:none;stroke:#0000FF;stroke-width:1;stroke-miterlimit:4;stroke-dasharray:none;stroke-linejoin:round;stroke-linecap:round"
        d="M 10.000000000001137,945.0000000000052 L 15.00000000000125,945.0000000000052 L 15.000000000001705,948.0000000000042 L 20.000000000001705,948.0000000000032 L 20.000000000001137,945.0000000000052 L 25.00000000000125,945.0000000000052 L 25.00000000000057,942.0000000000024 L 15.000000000000568,942.0000000000043 L 15.0,939.0000000000042 L 10.0,939.0000000000052 L 10.000000000001137,945.0000000000052 "
  />
  <path id="face9-cut"
 style="fill:none;stroke:#0000FF;stroke-width:1;stroke-miterlimit:4;stroke-dasharray:none;stroke-linejoin:round;stroke-linecap:round"
        d="M 10.000000000001137,964.0000000000052 L 15.000000000001137,964.0000000000052 L 15.000000000001705,967.0000000000043 L 20.00000000000182,967.0000000000032 L 20.000000000001137,964.0000000000052 L 25.000000000001137,964.0000000000052 L 25.000000000000682,961.0000000000023 L 15.000000000000568,961.0000000000043 L 15.0,958.0000000000042 L 10.0,958.0000000000052 L 10.000000000001137,964.0000000000052 "
  />
  <path id="face10-cut"
 style="fill:none;stroke:#0000FF;stroke-width:1;stroke-miterlimit:4;stroke-dasharray:none;stroke-linejoin:round;stroke-linecap:round"
        d="M 10.000000000001137,983.0000000000053 L 15.000000000001137,983.0000000000053 L 15.000000000001705,986.0000000000043 L 20.00000000000182,986.0000000000034 L 20.000000000001137,983.0000000000053 L 25.000000000001137,983.0000000000053 L 25.000000000000682,980.0000000000024 L 15.000000000000568,980.0000000000043 L 15.0,977.0000000000043 L 10.0,977.0000000000053 L 10.000000000001137,983.0000000000053 "
  />
  <path id="face0-interior"
 style="fill:none;stroke:#FF0000;stroke-width:1;stroke-miterlimit:4;stroke-dasharray:none;stroke-linejoin:round;stroke-linecap:round"
        d="M 112.0,10.0 M 112.0,13.000000000000039 M 77.5,12.999999999999986 M 77.5,15.000000000000021 M 78.79999999999995,15.000000000000032 M 78.79999999999995,17.2 M 77.5,17.20000000000001 M 77.5,20.200000000000028 M 74.5,20.200000000000035 M 74.5,17.200000000000017 M 73.19999999999993,17.19999999999999 M 73.19999999999993,15.000000000000064 M 74.5,15.000000000000025 M 74.5,12.999999999999972 M 40.0,13.000000000000277 M 39.999999999999886,10.000000000000014 M 20.0,10.000000000000014 M 20.0,13.00000000000021 M 10.0,12.999999999999996 M 10.0,106.00000000000006 M 26.0,106.00000000000009 M 26.0,109.00000000000009 M 56.0,109.00000000000004 M 56.0,106.00000000000009 M 82.60000000000002,106.0000000000001 M 82.60000000000002,104.0000000000001 M 81.29999999999995,104.00000000000009 M 81.29999999999995,101.80000000000007 M 82.5,101.80000000000007 M 82.5,98.80000000000004 M 85.5,98.80000000000001 M 85.5,101.80000000000007 M 86.80000000000007,101.80000000000007 M 86.80000000000007,104.00000000000009 M 85.5,104.0000000000001 M 85.5,106.0000000000001 M 106.0,106.0000000000001 M 106.0,109.00000000000006 M 126.0,109.00000000000004 M 126.0,106.00000000000009 M 142.0,106.00000000000009 M 142.0,13.000000000000028 M 132.0,13.000000000000018 M 131.9999999999999,10.0 M 69.5,59.20000000000035 M 68.8529523872437,59.11481456572301 M 68.24999999999989,58.865063509461436 M 67.73223304703356,58.467766952966684 M 67.33493649053878,57.95000000000038 M 67.08518543427726,57.34704761275665 M 66.99999999999989,56.700000000000294 M 67.08518543427726,56.05295238724404 M 67.33493649053878,55.450000000000315 M 67.73223304703345,54.932233047033904 M 68.24999999999989,54.53493649053915 M 68.85295238724359,54.28518543427758 M 69.49999999999989,54.200000000000216 M 70.14704761275618,54.285185434277565 M 70.74999999999989,54.53493649053914 M 71.26776695296633,54.93223304703389 M 71.66506350946099,55.45000000000023 M 71.91481456572262,56.05295238724398 M 72.0,56.700000000000294 M 71.91481456572274,57.347047612756555 M 71.66506350946099,57.950000000000294 M 71.26776695296633,58.467766952966684 M 70.75,58.86506350946145 M 70.1470476127563,59.11481456572304 M 135.99999999998215,86.00000000000003 M 138.99999999998215,86.00000000000003 M 138.99999999998215,96.00000000000001 M 135.99999999998215,96.00000000000003 M 12.999999999999886,86.00000000000016 M 16.0,86.00000000000014 M 16.0,96.00000000000011 M 12.999999999999886,96.0000000000001 M 54.0,22.78061052847124 M 66.99999999999989,22.780610528471232 M 66.99999999999989,41.580610528471304 M 54.0,41.5806105284713 M 85.0,41.5806105284713 M 85.0,22.78061052847124 M 97.99999999999989,22.780610528471247 M 97.99999999999989,41.5806105284713 M 69.5,41.5806105284713 M 69.5,22.780610528471254 M 82.5,22.780610528471247 M 82.49999999999989,41.5806105284713 M 27.100000000000023,63.4999999999999 M 27.100000000000023,50.49999999999998 M 45.89999999999998,50.499999999999986 M 45.89999999999998,63.49999999999993 M 103.0,73.00000000000011 M 123.0,73.0000000000001 M 123.0,75.99999999999977 M 103.0,75.99999999999977 M 29.0,76.00000000000006 M 29.0,73.00000000000014 M 58.999999999999886,73.00000000000011 M 58.999999999999886,76.00000000000006 M 105.74118095489757,53.17037086855445 M 107.03527618041016,52.99999999999979 M 108.32937140592276,53.17037086855446 M 109.53527618041005,53.66987298107761 M 110.57081008634282,54.46446609406712 M 111.36540319933226,55.49999999999985 M 111.86490531185541,56.70590477448724 M 112.03527618041005,57.99999999999982 M 111.86490531185541,59.29409522551239 M 111.36540319933226,60.49999999999988 M 110.57081008634282,61.535533905932525 M 109.53527618041005,62.33012701892203 M 108.32937140592276,62.829629131445195 M 107.03527618041005,62.99999999999986 M 105.74118095489746,62.829629131445195 M 104.53527618041005,62.33012701892203 M 103.49974227447728,61.53553390593254 M 102.70514916148795,60.499999999999886 M 102.2056470489648,59.29409522551241 M 102.03527618041005,57.99999999999982 M 102.2056470489648,56.705904774487244 M 102.70514916148795,55.49999999999985 M 103.49974227447728,54.46446609406713 M 104.53527618041005,53.66987298107761 "
  />
  <path id="face1-interior"
 style="fill:none;stroke:#FF0000;stroke-width:1;stroke-miterlimit:4;stroke-dasharray:none;stroke-linejoin:round;stroke-linecap:round"
        d="M 10.0,119.00000000000009 M 10.0,251.0000000000001 M 142.00000000000003,251.0000000000001 M 141.99999999999997,119.00000000000009 M 119.46666218300803,173.35314297038673 M 121.00000000000003,185.0000000000001 M 119.46666218300803,196.64685702961359 M 114.97114317029977,207.50000000000009 M 107.81980515339464,216.81980515339473 M 98.50000000000003,223.97114317029988 M 87.64685702961347,228.46666218300817 M 75.99999999999997,230.0000000000001 M 64.35314297038653,228.46666218300817 M 53.49999999999997,223.97114317029985 M 44.18019484660536,216.81980515339475 M 37.02885682970023,207.5000000000001 M 32.53333781699192,196.64685702961356 M 31.00000000000003,185.0000000000001 M 32.533337816991974,173.35314297038667 M 37.02885682970029,162.50000000000009 M 44.18019484660542,153.18019484660545 M 53.49999999999997,146.0288568297004 M 64.35314297038659,141.533337816992 M 75.99999999999997,140.00000000000009 M 87.64685702961347,141.53333781699203 M 98.50000000000003,146.02885682970037 M 107.81980515339464,153.18019484660547 M 114.97114317029977,162.5000000000001 M 19.99999999999997,248.00000000000014 M 19.99999999999997,245.00000000000014 M 39.99999999999997,245.00000000000014 M 39.99999999999997,248.00000000000014 M 16.000000000000057,238.50000000000009 M 13.000000000000085,238.50000000000009 M 13.000000000000085,232.00000000000006 M 16.000000000000057,232.00000000000006 M 112.00000000000003,248.00000000000014 M 112.00000000000003,245.00000000000014 M 131.99999999999997,245.0000000000001 M 131.99999999999997,248.00000000000014 M 135.9999999999857,231.99999999999966 M 138.99999999998366,231.9999999999997 M 138.99999999998366,238.50000000000057 M 135.9999999999857,238.50000000000057 M 136.0000000000164,131.49999999999972 M 139.00000000001435,131.4999999999996 M 139.00000000001435,138.0000000000006 M 136.0000000000164,138.00000000000057 M 131.99999999999997,122.00000000000028 M 131.99999999999997,125.00000000000036 M 112.00000000000003,124.99999999999994 M 112.00000000000003,122.00000000000006 M 39.99999999999997,125.00000000000009 M 19.99999999999997,125.00000000000009 M 19.99999999999997,122.00000000000009 M 39.99999999999997,122.00000000000009 M 16.0,131.5000000000001 M 16.0,138.00000000000006 M 13.000000000000057,138.00000000000006 M 13.000000000000057,131.5000000000001 M 77.44888873943356,123.11177143234622 M 77.49999999999997,123.50000000000013 M 77.44888873943356,123.88822856765388 M 77.29903810567666,124.25000000000003 M 77.0606601717798,124.56066017177992 M 76.74999999999997,124.79903810567683 M 76.38822856765378,124.94888873943371 M 75.99999999999997,125.00000000000017 M 75.61177143234622,124.94888873943371 M 75.25000000000003,124.79903810567663 M 74.9393398282202,124.56066017177984 M 74.70096189432334,124.2500000000001 M 74.55111126056639,123.88822856765384 M 74.50000000000003,123.50000000000011 M 74.55111126056639,123.11177143234642 M 74.70096189432334,122.74999999999997 M 74.9393398282202,122.43933982822017 M 75.25000000000003,122.20096189432351 M 75.61177143234622,122.05111126056647 M 75.99999999999997,122.00000000000009 M 76.38822856765378,122.05111126056627 M 76.74999999999997,122.20096189432357 M 77.0606601717798,122.43933982822034 M 77.29903810567666,122.75 M 77.44888873943356,246.1117714323464 M 77.49999999999997,246.50000000000014 M 77.44888873943356,246.88822856765387 M 77.29903810567666,247.25000000000014 M 77.0606601717798,247.56066017177994 M 76.74999999999997,247.79903810567677 M 76.38822856765378,247.9488887394337 M 75.99999999999997,248.00000000000009 M 75.61177143234622,247.94888873943373 M 75.25000000000003,247.79903810567671 M 74.9393398282202,247.56066017177997 M 74.70096189432334,247.25000000000006 M 74.55111126056639,246.88822856765387 M 74.50000000000003,246.5000000000001 M 74.55111126056639,246.1117714323464 M 74.70096189432334,245.75000000000009 M 74.9393398282202,245.43933982822026 M 75.25000000000003,245.20096189432348 M 75.61177143234622,245.0511112605665 M 75.99999999999997,245.00000000000014 M 76.38822856765378,245.05111126056653 M 76.74999999999997,245.2009618943235 M 77.0606601717798,245.43933982822026 M 77.29903810567666,245.75000000000014 "
  />
  <path id="face2-interior"
 style="fill:none;stroke:#FF0000;stroke-width:1;stroke-miterlimit:4;stroke-dasharray:none;stroke-linejoin:round;stroke-linecap:round"
        d="M 13.0,264.00000000000034 M 13.0,277.0000000000002 M 10.0,277.0000000000002 M 10.000000000000114,307.0000000000003 M 13.0,307.0000000000003 M 13.0,351.00000000000034 M 10.000000000000114,351.00000000000034 M 10.000000000000114,371.0000000000003 M 13.0,371.0000000000003 M 13.0,384.0000000000003 M 26.0,384.0000000000003 M 26.0,387.00000000000034 M 56.0,387.00000000000034 M 56.0,384.0000000000003 M 100.0,384.0000000000003 M 100.0,387.00000000000034 M 120.00000000000011,387.00000000000034 M 120.00000000000011,384.0000000000003 M 133.0,384.00000000000034 M 133.0,371.00000000000034 M 136.0,371.00000000000034 M 136.0,341.00000000000034 M 133.0,341.00000000000034 M 133.0,297.0000000000003 M 136.0,297.0000000000003 M 136.0,277.0000000000003 M 133.0,277.00000000000034 M 133.0,264.00000000000034 M 120.00000000000011,264.00000000000034 M 120.00000000000011,261.0000000000002 M 90.0,261.0000000000001 M 90.0,264.00000000000034 M 46.000000000000114,264.00000000000034 M 46.000000000000114,261.0000000000003 M 26.0,261.0000000000003 M 26.0,264.00000000000034 M 39.192596079882605,333.05866657858854 M 38.0,324.0000000000003 M 39.19259607988272,314.9413334214121 M 42.68911086754474,306.5000000000002 M 48.251262658470864,299.2512626584712 M 55.500000000000114,293.68911086754497 M 63.94133342141174,290.1925960798829 M 73.00000000000011,289.00000000000034 M 82.05866657858826,290.1925960798829 M 90.50000000000011,293.68911086754497 M 97.74873734152914,299.2512626584712 M 103.31088913245537,306.5000000000003 M 106.8074039201174,314.9413334214121 M 108.00000000000011,324.00000000000034 M 106.8074039201174,333.0586665785885 M 103.31088913245537,341.50000000000034 M 97.74873734152914,348.7487373415295 M 90.5,354.3108891324556 M 82.05866657858826,357.80740392011774 M 73.00000000000011,359.0000000000003 M 63.94133342141174,357.80740392011774 M 55.5,354.3108891324556 M 48.251262658470864,348.74873734152936 M 42.68911086754474,341.5000000000003 M 36.5,289.54903810567697 M 36.18933982822023,289.3106601717801 M 35.95096189432343,289.00000000000034 M 35.80111126056647,288.6382285676541 M 35.750000000000114,288.25000000000034 M 35.80111126056647,287.86177143234653 M 35.950961894323314,287.50000000000034 M 36.18933982822023,287.18933982822045 M 36.5,286.95096189432365 M 36.861771432346245,286.8011112605667 M 37.25,286.7500000000003 M 37.63822856765387,286.8011112605667 M 38.0,286.95096189432365 M 38.31066017177977,287.18933982822045 M 38.549038105676686,287.50000000000034 M 38.69888873943364,287.86177143234653 M 38.75,288.2500000000002 M 38.69888873943364,288.6382285676541 M 38.549038105676686,289.0000000000002 M 38.31066017177989,289.3106601717801 M 38.0,289.54903810567697 M 37.63822856765387,289.6988887394339 M 37.25,289.7500000000002 M 36.861771432346245,289.6988887394339 M 107.45096189432343,287.5000000000003 M 107.68933982822023,287.1893398282204 M 108.00000000000011,286.95096189432365 M 108.36177143234625,286.8011112605667 M 108.75,286.75000000000034 M 109.13822856765375,286.8011112605667 M 109.5,286.95096189432365 M 109.81066017177977,287.18933982822045 M 110.04903810567669,287.50000000000034 M 110.19888873943364,287.8617714323466 M 110.25,288.25000000000034 M 110.19888873943364,288.63822856765404 M 110.04903810567669,289.0000000000001 M 109.81066017177989,289.3106601717801 M 109.5,289.54903810567697 M 109.13822856765375,289.698888739434 M 108.75,289.7500000000003 M 108.36177143234625,289.6988887394339 M 108.00000000000011,289.549038105677 M 107.68933982822023,289.3106601717801 M 107.45096189432331,289.00000000000034 M 107.30111126056636,288.6382285676541 M 107.25,288.25000000000034 M 107.30111126056636,287.86177143234653 M 38.549038105676686,359.0000000000004 M 38.69888873943364,359.3617714323466 M 38.75,359.7500000000004 M 38.69888873943364,360.1382285676541 M 38.549038105676686,360.5000000000004 M 38.31066017177977,360.8106601717802 M 38.0,361.04903810567697 M 37.63822856765387,361.19888873943387 M 37.25,361.25000000000034 M 36.861771432346245,361.19888873943387 M 36.5,361.04903810567697 M 36.18933982822023,360.8106601717802 M 35.950961894323314,360.50000000000034 M 35.80111126056647,360.1382285676541 M 35.750000000000114,359.7500000000004 M 35.80111126056647,359.3617714323465 M 35.950961894323314,359.0000000000004 M 36.18933982822023,358.68933982822045 M 36.500000000000114,358.45096189432365 M 36.861771432346245,358.3011112605667 M 37.25,358.25000000000034 M 37.63822856765387,358.3011112605667 M 38.0,358.4509618943237 M 38.31066017177989,358.68933982822057 M 109.81066017177989,360.81066017178017 M 109.5,361.04903810567697 M 109.13822856765375,361.1988887394339 M 108.75000000000011,361.2500000000004 M 108.36177143234625,361.19888873943387 M 108.00000000000011,361.04903810567697 M 107.68933982822023,360.8106601717802 M 107.45096189432343,360.50000000000034 M 107.30111126056636,360.1382285676541 M 107.25000000000011,359.7500000000004 M 107.30111126056636,359.3617714323466 M 107.45096189432331,359.0000000000004 M 107.68933982822023,358.68933982822045 M 108.00000000000011,358.45096189432365 M 108.36177143234625,358.3011112605667 M 108.75000000000011,358.25000000000034 M 109.13822856765375,358.3011112605667 M 109.5,358.45096189432365 M 109.81066017177989,358.6893398282205 M 110.04903810567669,359.00000000000034 M 110.19888873943364,359.3617714323466 M 110.25,359.7500000000004 M 110.19888873943364,360.1382285676541 M 110.04903810567669,360.5000000000004 M 22.819529020599134,376.73831030401794 M 22.569777964337504,377.3412626912616 M 22.172481407842838,377.85902964422803 M 21.654714454876512,378.2563262007228 M 21.051762067632694,378.50607725698427 M 20.404714454876512,378.5912626912616 M 19.757666842120216,378.50607725698427 M 19.154714454876512,378.2563262007228 M 18.636947501910072,377.85902964422803 M 18.239650945415292,377.3412626912617 M 17.989899889153776,376.73831030401794 M 17.904714454876512,376.0912626912616 M 17.989899889153776,375.4442150785054 M 18.239650945415292,374.84126269126165 M 18.636947501910072,374.3234957382952 M 19.154714454876512,373.92619918180054 M 19.757666842120216,373.67644812553897 M 20.404714454876512,373.59126269126165 M 21.051762067632694,373.67644812553897 M 21.654714454876512,373.92619918180054 M 22.172481407842838,374.3234957382952 M 22.569777964337504,374.84126269126165 M 22.819529020599134,375.4442150785054 M 22.904714454876398,376.0912626912616 "
  />
  <path id="face3-interior"
 style="fill:none;stroke:#FF0000;stroke-width:1;stroke-miterlimit:4;stroke-dasharray:none;stroke-linejoin:round;stroke-linecap:round"
        d="M 10.0,397.00000000000034 M 10.0,529.0000000000005 M 142.0,529.0000000000005 M 142.0,397.00000000000034 M 126.0,526.0000000000005 M 105.99999999999994,526.0000000000005 M 105.99999999999994,523.0000000000003 M 126.0,523.0000000000003 M 82.70096189432331,525.2500000000003 M 82.55111126056636,524.8882285676541 M 82.49999999999994,524.5000000000003 M 82.55111126056636,524.1117714323466 M 82.70096189432331,523.7500000000003 M 82.93933982822017,523.4393398282206 M 83.24999999999994,523.2009618943237 M 83.61177143234619,523.0511112605668 M 84.0,523.0000000000003 M 84.38822856765375,523.0511112605668 M 84.75,523.2009618943237 M 85.06066017177977,523.4393398282206 M 85.29903810567663,523.7500000000003 M 85.44888873943358,524.1117714323467 M 85.5,524.5000000000003 M 85.44888873943358,524.8882285676542 M 85.29903810567663,525.2500000000003 M 85.06066017177977,525.5606601717802 M 84.75,525.799038105677 M 84.38822856765375,525.948888739434 M 84.0,526.0000000000003 M 83.61177143234619,525.948888739434 M 83.24999999999994,525.799038105677 M 82.93933982822017,525.5606601717801 M 138.99999999999477,510.0 M 135.99999999998568,510.0 M 135.99999999998568,480.00000000000085 M 138.99999999999477,480.00000000000085 M 19.536584372056723,515.7966021341365 M 19.96073466765472,516.2926098942881 M 20.24205613755521,516.8814947743451 M 20.36137718848994,517.5231252429098 M 20.3105662880252,518.1737752438939 M 20.093086115058668,518.7891040549803 M 19.72375758397493,519.3271780345726 M 19.227749823823274,519.7513283301705 M 18.638864943766293,520.032649800071 M 17.99723447520165,520.1519708510058 M 17.346584474217536,520.101159950541 M 16.731255663131094,519.8836797775746 M 16.19318168353891,519.5143512464908 M 15.7690313879408,519.0183434863392 M 15.487709918040423,518.4294586062822 M 15.368388867105637,517.7878281377175 M 15.419199767570376,517.1371781367334 M 15.636679940536965,516.5218493256469 M 16.00600847162059,515.9837753460547 M 16.50201623177236,515.5596250504567 M 17.090901111829282,515.2783035805562 M 17.732531580393868,515.1589825296214 M 18.383181581377983,515.2097934300862 M 18.998510392464482,515.4272736030528 M 56.00000000000006,523.0000000000003 M 56.00000000000006,526.0000000000005 M 26.0,526.0000000000005 M 26.0,523.0000000000003 M 13.051111260566415,468.3882285676541 M 13.0,468.0000000000004 M 13.051111260566415,467.6117714323466 M 13.200961894323314,467.2500000000004 M 13.43933982822017,466.9393398282205 M 13.75,466.70096189432377 M 14.111771432346188,466.5511112605668 M 14.5,466.5000000000004 M 14.888228567653812,466.5511112605667 M 15.25,466.7009618943237 M 15.560660171779773,466.9393398282205 M 15.799038105676573,467.2500000000004 M 15.948888739433585,467.6117714323466 M 15.999999999999943,468.0000000000004 M 15.948888739433585,468.3882285676541 M 15.799038105676573,468.7500000000004 M 15.560660171779773,469.0606601717802 M 15.25,469.29903810567697 M 14.888228567653698,469.448888739434 M 14.5,469.50000000000034 M 14.111771432346188,469.448888739434 M 13.75,469.29903810567697 M 13.439339828220113,469.0606601717802 M 13.200961894323314,468.7500000000004 M 13.0,490.00000000000034 M 16.0,490.00000000000034 M 16.0,510.0000000000004 M 13.0,510.0000000000004 M 67.61177143234619,400.0511112605667 M 67.99999999999994,400.00000000000034 M 68.38822856765381,400.0511112605668 M 68.74999999999994,400.2009618943236 M 69.06066017177983,400.4393398282204 M 69.29903810567669,400.75000000000034 M 69.44888873943358,401.1117714323465 M 69.49999999999994,401.50000000000045 M 69.44888873943358,401.8882285676541 M 69.29903810567669,402.25000000000034 M 69.06066017177983,402.5606601717801 M 68.74999999999994,402.79903810567714 M 68.38822856765381,402.948888739434 M 67.99999999999994,403.0000000000004 M 67.61177143234619,402.94888873943387 M 67.25,402.799038105677 M 66.93933982822011,402.56066017178017 M 66.70096189432331,402.25000000000045 M 66.55111126056642,401.8882285676542 M 66.5,401.5000000000004 M 66.55111126056642,401.11177143234664 M 66.70096189432331,400.75000000000034 M 66.93933982822011,400.43933982822057 M 67.25,400.20096189432354 M 16.0,446.00000000000034 M 13.0,446.00000000000034 M 13.0,416.00000000000034 M 16.0,416.00000000000034 M 45.99999999999994,400.00000000000034 M 45.99999999999994,403.0000000000004 M 26.0,403.0000000000004 M 26.0,400.00000000000034 M 136.0000000000083,416.0000000000008 M 139.00000000001444,416.0000000000008 M 139.00000000001444,435.9999999999999 M 136.0000000000083,435.9999999999999 M 136.75000000000364,456.700961894323 M 137.11177143234988,456.5511112605662 M 137.50000000000364,456.49999999999994 M 137.8882285676574,456.5511112605664 M 138.25000000000364,456.7009618943236 M 138.5606601717833,456.9393398282205 M 138.79903810567998,457.25000000000045 M 138.94888873943682,457.6117714323467 M 139.00000000000307,458.00000000000045 M 138.9488887394366,458.38822856765427 M 138.79903810567941,458.75000000000045 M 138.5606601717825,459.06066017178017 M 138.2500000000025,459.2990381056768 M 137.88822856765637,459.44888873943364 M 137.5000000000025,459.49999999999994 M 137.11177143234886,459.4488887394334 M 136.75000000000261,459.2990381056763 M 136.43933982822296,459.0606601717793 M 136.20096189432616,458.74999999999943 M 136.05111126056943,458.3882285676532 M 136.00000000000307,457.9999999999993 M 136.05111126056966,457.6117714323456 M 136.2009618943266,457.24999999999943 M 136.43933982822364,456.9393398282197 M 126.0,403.00000000000034 M 95.99999999999994,403.0000000000005 M 95.99999999999994,400.00000000000045 M 126.0,399.99999999999955 M 73.05111126056636,435.6382285676532 M 73.05111126056636,430.63822856765313 M 76.05111126056642,430.63822856765313 M 76.05111126056642,435.6382285676532 M 42.801111260566415,463.88822856765216 M 42.8011112605663,460.8882285676532 M 47.80111126056636,460.8882285676522 M 47.80111126056636,463.88822856765216 M 106.30111126056642,460.88822856765324 M 106.30111126056642,463.8882285676532 M 101.30111126056636,463.8882285676532 M 101.30111126056636,460.8882285676532 M 76.0511112605663,494.13822856765313 M 73.05111126056636,494.13822856765313 M 73.05111126056636,489.1382285676532 M 76.0511112605663,489.1382285676532 "
  />
  <path id="face4-interior"
 style="fill:none;stroke:#FF0000;stroke-width:1;stroke-miterlimit:4;stroke-dasharray:none;stroke-linejoin:round;stroke-linecap:round"
        d="M 106.00000000000011,542.0000000000003 M 33.000000000000114,542.0000000000003 M 33.000000000000114,539.0000000000005 M 23.0,539.0000000000005 M 23.0,542.0000000000003 M 13.000000000000114,542.0000000000003 M 13.0,555.0000000000003 M 10.000000000000114,555.0000000000003 M 10.0,585.0000000000003 M 13.0,585.0000000000003 M 13.000000000000114,605.5000000000003 M 15.019999999999982,605.5000000000003 M 15.019999999999982,604.2000000000004 M 17.220000000000027,604.2000000000004 M 17.220000000000027,605.5000000000003 M 20.220000000000027,605.5000000000003 M 20.220000000000027,608.5000000000003 M 17.220000000000027,608.5000000000003 M 17.220000000000027,609.8000000000003 M 15.0,609.8000000000003 M 15.000000000000114,608.5000000000003 M 13.000000000000114,608.5000000000003 M 13.000000000000114,629.0000000000003 M 10.000000000000114,629.0000000000003 M 10.000000000000114,649.0000000000005 M 13.000000000000114,649.0000000000005 M 13.000000000000114,662.0000000000005 M 23.0,662.0000000000003 M 23.0,665.0000000000005 M 33.000000000000114,665.0000000000005 M 33.000000000000114,662.0000000000005 M 106.00000000000011,662.0000000000003 M 106.00000000000011,655.5000000000005 M 109.00000000000023,655.5000000000003 M 109.00000000000023,649.0000000000003 M 76.00000000000011,649.0000000000003 M 72.97567714079275,641.5224465365756 M 70.48084135925546,633.8519753008391 M 68.5276704987009,626.0260275534682 M 67.1256984165791,618.0828034702605 M 66.28176844761856,610.0610756786566 M 66.00000000000011,602.0000000000003 M 66.28176844761856,593.938924321344 M 67.1256984165791,585.9171965297401 M 68.5276704987009,577.9739724465323 M 70.48084135925546,570.1480246991615 M 72.97567714079275,562.477553463425 M 76.00000000000011,555.0000000000003 M 109.00000000000023,555.0000000000003 M 109.00000000000023,548.5000000000003 M 106.00000000000011,548.5000000000003 M 43.000000000000114,629.0000000000003 M 46.000000000000114,629.0000000000003 M 46.0,649.0000000000003 M 43.000000000000114,649.0000000000003 M 43.0,555.0000000000003 M 46.0,555.0000000000003 M 46.0,585.0000000000003 M 43.0,585.0000000000003 "
  />
  <path id="face5-interior"
 style="fill:none;stroke:#FF0000;stroke-width:1;stroke-miterlimit:4;stroke-dasharray:none;stroke-linejoin:round;stroke-linecap:round"
        d="M 12.999999999998067,797.9999999999782 M 85.9999999999983,797.9999999999782 M 85.99999999999739,801.0000000000006 M 95.99999999999727,801.0000000000039 M 95.99999999999818,797.9999999999782 M 105.99999999999818,797.9999999999782 M 106.00000000000216,785.0000000000066 M 109.00000000000227,785.0000000000076 M 109.00000000001137,755.0000000000075 M 106.00000000001137,755.0000000000066 M 106.00000000001751,734.5000000000067 M 103.98000000001753,734.500000000006 M 103.98000000001718,735.8000000000061 M 101.78000000001714,735.8000000000053 M 101.7800000000176,734.5000000000053 M 98.78000000001771,734.5000000000044 M 98.78000000001862,731.5000000000045 M 101.78000000001862,731.5000000000053 M 101.78000000001896,730.2000000000054 M 104.00000000001887,730.2000000000061 M 104.00000000001853,731.500000000006 M 106.00000000001864,731.5000000000067 M 106.00000000002478,711.0000000000067 M 109.00000000002478,711.0000000000076 M 109.00000000003092,691.0000000000076 M 106.00000000003092,691.0000000000066 M 106.0000000000349,678.0000000000066 M 96.0000000000349,678.0000000000035 M 96.00000000003581,675.0000000000035 M 86.00000000003581,675.0000000000005 M 86.0000000000349,678.0000000000005 M 13.000000000034788,677.9999999999782 M 13.000000000032855,684.4999999999782 M 10.000000000032742,684.4999999999773 M 10.00000000003081,690.9999999999773 M 43.00000000003081,690.9999999999874 M 46.024322859235895,698.4775534634131 M 48.5191586407708,706.1480246991504 M 50.4723295013232,713.9739724465218 M 51.874301583442275,721.9171965297298 M 52.71823155240054,729.9389243213341 M 53.0000000000166,737.9999999999905 M 52.71823155239565,746.0610756786467 M 51.87430158343261,754.0828034702504 M 50.47232950130831,762.0260275534575 M 48.51915864075124,769.8519753008279 M 46.02432285921168,777.5224465365635 M 43.000000000002046,784.9999999999874 M 10.000000000002046,784.9999999999773 M 10.0,791.4999999999773 M 13.0,791.4999999999782 M 76.00000000002467,710.9999999999975 M 73.0000000000249,710.9999999999966 M 73.00000000003104,690.9999999999966 M 76.00000000003081,690.9999999999975 M 76.00000000000216,784.9999999999975 M 73.00000000000216,784.9999999999965 M 73.00000000001125,754.9999999999966 M 76.00000000001137,754.9999999999974 "
  />
  <path id="face6-interior"
 style="fill:none;stroke:#FF0000;stroke-width:1;stroke-miterlimit:4;stroke-dasharray:none;stroke-linejoin:round;stroke-linecap:round"
        d="M 10.000000000001137,817.0000000000049 M 15.000000000001023,817.0000000000049 M 15.000000000001705,820.0000000000039 M 20.000000000001705,820.000000000003 M 20.000000000001137,817.0000000000049 M 25.000000000001137,817.0000000000049 M 25.00000000000057,814.0000000000019 M 15.000000000000568,814.0000000000039 M 15.0,811.0000000000039 M 10.0,811.0000000000049 "
  />
  <path id="face7-interior"
 style="fill:none;stroke:#FF0000;stroke-width:1;stroke-miterlimit:4;stroke-dasharray:none;stroke-linejoin:round;stroke-linecap:round"
        d="M 26.0,833.000000000004 M 10.0,833.000000000004 M 10.0,926.0000000000041 M 19.999999999999886,926.0000000000041 M 20.000000000000114,929.0000000000041 M 40.0,929.0000000000041 M 40.0,926.0000000000041 M 74.5,926.0000000000041 M 74.5,924.0000000000042 M 73.20000000000005,924.0000000000042 M 73.20000000000005,921.8000000000042 M 74.5,921.8000000000042 M 74.5,918.800000000004 M 77.5,918.800000000004 M 77.5,921.8000000000042 M 78.79999999999984,921.8000000000042 M 78.80000000000007,924.0000000000042 M 77.5,924.0000000000042 M 77.5,926.0000000000041 M 111.99999999999989,926.0000000000041 M 112.00000000000011,929.0000000000041 M 132.0,929.0000000000042 M 132.0,926.0000000000041 M 141.9999999999999,926.0000000000041 M 141.9999999999999,833.000000000004 M 126.0,833.000000000004 M 126.0,830.0000000000039 M 95.99999999999989,830.000000000004 M 95.99999999999989,833.000000000004 M 69.5,833.000000000004 M 69.5,835.000000000004 M 70.80000000000007,835.0000000000039 M 70.79999999999984,837.200000000004 M 69.5,837.2000000000041 M 69.5,840.2000000000041 M 66.5,840.2000000000041 M 66.5,837.2000000000041 M 65.20000000000005,837.200000000004 M 65.20000000000005,835.000000000004 M 66.5,835.000000000004 M 66.5,833.000000000004 M 45.999999999999886,833.000000000004 M 45.999999999999886,830.0000000000041 M 26.0,830.0000000000041 M 92.99999999999989,863.0000000000042 M 122.99999999999989,863.0000000000042 M 122.99999999999989,866.000000000004 M 93.00000000000011,866.000000000004 M 29.0,866.000000000004 M 29.0,863.000000000004 M 49.0,863.000000000004 M 49.0,866.000000000004 M 13.0,843.000000000004 M 16.000000000000114,843.000000000004 M 15.999999999999886,853.0000000000041 M 13.0,853.0000000000041 M 139.00000000001796,853.0000000000041 M 136.00000000001785,853.000000000004 M 136.00000000001785,843.0000000000042 M 139.00000000001796,843.0000000000042 M 76.51763809020508,894.7318516525823 M 76.0,894.8000000000042 M 75.48236190979492,894.7318516525823 M 75.0,894.532050807573 M 74.58578643762701,894.2142135623773 M 74.26794919243116,893.8000000000042 M 74.06814834742192,893.3176380902091 M 74.00000000000011,892.800000000004 M 74.06814834742192,892.282361909799 M 74.26794919243116,891.800000000004 M 74.58578643762701,891.385786437631 M 75.0,891.0679491924353 M 75.48236190979492,890.868148347426 M 76.0,890.8000000000042 M 76.51763809020508,890.868148347426 M 76.99999999999989,891.0679491924353 M 77.41421356237299,891.385786437631 M 77.73205080756895,891.800000000004 M 77.93185165257808,892.282361909799 M 78.0,892.800000000004 M 77.93185165257819,893.3176380902091 M 77.73205080756895,893.8000000000043 M 77.4142135623731,894.2142135623773 M 76.99999999999989,894.532050807573 M 41.16636229124856,887.1917145815542 M 41.30265898609218,888.2269907619641 M 41.16636229124856,889.2622669423743 M 40.766760601229976,890.2269907619642 M 40.131086110838396,891.0554178867103 M 39.3026589860923,891.691092377102 M 38.33793516650235,892.0906940671205 M 37.30265898609218,892.2269907619641 M 36.26738280568213,892.0906940671205 M 35.30265898609218,891.691092377102 M 34.474231861346084,891.0554178867103 M 33.838557370954504,890.2269907619642 M 33.43895568093592,889.2622669423743 M 33.3026589860923,888.2269907619641 M 33.43895568093592,887.1917145815542 M 33.838557370954504,886.2269907619642 M 34.474231861346084,885.3985636372179 M 35.30265898609218,884.7628891468264 M 36.26738280568213,884.3632874568079 M 37.30265898609218,884.2269907619641 M 38.33793516650235,884.3632874568079 M 39.3026589860923,884.7628891468264 M 40.131086110838396,885.3985636372179 M 40.766760601229976,886.2269907619642 "
  />
  <path id="face8-interior"
 style="fill:none;stroke:#FF0000;stroke-width:1;stroke-miterlimit:4;stroke-dasharray:none;stroke-linejoin:round;stroke-linecap:round"
        d="M 10.000000000001137,945.0000000000052 M 15.00000000000125,945.0000000000052 M 15.000000000001705,948.0000000000042 M 20.000000000001705,948.0000000000032 M 20.000000000001137,945.0000000000052 M 25.00000000000125,945.0000000000052 M 25.00000000000057,942.0000000000024 M 15.000000000000568,942.0000000000043 M 15.0,939.0000000000042 M 10.0,939.0000000000052 "
  />
  <path id="face9-interior"
 style="fill:none;stroke:#FF0000;stroke-width:1;stroke-miterlimit:4;stroke-dasharray:none;stroke-linejoin:round;stroke-linecap:round"
        d="M 10.000000000001137,964.0000000000052 M 15.000000000001137,964.0000000000052 M 15.000000000001705,967.0000000000043 M 20.00000000000182,967.0000000000032 M 20.000000000001137,964.0000000000052 M 25.000000000001137,964.0000000000052 M 25.000000000000682,961.0000000000023 M 15.000000000000568,961.0000000000043 M 15.0,958.0000000000042 M 10.0,958.0000000000052 "
  />
  <path id="face10-interior"
 style="fill:none;stroke:#FF0000;stroke-width:1;stroke-miterlimit:4;stroke-dasharray:none;stroke-linejoin:round;stroke-linecap:round"
        d="M 10.000000000001137,983.0000000000053 M 15.000000000001137,983.0000000000053 M 15.000000000001705,986.0000000000043 M 20.00000000000182,986.0000000000034 M 20.000000000001137,983.0000000000053 M 25.000000000001137,983.0000000000053 M 25.000000000000682,980.0000000000024 M 15.000000000000568,980.0000000000043 M 15.0,977.0000000000043 M 10.0,977.0000000000053 "
  />
  <path id="face0-interior"
 style="fill:none;stroke:#00FF00;stroke-width:1;stroke-miterlimit:4;stroke-dasharray:none;stroke-linejoin:round;stroke-linecap:round"
        d="M 112.0,10.0 M 112.0,13.000000000000039 M 77.5,12.999999999999986 M 77.5,15.000000000000021 M 78.79999999999995,15.000000000000032 M 78.79999999999995,17.2 M 77.5,17.20000000000001 M 77.5,20.200000000000028 M 74.5,20.200000000000035 M 74.5,17.200000000000017 M 73.19999999999993,17.19999999999999 M 73.19999999999993,15.000000000000064 M 74.5,15.000000000000025 M 74.5,12.999999999999972 M 40.0,13.000000000000277 M 39.999999999999886,10.000000000000014 M 20.0,10.000000000000014 M 20.0,13.00000000000021 M 10.0,12.999999999999996 M 10.0,106.00000000000006 M 26.0,106.00000000000009 M 26.0,109.00000000000009 M 56.0,109.00000000000004 M 56.0,106.00000000000009 M 82.60000000000002,106.0000000000001 M 82.60000000000002,104.0000000000001 M 81.29999999999995,104.00000000000009 M 81.29999999999995,101.80000000000007 M 82.5,101.80000000000007 M 82.5,98.80000000000004 M 85.5,98.80000000000001 M 85.5,101.80000000000007 M 86.80000000000007,101.80000000000007 M 86.80000000000007,104.00000000000009 M 85.5,104.0000000000001 M 85.5,106.0000000000001 M 106.0,106.0000000000001 M 106.0,109.00000000000006 M 126.0,109.00000000000004 M 126.0,106.00000000000009 M 142.0,106.00000000000009 M 142.0,13.000000000000028 M 132.0,13.000000000000018 M 131.9999999999999,10.0 M 69.5,59.20000000000035 M 68.8529523872437,59.11481456572301 M 68.24999999999989,58.865063509461436 M 67.73223304703356,58.467766952966684 M 67.33493649053878,57.95000000000038 M 67.08518543427726,57.34704761275665 M 66.99999999999989,56.700000000000294 M 67.08518543427726,56.05295238724404 M 67.33493649053878,55.450000000000315 M 67.73223304703345,54.932233047033904 M 68.24999999999989,54.53493649053915 M 68.85295238724359,54.28518543427758 M 69.49999999999989,54.200000000000216 M 70.14704761275618,54.285185434277565 M 70.74999999999989,54.53493649053914 M 71.26776695296633,54.93223304703389 M 71.66506350946099,55.45000000000023 M 71.91481456572262,56.05295238724398 M 72.0,56.700000000000294 M 71.91481456572274,57.347047612756555 M 71.66506350946099,57.950000000000294 M 71.26776695296633,58.467766952966684 M 70.75,58.86506350946145 M 70.1470476127563,59.11481456572304 M 135.99999999998215,86.00000000000003 M 138.99999999998215,86.00000000000003 M 138.99999999998215,96.00000000000001 M 135.99999999998215,96.00000000000003 M 12.999999999999886,86.00000000000016 M 16.0,86.00000000000014 M 16.0,96.00000000000011 M 12.999999999999886,96.0000000000001 M 54.0,22.78061052847124 M 66.99999999999989,22.780610528471232 M 66.99999999999989,41.580610528471304 M 54.0,41.5806105284713 M 85.0,41.5806105284713 M 85.0,22.78061052847124 M 97.99999999999989,22.780610528471247 M 97.99999999999989,41.5806105284713 M 69.5,41.5806105284713 M 69.5,22.780610528471254 M 82.5,22.780610528471247 M 82.49999999999989,41.5806105284713 M 27.100000000000023,63.4999999999999 M 27.100000000000023,50.49999999999998 M 45.89999999999998,50.499999999999986 M 45.89999999999998,63.49999999999993 M 103.0,73.00000000000011 M 123.0,73.0000000000001 M 123.0,75.99999999999977 M 103.0,75.99999999999977 M 29.0,76.00000000000006 M 29.0,73.00000000000014 M 58.999999999999886,73.00000000000011 M 58.999999999999886,76.00000000000006 M 105.74118095489757,53.17037086855445 M 107.03527618041016,52.99999999999979 M 108.32937140592276,53.17037086855446 M 109.53527618041005,53.66987298107761 M 110.57081008634282,54.46446609406712 M 111.36540319933226,55.49999999999985 M 111.86490531185541,56.70590477448724 M 112.03527618041005,57.99999999999982 M 111.86490531185541,59.29409522551239 M 111.36540319933226,60.49999999999988 M 110.57081008634282,61.535533905932525 M 109.53527618041005,62.33012701892203 M 108.32937140592276,62.829629131445195 M 107.03527618041005,62.99999999999986 M 105.74118095489746,62.829629131445195 M 104.53527618041005,62.33012701892203 M 103.49974227447728,61.53553390593254 M 102.70514916148795,60.499999999999886 M 102.2056470489648,59.29409522551241 M 102.03527618041005,57.99999999999982 M 102.2056470489648,56.705904774487244 M 102.70514916148795,55.49999999999985 M 103.49974227447728,54.46446609406713 M 104.53527618041005,53.66987298107761 "
  />
  <path id="face1-interior"
 style="fill:none;stroke:#00FF00;stroke-width:1;stroke-miterlimit:4;stroke-dasharray:none;stroke-linejoin:round;stroke-linecap:round"
        d="M 10.0,119.00000000000009 M 10.0,251.0000000000001 M 142.00000000000003,251.0000000000001 M 141.99999999999997,119.00000000000009 M 119.46666218300803,173.35314297038673 M 121.00000000000003,185.0000000000001 M 119.46666218300803,196.64685702961359 M 114.97114317029977,207.50000000000009 M 107.81980515339464,216.81980515339473 M 98.50000000000003,223.97114317029988 M 87.64685702961347,228.46666218300817 M 75.99999999999997,230.0000000000001 M 64.35314297038653,228.46666218300817 M 53.49999999999997,223.97114317029985 M 44.18019484660536,216.81980515339475 M 37.02885682970023,207.5000000000001 M 32.53333781699192,196.64685702961356 M 31.00000000000003,185.0000000000001 M 32.533337816991974,173.35314297038667 M 37.02885682970029,162.50000000000009 M 44.18019484660542,153.18019484660545 M 53.49999999999997,146.0288568297004 M 64.35314297038659,141.533337816992 M 75.99999999999997,140.00000000000009 M 87.64685702961347,141.53333781699203 M 98.50000000000003,146.02885682970037 M 107.81980515339464,153.18019484660547 M 114.97114317029977,162.5000000000001 M 19.99999999999997,248.00000000000014 M 19.99999999999997,245.00000000000014 M 39.99999999999997,245.00000000000014 M 39.99999999999997,248.00000000000014 M 16.000000000000057,238.50000000000009 M 13.000000000000085,238.50000000000009 M 13.000000000000085,232.00000000000006 M 16.000000000000057,232.00000000000006 M 112.00000000000003,248.00000000000014 M 112.00000000000003,245.00000000000014 M 131.99999999999997,245.0000000000001 M 131.99999999999997,248.00000000000014 M 135.9999999999857,231.99999999999966 M 138.99999999998366,231.9999999999997 M 138.99999999998366,238.50000000000057 M 135.9999999999857,238.50000000000057 M 136.0000000000164,131.49999999999972 M 139.00000000001435,131.4999999999996 M 139.00000000001435,138.0000000000006 M 136.0000000000164,138.00000000000057 M 131.99999999999997,122.00000000000028 M 131.99999999999997,125.00000000000036 M 112.00000000000003,124.99999999999994 M 112.00000000000003,122.00000000000006 M 39.99999999999997,125.00000000000009 M 19.99999999999997,125.00000000000009 M 19.99999999999997,122.00000000000009 M 39.99999999999997,122.00000000000009 M 16.0,131.5000000000001 M 16.0,138.00000000000006 M 13.000000000000057,138.00000000000006 M 13.000000000000057,131.5000000000001 M 77.44888873943356,123.11177143234622 M 77.49999999999997,123.50000000000013 M 77.44888873943356,123.88822856765388 M 77.29903810567666,124.25000000000003 M 77.0606601717798,124.56066017177992 M 76.74999999999997,124.79903810567683 M 76.38822856765378,124.94888873943371 M 75.99999999999997,125.00000000000017 M 75.61177143234622,124.94888873943371 M 75.25000000000003,124.79903810567663 M 74.9393398282202,124.56066017177984 M 74.70096189432334,124.2500000000001 M 74.55111126056639,123.88822856765384 M 74.50000000000003,123.50000000000011 M 74.55111126056639,123.11177143234642 M 74.70096189432334,122.74999999999997 M 74.9393398282202,122.43933982822017 M 75.25000000000003,122.20096189432351 M 75.61177143234622,122.05111126056647 M 75.99999999999997,122.00000000000009 M 76.38822856765378,122.05111126056627 M 76.74999999999997,122.20096189432357 M 77.0606601717798,122.43933982822034 M 77.29903810567666,122.75 M 77.44888873943356,246.1117714323464 M 77.49999999999997,246.50000000000014 M 77.44888873943356,246.88822856765387 M 77.29903810567666,247.25000000000014 M 77.0606601717798,247.56066017177994 M 76.74999999999997,247.79903810567677 M 76.38822856765378,247.9488887394337 M 75.99999999999997,248.00000000000009 M 75.61177143234622,247.94888873943373 M 75.25000000000003,247.79903810567671 M 74.9393398282202,247.56066017177997 M 74.70096189432334,247.25000000000006 M 74.55111126056639,246.88822856765387 M 74.50000000000003,246.5000000000001 M 74.55111126056639,246.1117714323464 M 74.70096189432334,245.75000000000009 M 74.9393398282202,245.43933982822026 M 75.25000000000003,245.20096189432348 M 75.61177143234622,245.0511112605665 M 75.99999999999997,245.00000000000014 M 76.38822856765378,245.05111126056653 M 76.74999999999997,245.2009618943235 M 77.0606601717798,245.43933982822026 M 77.29903810567666,245.75000000000014 "
  />
  <path id="face2-interior"
 style="fill:none;stroke:#00FF00;stroke-width:1;stroke-miterlimit:4;stroke-dasharray:none;stroke-linejoin:round;stroke-linecap:round"
        d="M 13.0,264.00000000000034 M 13.0,277.0000000000002 M 10.0,277.0000000000002 M 10.000000000000114,307.0000000000003 M 13.0,307.0000000000003 M 13.0,351.00000000000034 M 10.000000000000114,351.00000000000034 M 10.000000000000114,371.0000000000003 M 13.0,371.0000000000003 M 13.0,384.0000000000003 M 26.0,384.0000000000003 M 26.0,387.00000000000034 M 56.0,387.00000000000034 M 56.0,384.0000000000003 M 100.0,384.0000000000003 M 100.0,387.00000000000034 M 120.00000000000011,387.00000000000034 M 120.00000000000011,384.0000000000003 M 133.0,384.00000000000034 M 133.0,371.00000000000034 M 136.0,371.00000000000034 M 136.0,341.00000000000034 M 133.0,341.00000000000034 M 133.0,297.0000000000003 M 136.0,297.0000000000003 M 136.0,277.0000000000003 M 133.0,277.00000000000034 M 133.0,264.00000000000034 M 120.00000000000011,264.00000000000034 M 120.00000000000011,261.0000000000002 M 90.0,261.0000000000001 M 90.0,264.00000000000034 M 46.000000000000114,264.00000000000034 M 46.000000000000114,261.0000000000003 M 26.0,261.0000000000003 M 26.0,264.00000000000034 M 39.192596079882605,333.05866657858854 M 38.0,324.0000000000003 M 39.19259607988272,314.9413334214121 M 42.68911086754474,306.5000000000002 M 48.251262658470864,299.2512626584712 M 55.500000000000114,293.68911086754497 M 63.94133342141174,290.1925960798829 M 73.00000000000011,289.00000000000034 M 82.05866657858826,290.1925960798829 M 90.50000000000011,293.68911086754497 M 97.74873734152914,299.2512626584712 M 103.31088913245537,306.5000000000003 M 106.8074039201174,314.9413334214121 M 108.00000000000011,324.00000000000034 M 106.8074039201174,333.0586665785885 M 103.31088913245537,341.50000000000034 M 97.74873734152914,348.7487373415295 M 90.5,354.3108891324556 M 82.05866657858826,357.80740392011774 M 73.00000000000011,359.0000000000003 M 63.94133342141174,357.80740392011774 M 55.5,354.3108891324556 M 48.251262658470864,348.74873734152936 M 42.68911086754474,341.5000000000003 M 36.5,289.54903810567697 M 36.18933982822023,289.3106601717801 M 35.95096189432343,289.00000000000034 M 35.80111126056647,288.6382285676541 M 35.750000000000114,288.25000000000034 M 35.80111126056647,287.86177143234653 M 35.950961894323314,287.50000000000034 M 36.18933982822023,287.18933982822045 M 36.5,286.95096189432365 M 36.861771432346245,286.8011112605667 M 37.25,286.7500000000003 M 37.63822856765387,286.8011112605667 M 38.0,286.95096189432365 M 38.31066017177977,287.18933982822045 M 38.549038105676686,287.50000000000034 M 38.69888873943364,287.86177143234653 M 38.75,288.2500000000002 M 38.69888873943364,288.6382285676541 M 38.549038105676686,289.0000000000002 M 38.31066017177989,289.3106601717801 M 38.0,289.54903810567697 M 37.63822856765387,289.6988887394339 M 37.25,289.7500000000002 M 36.861771432346245,289.6988887394339 M 107.45096189432343,287.5000000000003 M 107.68933982822023,287.1893398282204 M 108.00000000000011,286.95096189432365 M 108.36177143234625,286.8011112605667 M 108.75,286.75000000000034 M 109.13822856765375,286.8011112605667 M 109.5,286.95096189432365 M 109.81066017177977,287.18933982822045 M 110.04903810567669,287.50000000000034 M 110.19888873943364,287.8617714323466 M 110.25,288.25000000000034 M 110.19888873943364,288.63822856765404 M 110.04903810567669,289.0000000000001 M 109.81066017177989,289.3106601717801 M 109.5,289.54903810567697 M 109.13822856765375,289.698888739434 M 108.75,289.7500000000003 M 108.36177143234625,289.6988887394339 M 108.00000000000011,289.549038105677 M 107.68933982822023,289.3106601717801 M 107.45096189432331,289.00000000000034 M 107.30111126056636,288.6382285676541 M 107.25,288.25000000000034 M 107.30111126056636,287.86177143234653 M 38.549038105676686,359.0000000000004 M 38.69888873943364,359.3617714323466 M 38.75,359.7500000000004 M 38.69888873943364,360.1382285676541 M 38.549038105676686,360.5000000000004 M 38.31066017177977,360.8106601717802 M 38.0,361.04903810567697 M 37.63822856765387,361.19888873943387 M 37.25,361.25000000000034 M 36.861771432346245,361.19888873943387 M 36.5,361.04903810567697 M 36.18933982822023,360.8106601717802 M 35.950961894323314,360.50000000000034 M 35.80111126056647,360.1382285676541 M 35.750000000000114,359.7500000000004 M 35.80111126056647,359.3617714323465 M 35.950961894323314,359.0000000000004 M 36.18933982822023,358.68933982822045 M 36.500000000000114,358.45096189432365 M 36.861771432346245,358.3011112605667 M 37.25,358.25000000000034 M 37.63822856765387,358.3011112605667 M 38.0,358.4509618943237 M 38.31066017177989,358.68933982822057 M 109.81066017177989,360.81066017178017 M 109.5,361.04903810567697 M 109.13822856765375,361.1988887394339 M 108.75000000000011,361.2500000000004 M 108.36177143234625,361.19888873943387 M 108.00000000000011,361.04903810567697 M 107.68933982822023,360.8106601717802 M 107.45096189432343,360.50000000000034 M 107.30111126056636,360.1382285676541 M 107.25000000000011,359.7500000000004 M 107.30111126056636,359.3617714323466 M 107.45096189432331,359.0000000000004 M 107.68933982822023,358.68933982822045 M 108.00000000000011,358.45096189432365 M 108.36177143234625,358.3011112605667 M 108.75000000000011,358.25000000000034 M 109.13822856765375,358.3011112605667 M 109.5,358.45096189432365 M 109.81066017177989,358.6893398282205 M 110.04903810567669,359.00000000000034 M 110.19888873943364,359.3617714323466 M 110.25,359.7500000000004 M 110.19888873943364,360.1382285676541 M 110.04903810567669,360.5000000000004 M 22.819529020599134,376.73831030401794 M 22.569777964337504,377.3412626912616 M 22.172481407842838,377.85902964422803 M 21.654714454876512,378.2563262007228 M 21.051762067632694,378.50607725698427 M 20.404714454876512,378.5912626912616 M 19.757666842120216,378.50607725698427 M 19.154714454876512,378.2563262007228 M 18.636947501910072,377.85902964422803 M 18.239650945415292,377.3412626912617 M 17.989899889153776,376.73831030401794 M 17.904714454876512,376.0912626912616 M 17.989899889153776,375.4442150785054 M 18.239650945415292,374.84126269126165 M 18.636947501910072,374.3234957382952 M 19.154714454876512,373.92619918180054 M 19.757666842120216,373.67644812553897 M 20.404714454876512,373.59126269126165 M 21.051762067632694,373.67644812553897 M 21.654714454876512,373.92619918180054 M 22.172481407842838,374.3234957382952 M 22.569777964337504,374.84126269126165 M 22.819529020599134,375.4442150785054 M 22.904714454876398,376.0912626912616 "
  />
  <path id="face3-interior"
 style="fill:none;stroke:#00FF00;stroke-width:1;stroke-miterlimit:4;stroke-dasharray:none;stroke-linejoin:round;stroke-linecap:round"
        d="M 10.0,397.00000000000034 M 10.0,529.0000000000005 M 142.0,529.0000000000005 M 142.0,397.00000000000034 M 126.0,526.0000000000005 M 105.99999999999994,526.0000000000005 M 105.99999999999994,523.0000000000003 M 126.0,523.0000000000003 M 82.70096189432331,525.2500000000003 M 82.55111126056636,524.8882285676541 M 82.49999999999994,524.5000000000003 M 82.55111126056636,524.1117714323466 M 82.70096189432331,523.7500000000003 M 82.93933982822017,523.4393398282206 M 83.24999999999994,523.2009618943237 M 83.61177143234619,523.0511112605668 M 84.0,523.0000000000003 M 84.38822856765375,523.0511112605668 M 84.75,523.2009618943237 M 85.06066017177977,523.4393398282206 M 85.29903810567663,523.7500000000003 M 85.44888873943358,524.1117714323467 M 85.5,524.5000000000003 M 85.44888873943358,524.8882285676542 M 85.29903810567663,525.2500000000003 M 85.06066017177977,525.5606601717802 M 84.75,525.799038105677 M 84.38822856765375,525.948888739434 M 84.0,526.0000000000003 M 83.61177143234619,525.948888739434 M 83.24999999999994,525.799038105677 M 82.93933982822017,525.5606601717801 M 138.99999999999477,510.0 M 135.99999999998568,510.0 M 135.99999999998568,480.00000000000085 M 138.99999999999477,480.00000000000085 M 19.536584372056723,515.7966021341365 M 19.96073466765472,516.2926098942881 M 20.24205613755521,516.8814947743451 M 20.36137718848994,517.5231252429098 M 20.3105662880252,518.1737752438939 M 20.093086115058668,518.7891040549803 M 19.72375758397493,519.3271780345726 M 19.227749823823274,519.7513283301705 M 18.638864943766293,520.032649800071 M 17.99723447520165,520.1519708510058 M 17.346584474217536,520.101159950541 M 16.731255663131094,519.8836797775746 M 16.19318168353891,519.5143512464908 M 15.7690313879408,519.0183434863392 M 15.487709918040423,518.4294586062822 M 15.368388867105637,517.7878281377175 M 15.419199767570376,517.1371781367334 M 15.636679940536965,516.5218493256469 M 16.00600847162059,515.9837753460547 M 16.50201623177236,515.5596250504567 M 17.090901111829282,515.2783035805562 M 17.732531580393868,515.1589825296214 M 18.383181581377983,515.2097934300862 M 18.998510392464482,515.4272736030528 M 56.00000000000006,523.0000000000003 M 56.00000000000006,526.0000000000005 M 26.0,526.0000000000005 M 26.0,523.0000000000003 M 13.051111260566415,468.3882285676541 M 13.0,468.0000000000004 M 13.051111260566415,467.6117714323466 M 13.200961894323314,467.2500000000004 M 13.43933982822017,466.9393398282205 M 13.75,466.70096189432377 M 14.111771432346188,466.5511112605668 M 14.5,466.5000000000004 M 14.888228567653812,466.5511112605667 M 15.25,466.7009618943237 M 15.560660171779773,466.9393398282205 M 15.799038105676573,467.2500000000004 M 15.948888739433585,467.6117714323466 M 15.999999999999943,468.0000000000004 M 15.948888739433585,468.3882285676541 M 15.799038105676573,468.7500000000004 M 15.560660171779773,469.0606601717802 M 15.25,469.29903810567697 M 14.888228567653698,469.448888739434 M 14.5,469.50000000000034 M 14.111771432346188,469.448888739434 M 13.75,469.29903810567697 M 13.439339828220113,469.0606601717802 M 13.200961894323314,468.7500000000004 M 13.0,490.00000000000034 M 16.0,490.00000000000034 M 16.0,510.0000000000004 M 13.0,510.0000000000004 M 67.61177143234619,400.0511112605667 M 67.99999999999994,400.00000000000034 M 68.38822856765381,400.0511112605668 M 68.74999999999994,400.2009618943236 M 69.06066017177983,400.4393398282204 M 69.29903810567669,400.75000000000034 M 69.44888873943358,401.1117714323465 M 69.49999999999994,401.50000000000045 M 69.44888873943358,401.8882285676541 M 69.29903810567669,402.25000000000034 M 69.06066017177983,402.5606601717801 M 68.74999999999994,402.79903810567714 M 68.38822856765381,402.948888739434 M 67.99999999999994,403.0000000000004 M 67.61177143234619,402.94888873943387 M 67.25,402.799038105677 M 66.93933982822011,402.56066017178017 M 66.70096189432331,402.25000000000045 M 66.55111126056642,401.8882285676542 M 66.5,401.5000000000004 M 66.55111126056642,401.11177143234664 M 66.70096189432331,400.75000000000034 M 66.93933982822011,400.43933982822057 M 67.25,400.20096189432354 M 16.0,446.00000000000034 M 13.0,446.00000000000034 M 13.0,416.00000000000034 M 16.0,416.00000000000034 M 45.99999999999994,400.00000000000034 M 45.99999999999994,403.0000000000004 M 26.0,403.0000000000004 M 26.0,400.00000000000034 M 136.0000000000083,416.0000000000008 M 139.00000000001444,416.0000000000008 M 139.00000000001444,435.9999999999999 M 136.0000000000083,435.9999999999999 M 136.75000000000364,456.700961894323 M 137.11177143234988,456.5511112605662 M 137.50000000000364,456.49999999999994 M 137.8882285676574,456.5511112605664 M 138.25000000000364,456.7009618943236 M 138.5606601717833,456.9393398282205 M 138.79903810567998,457.25000000000045 M 138.94888873943682,457.6117714323467 M 139.00000000000307,458.00000000000045 M 138.9488887394366,458.38822856765427 M 138.79903810567941,458.75000000000045 M 138.5606601717825,459.06066017178017 M 138.2500000000025,459.2990381056768 M 137.88822856765637,459.44888873943364 M 137.5000000000025,459.49999999999994 M 137.11177143234886,459.4488887394334 M 136.75000000000261,459.2990381056763 M 136.43933982822296,459.0606601717793 M 136.20096189432616,458.74999999999943 M 136.05111126056943,458.3882285676532 M 136.00000000000307,457.9999999999993 M 136.05111126056966,457.6117714323456 M 136.2009618943266,457.24999999999943 M 136.43933982822364,456.9393398282197 M 126.0,403.00000000000034 M 95.99999999999994,403.0000000000005 M 95.99999999999994,400.00000000000045 M 126.0,399.99999999999955 M 73.05111126056636,435.6382285676532 M 73.05111126056636,430.63822856765313 M 76.05111126056642,430.63822856765313 M 76.05111126056642,435.6382285676532 M 42.801111260566415,463.88822856765216 M 42.8011112605663,460.8882285676532 M 47.80111126056636,460.8882285676522 M 47.80111126056636,463.88822856765216 M 106.30111126056642,460.88822856765324 M 106.30111126056642,463.8882285676532 M 101.30111126056636,463.8882285676532 M 101.30111126056636,460.8882285676532 M 76.0511112605663,494.13822856765313 M 73.05111126056636,494.13822856765313 M 73.05111126056636,489.1382285676532 M 76.0511112605663,489.1382285676532 "
  />
  <path id="face4-interior"
 style="fill:none;stroke:#00FF00;stroke-width:1;stroke-miterlimit:4;stroke-dasharray:none;stroke-linejoin:round;stroke-linecap:round"
        d="M 106.00000000000011,542.0000000000003 M 33.000000000000114,542.0000000000003 M 33.000000000000114,539.0000000000005 M 23.0,539.0000000000005 M 23.0,542.0000000000003 M 13.000000000000114,542.0000000000003 M 13.0,555.0000000000003 M 10.000000000000114,555.0000000000003 M 10.0,585.0000000000003 M 13.0,585.0000000000003 M 13.000000000000114,605.5000000000003 M 15.019999999999982,605.5000000000003 M 15.019999999999982,604.2000000000004 M 17.220000000000027,604.2000000000004 M 17.220000000000027,605.5000000000003 M 20.220000000000027,605.5000000000003 M 20.220000000000027,608.5000000000003 M 17.220000000000027,608.5000000000003 M 17.220000000000027,609.8000000000003 M 15.0,609.8000000000003 M 15.000000000000114,608.5000000000003 M 13.000000000000114,608.5000000000003 M 13.000000000000114,629.0000000000003 M 10.000000000000114,629.0000000000003 M 10.000000000000114,649.0000000000005 M 13.000000000000114,649.0000000000005 M 13.000000000000114,662.0000000000005 M 23.0,662.0000000000003 M 23.0,665.0000000000005 M 33.000000000000114,665.0000000000005 M 33.000000000000114,662.0000000000005 M 106.00000000000011,662.0000000000003 M 106.00000000000011,655.5000000000005 M 109.00000000000023,655.5000000000003 M 109.00000000000023,649.0000000000003 M 76.00000000000011,649.0000000000003 M 72.97567714079275,641.5224465365756 M 70.48084135925546,633.8519753008391 M 68.5276704987009,626.0260275534682 M 67.1256984165791,618.0828034702605 M 66.28176844761856,610.0610756786566 M 66.00000000000011,602.0000000000003 M 66.28176844761856,593.938924321344 M 67.1256984165791,585.9171965297401 M 68.5276704987009,577.9739724465323 M 70.48084135925546,570.1480246991615 M 72.97567714079275,562.477553463425 M 76.00000000000011,555.0000000000003 M 109.00000000000023,555.0000000000003 M 109.00000000000023,548.5000000000003 M 106.00000000000011,548.5000000000003 M 43.000000000000114,629.0000000000003 M 46.000000000000114,629.0000000000003 M 46.0,649.0000000000003 M 43.000000000000114,649.0000000000003 M 43.0,555.0000000000003 M 46.0,555.0000000000003 M 46.0,585.0000000000003 M 43.0,585.0000000000003 "
  />
  <path id="face5-interior"
 style="fill:none;stroke:#00FF00;stroke-width:1;stroke-miterlimit:4;stroke-dasharray:none;stroke-linejoin:round;stroke-linecap:round"
        d="M 12.999999999998067,797.9999999999782 M 85.9999999999983,797.9999999999782 M 85.99999999999739,801.0000000000006 M 95.99999999999727,801.0000000000039 M 95.99999999999818,797.9999999999782 M 105.99999999999818,797.9999999999782 M 106.00000000000216,785.0000000000066 M 109.00000000000227,785.0000000000076 M 109.00000000001137,755.0000000000075 M 106.00000000001137,755.0000000000066 M 106.00000000001751,734.5000000000067 M 103.98000000001753,734.500000000006 M 103.98000000001718,735.8000000000061 M 101.78000000001714,735.8000000000053 M 101.7800000000176,734.5000000000053 M 98.78000000001771,734.5000000000044 M 98.78000000001862,731.5000000000045 M 101.78000000001862,731.5000000000053 M 101.78000000001896,730.2000000000054 M 104.00000000001887,730.2000000000061 M 104.00000000001853,731.500000000006 M 106.00000000001864,731.5000000000067 M 106.00000000002478,711.0000000000067 M 109.00000000002478,711.0000000000076 M 109.00000000003092,691.0000000000076 M 106.00000000003092,691.0000000000066 M 106.0000000000349,678.0000000000066 M 96.0000000000349,678.0000000000035 M 96.00000000003581,675.0000000000035 M 86.00000000003581,675.0000000000005 M 86.0000000000349,678.0000000000005 M 13.000000000034788,677.9999999999782 M 13.000000000032855,684.4999999999782 M 10.000000000032742,684.4999999999773 M 10.00000000003081,690.9999999999773 M 43.00000000003081,690.9999999999874 M 46.024322859235895,698.4775534634131 M 48.5191586407708,706.1480246991504 M 50.4723295013232,713.9739724465218 M 51.874301583442275,721.9171965297298 M 52.71823155240054,729.9389243213341 M 53.0000000000166,737.9999999999905 M 52.71823155239565,746.0610756786467 M 51.87430158343261,754.0828034702504 M 50.47232950130831,762.0260275534575 M 48.51915864075124,769.8519753008279 M 46.02432285921168,777.5224465365635 M 43.000000000002046,784.9999999999874 M 10.000000000002046,784.9999999999773 M 10.0,791.4999999999773 M 13.0,791.4999999999782 M 76.00000000002467,710.9999999999975 M 73.0000000000249,710.9999999999966 M 73.00000000003104,690.9999999999966 M 76.00000000003081,690.9999999999975 M 76.00000000000216,784.9999999999975 M 73.00000000000216,784.9999999999965 M 73.00000000001125,754.9999999999966 M 76.00000000001137,754.9999999999974 "
  />
  <path id="face6-interior"
 style="fill:none;stroke:#00FF00;stroke-width:1;stroke-miterlimit:4;stroke-dasharray:none;stroke-linejoin:round;stroke-linecap:round"
        d="M 10.000000000001137,817.0000000000049 M 15.000000000001023,817.0000000000049 M 15.000000000001705,820.0000000000039 M 20.000000000001705,820.000000000003 M 20.000000000001137,817.0000000000049 M 25.000000000001137,817.0000000000049 M 25.00000000000057,814.0000000000019 M 15.000000000000568,814.0000000000039 M 15.0,811.0000000000039 M 10.0,811.0000000000049 "
  />
  <path id="face7-interior"
 style="fill:none;stroke:#00FF00;stroke-width:1;stroke-miterlimit:4;stroke-dasharray:none;stroke-linejoin:round;stroke-linecap:round"
        d="M 26.0,833.000000000004 M 10.0,833.000000000004 M 10.0,926.0000000000041 M 19.999999999999886,926.0000000000041 M 20.000000000000114,929.0000000000041 M 40.0,929.0000000000041 M 40.0,926.0000000000041 M 74.5,926.0000000000041 M 74.5,924.0000000000042 M 73.20000000000005,924.0000000000042 M 73.20000000000005,921.8000000000042 M 74.5,921.8000000000042 M 74.5,918.800000000004 M 77.5,918.800000000004 M 77.5,921.8000000000042 M 78.79999999999984,921.8000000000042 M 78.80000000000007,924.0000000000042 M 77.5,924.0000000000042 M 77.5,926.0000000000041 M 111.99999999999989,926.0000000000041 M 112.00000000000011,929.0000000000041 M 132.0,929.0000000000042 M 132.0,926.0000000000041 M 141.9999999999999,926.0000000000041 M 141.9999999999999,833.000000000004 M 126.0,833.000000000004 M 126.0,830.0000000000039 M 95.99999999999989,830.000000000004 M 95.99999999999989,833.000000000004 M 69.5,833.000000000004 M 69.5,835.000000000004 M 70.80000000000007,835.0000000000039 M 70.79999999999984,837.200000000004 M 69.5,837.2000000000041 M 69.5,840.2000000000041 M 66.5,840.2000000000041 M 66.5,837.2000000000041 M 65.20000000000005,837.200000000004 M 65.20000000000005,835.000000000004 M 66.5,835.000000000004 M 66.5,833.000000000004 M 45.999999999999886,833.000000000004 M 45.999999999999886,830.0000000000041 M 26.0,830.0000000000041 M 92.99999999999989,863.0000000000042 M 122.99999999999989,863.0000000000042 M 122.99999999999989,866.000000000004 M 93.00000000000011,866.000000000004 M 29.0,866.000000000004 M 29.0,863.000000000004 M 49.0,863.000000000004 M 49.0,866.000000000004 M 13.0,843.000000000004 M 16.000000000000114,843.000000000004 M 15.999999999999886,853.0000000000041 M 13.0,853.0000000000041 M 139.00000000001796,853.0000000000041 M 136.00000000001785,853.000000000004 M 136.00000000001785,843.0000000000042 M 139.00000000001796,843.0000000000042 M 76.51763809020508,894.7318516525823 M 76.0,894.8000000000042 M 75.48236190979492,894.7318516525823 M 75.0,894.532050807573 M 74.58578643762701,894.2142135623773 M 74.26794919243116,893.8000000000042 M 74.06814834742192,893.3176380902091 M 74.00000000000011,892.800000000004 M 74.06814834742192,892.282361909799 M 74.26794919243116,891.800000000004 M 74.58578643762701,891.385786437631 M 75.0,891.0679491924353 M 75.48236190979492,890.868148347426 M 76.0,890.8000000000042 M 76.51763809020508,890.868148347426 M 76.99999999999989,891.0679491924353 M 77.41421356237299,891.385786437631 M 77.73205080756895,891.800000000004 M 77.93185165257808,892.282361909799 M 78.0,892.800000000004 M 77.93185165257819,893.3176380902091 M 77.73205080756895,893.8000000000043 M 77.4142135623731,894.2142135623773 M 76.99999999999989,894.532050807573 M 41.16636229124856,887.1917145815542 M 41.30265898609218,888.2269907619641 M 41.16636229124856,889.2622669423743 M 40.766760601229976,890.2269907619642 M 40.131086110838396,891.0554178867103 M 39.3026589860923,891.691092377102 M 38.33793516650235,892.0906940671205 M 37.30265898609218,892.2269907619641 M 36.26738280568213,892.0906940671205 M 35.30265898609218,891.691092377102 M 34.474231861346084,891.0554178867103 M 33.838557370954504,890.2269907619642 M 33.43895568093592,889.2622669423743 M 33.3026589860923,888.2269907619641 M 33.43895568093592,887.1917145815542 M 33.838557370954504,886.2269907619642 M 34.474231861346084,885.3985636372179 M 35.30265898609218,884.7628891468264 M 36.26738280568213,884.3632874568079 M 37.30265898609218,884.2269907619641 M 38.33793516650235,884.3632874568079 M 39.3026589860923,884.7628891468264 M 40.131086110838396,885.3985636372179 M 40.766760601229976,886.2269907619642 "
  />
  <path id="face8-interior"
 style="fill:none;stroke:#00FF00;stroke-width:1;stroke-miterlimit:4;stroke-dasharray:none;stroke-linejoin:round;stroke-linecap:round"
        d="M 10.000000000001137,945.0000000000052 M 15.00000000000125,945.0000000000052 M 15.000000000001705,948.0000000000042 M 20.000000000001705,948.0000000000032 M 20.000000000001137,945.0000000000052 M 25.00000000000125,945.0000000000052 M 25.00000000000057,942.0000000000024 M 15.000000000000568,942.0000000000043 M 15.0,939.0000000000042 M 10.0,939.0000000000052 "
  />
  <path id="face9-interior"
 style="fill:none;stroke:#00FF00;stroke-width:1;stroke-miterlimit:4;stroke-dasharray:none;stroke-linejoin:round;stroke-linecap:round"
        d="M 10.000000000001137,964.0000000000052 M 15.000000000001137,964.0000000000052 M 15.000000000001705,967.0000000000043 M 20.00000000000182,967.0000000000032 M 20.000000000001137,964.0000000000052 M 25.000000000001137,964.0000000000052 M 25.000000000000682,961.0000000000023 M 15.000000000000568,961.0000000000043 M 15.0,958.0000000000042 M 10.0,958.0000000000052 "
  />
  <path id="face10-interior"
 style="fill:none;stroke:#00FF00;stroke-width:1;stroke-miterlimit:4;stroke-dasharray:none;stroke-linejoin:round;stroke-linecap:round"
        d="M 10.000000000001137,983.0000000000053 M 15.000000000001137,983.0000000000053 M 15.000000000001705,986.0000000000043 M 20.00000000000182,986.0000000000034 M 20.000000000001137,983.0000000000053 M 25.000000000001137,983.0000000000053 M 25.000000000000682,980.0000000000024 M 15.000000000000568,980.0000000000043 M 15.0,977.0000000000043 M 10.0,977.0000000000053 "
  />
</svg>
