<?xml version="1.0" standalone="no"?>
<!DOCTYPE svg PUBLIC "-//W3C//DTD SVG 1.1//EN" "http://www.w3.org/Graphics/SVG/1.1/DTD/svg11.dtd">
<svg width="152.0mm" height="939.000000000003mm"
 viewBox="0 0 152.0 939.000000000003"
 xmlns="http://www.w3.org/2000/svg" version="1.1"
 xmlns:xlink="http://www.w3.org/1999/xlink">
<desc>Output from Flights of Ideas SVG Sketchup Plugin</desc>

  <g id="face0" fill="none" stroke="rgb(0,0,255)" stroke-width="1" stroke-miterlimit="4" stroke-dasharray="none" stroke-linejoin="round" stroke-linecap="round">
    <line x1="13.0" y1="13.0000000000001" x2="13.0" y2="26.0000000000001"/>
    <line x1="13.0" y1="26.0000000000001" x2="10.0" y2="26.0000000000001"/>
    <line x1="10.0" y1="26.0000000000001" x2="10.0" y2="56.0000000000001"/>
    <line x1="10.0" y1="56.0000000000001" x2="13.0" y2="56.0000000000001"/>
    <line x1="13.0" y1="56.0000000000001" x2="13.0" y2="100.0"/>
    <line x1="13.0" y1="100.0" x2="10.0" y2="100.0"/>
    <line x1="10.0" y1="100.0" x2="10.0" y2="120.0"/>
    <line x1="10.0" y1="120.0" x2="13.0" y2="120.0"/>
    <line x1="13.0" y1="120.0" x2="13.0" y2="133.0"/>
    <line x1="13.0" y1="133.0" x2="26.0" y2="133.0"/>
    <line x1="26.0" y1="133.0" x2="26.0" y2="136.0"/>
    <line x1="26.0" y1="136.0" x2="56.0" y2="136.0"/>
    <line x1="56.0" y1="136.0" x2="56.0" y2="133.0"/>
    <line x1="56.0" y1="133.0" x2="100.0" y2="133.0"/>
    <line x1="100.0" y1="133.0" x2="100.0" y2="136.0"/>
    <line x1="100.0" y1="136.0" x2="120.0" y2="136.0"/>
    <line x1="120.0" y1="136.0" x2="120.0" y2="133.0"/>
    <line x1="120.0" y1="133.0" x2="133.0" y2="133.0"/>
    <line x1="133.0" y1="133.0" x2="133.0" y2="120.0"/>
    <line x1="133.0" y1="120.0" x2="136.0" y2="120.0"/>
    <line x1="136.0" y1="120.0" x2="136.0" y2="90.0000000000001"/>
    <line x1="136.0" y1="90.0000000000001" x2="133.0" y2="90.0000000000001"/>
    <line x1="133.0" y1="90.0000000000001" x2="133.0" y2="46.0000000000001"/>
    <line x1="133.0" y1="46.0000000000001" x2="136.0" y2="46.0000000000001"/>
    <line x1="136.0" y1="46.0000000000001" x2="136.0" y2="26.0000000000001"/>
    <line x1="136.0" y1="26.0000000000001" x2="133.0" y2="26.0000000000001"/>
    <line x1="133.0" y1="26.0000000000001" x2="133.0" y2="13.0000000000001"/>
    <line x1="133.0" y1="13.0000000000001" x2="120.0" y2="13.0000000000001"/>
    <line x1="120.0" y1="13.0000000000001" x2="120.0" y2="10.0"/>
    <line x1="120.0" y1="10.0" x2="90.0" y2="10.0000000000003"/>
    <line x1="90.0" y1="10.0000000000003" x2="90.0" y2="13.0000000000001"/>
    <line x1="90.0" y1="13.0000000000001" x2="46.0" y2="13.0000000000001"/>
    <line x1="46.0" y1="13.0000000000001" x2="46.0" y2="10.0000000000001"/>
    <line x1="46.0" y1="10.0000000000001" x2="26.0" y2="10.0000000000001"/>
    <line x1="26.0" y1="10.0000000000001" x2="26.0" y2="13.0000000000001"/>
    <line x1="26.0" y1="13.0000000000001" x2="13.0" y2="13.0000000000001"/>
    <line x1="39.1925960798826" y1="82.0586665785883" x2="38.0" y2="73.0000000000001"/>
    <line x1="38.0" y1="73.0000000000001" x2="39.1925960798826" y2="63.9413334214119"/>
    <line x1="39.1925960798826" y1="63.9413334214119" x2="42.6891108675447" y2="55.5000000000001"/>
    <line x1="42.6891108675447" y1="55.5000000000001" x2="48.2512626584708" y2="48.251262658471"/>
    <line x1="48.2512626584708" y1="48.251262658471" x2="55.5" y2="42.6891108675447"/>
    <line x1="55.5" y1="42.6891108675447" x2="63.9413334214118" y2="39.1925960798827"/>
    <line x1="63.9413334214118" y1="39.1925960798827" x2="73.0" y2="38.0000000000001"/>
    <line x1="73.0" y1="38.0000000000001" x2="82.0586665785883" y2="39.1925960798828"/>
    <line x1="82.0586665785883" y1="39.1925960798828" x2="90.5" y2="42.6891108675447"/>
    <line x1="90.5" y1="42.6891108675447" x2="97.7487373415292" y2="48.251262658471"/>
    <line x1="97.7487373415292" y1="48.251262658471" x2="103.310889132455" y2="55.5000000000001"/>
    <line x1="103.310889132455" y1="55.5000000000001" x2="106.807403920117" y2="63.9413334214119"/>
    <line x1="106.807403920117" y1="63.9413334214119" x2="108.0" y2="73.0000000000001"/>
    <line x1="108.0" y1="73.0000000000001" x2="106.807403920117" y2="82.0586665785883"/>
    <line x1="106.807403920117" y1="82.0586665785883" x2="103.310889132455" y2="90.5000000000001"/>
    <line x1="103.310889132455" y1="90.5000000000001" x2="97.7487373415292" y2="97.7487373415293"/>
    <line x1="97.7487373415292" y1="97.7487373415293" x2="90.5" y2="103.310889132455"/>
    <line x1="90.5" y1="103.310889132455" x2="82.0586665785882" y2="106.807403920117"/>
    <line x1="82.0586665785882" y1="106.807403920117" x2="73.0" y2="108.0"/>
    <line x1="73.0" y1="108.0" x2="63.9413334214118" y2="106.807403920117"/>
    <line x1="63.9413334214118" y1="106.807403920117" x2="55.5" y2="103.310889132455"/>
    <line x1="55.5" y1="103.310889132455" x2="48.2512626584708" y2="97.7487373415292"/>
    <line x1="48.2512626584708" y1="97.7487373415292" x2="42.6891108675447" y2="90.5000000000001"/>
    <line x1="42.6891108675447" y1="90.5000000000001" x2="39.1925960798826" y2="82.0586665785883"/>
    <line x1="36.5" y1="38.5490381056767" x2="36.1893398282202" y2="38.3106601717799"/>
    <line x1="36.1893398282202" y1="38.3106601717799" x2="35.9509618943233" y2="38.0000000000001"/>
    <line x1="35.9509618943233" y1="38.0000000000001" x2="35.8011112605664" y2="37.6382285676539"/>
    <line x1="35.8011112605664" y1="37.6382285676539" x2="35.75" y2="37.2500000000001"/>
    <line x1="35.75" y1="37.2500000000001" x2="35.8011112605664" y2="36.8617714323463"/>
    <line x1="35.8011112605664" y1="36.8617714323463" x2="35.9509618943233" y2="36.5000000000001"/>
    <line x1="35.9509618943233" y1="36.5000000000001" x2="36.1893398282202" y2="36.1893398282203"/>
    <line x1="36.1893398282202" y1="36.1893398282203" x2="36.5" y2="35.9509618943234"/>
    <line x1="36.5" y1="35.9509618943234" x2="36.8617714323462" y2="35.8011112605665"/>
    <line x1="36.8617714323462" y1="35.8011112605665" x2="37.25" y2="35.7500000000001"/>
    <line x1="37.25" y1="35.7500000000001" x2="37.6382285676538" y2="35.8011112605665"/>
    <line x1="37.6382285676538" y1="35.8011112605665" x2="38.0" y2="35.9509618943234"/>
    <line x1="38.0" y1="35.9509618943234" x2="38.3106601717798" y2="36.1893398282203"/>
    <line x1="38.3106601717798" y1="36.1893398282203" x2="38.5490381056767" y2="36.5000000000001"/>
    <line x1="38.5490381056767" y1="36.5000000000001" x2="38.6988887394336" y2="36.8617714323463"/>
    <line x1="38.6988887394336" y1="36.8617714323463" x2="38.75" y2="37.2500000000001"/>
    <line x1="38.75" y1="37.2500000000001" x2="38.6988887394336" y2="37.6382285676539"/>
    <line x1="38.6988887394336" y1="37.6382285676539" x2="38.5490381056767" y2="38.0000000000001"/>
    <line x1="38.5490381056767" y1="38.0000000000001" x2="38.3106601717798" y2="38.3106601717799"/>
    <line x1="38.3106601717798" y1="38.3106601717799" x2="38.0" y2="38.5490381056767"/>
    <line x1="38.0" y1="38.5490381056767" x2="37.6382285676538" y2="38.6988887394337"/>
    <line x1="37.6382285676538" y1="38.6988887394337" x2="37.25" y2="38.7500000000001"/>
    <line x1="37.25" y1="38.7500000000001" x2="36.8617714323462" y2="38.6988887394337"/>
    <line x1="36.8617714323462" y1="38.6988887394337" x2="36.5" y2="38.5490381056767"/>
    <line x1="107.450961894323" y1="36.5000000000002" x2="107.68933982822" y2="36.1893398282202"/>
    <line x1="107.68933982822" y1="36.1893398282202" x2="108.0" y2="35.9509618943235"/>
    <line x1="108.0" y1="35.9509618943235" x2="108.361771432346" y2="35.8011112605665"/>
    <line x1="108.361771432346" y1="35.8011112605665" x2="108.75" y2="35.7500000000001"/>
    <line x1="108.75" y1="35.7500000000001" x2="109.138228567654" y2="35.8011112605665"/>
    <line x1="109.138228567654" y1="35.8011112605665" x2="109.5" y2="35.9509618943235"/>
    <line x1="109.5" y1="35.9509618943235" x2="109.81066017178" y2="36.1893398282203"/>
    <line x1="109.81066017178" y1="36.1893398282203" x2="110.049038105677" y2="36.5000000000001"/>
    <line x1="110.049038105677" y1="36.5000000000001" x2="110.198888739434" y2="36.8617714323463"/>
    <line x1="110.198888739434" y1="36.8617714323463" x2="110.25" y2="37.2500000000002"/>
    <line x1="110.25" y1="37.2500000000002" x2="110.198888739434" y2="37.6382285676538"/>
    <line x1="110.198888739434" y1="37.6382285676538" x2="110.049038105677" y2="38.0"/>
    <line x1="110.049038105677" y1="38.0" x2="109.81066017178" y2="38.3106601717799"/>
    <line x1="109.81066017178" y1="38.3106601717799" x2="109.5" y2="38.5490381056767"/>
    <line x1="109.5" y1="38.5490381056767" x2="109.138228567654" y2="38.6988887394337"/>
    <line x1="109.138228567654" y1="38.6988887394337" x2="108.75" y2="38.7500000000001"/>
    <line x1="108.75" y1="38.7500000000001" x2="108.361771432346" y2="38.6988887394338"/>
    <line x1="108.361771432346" y1="38.6988887394338" x2="108.0" y2="38.5490381056768"/>
    <line x1="108.0" y1="38.5490381056768" x2="107.68933982822" y2="38.3106601717799"/>
    <line x1="107.68933982822" y1="38.3106601717799" x2="107.450961894323" y2="38.0000000000001"/>
    <line x1="107.450961894323" y1="38.0000000000001" x2="107.301111260566" y2="37.6382285676538"/>
    <line x1="107.301111260566" y1="37.6382285676538" x2="107.25" y2="37.2500000000002"/>
    <line x1="107.25" y1="37.2500000000002" x2="107.301111260566" y2="36.8617714323462"/>
    <line x1="107.301111260566" y1="36.8617714323462" x2="107.450961894323" y2="36.5000000000002"/>
    <line x1="38.5490381056767" y1="108.0" x2="38.6988887394336" y2="108.361771432346"/>
    <line x1="38.6988887394336" y1="108.361771432346" x2="38.75" y2="108.75"/>
    <line x1="38.75" y1="108.75" x2="38.6988887394336" y2="109.138228567654"/>
    <line x1="38.6988887394336" y1="109.138228567654" x2="38.5490381056767" y2="109.5"/>
    <line x1="38.5490381056767" y1="109.5" x2="38.3106601717798" y2="109.81066017178"/>
    <line x1="38.3106601717798" y1="109.81066017178" x2="38.0" y2="110.049038105677"/>
    <line x1="38.0" y1="110.049038105677" x2="37.6382285676537" y2="110.198888739434"/>
    <line x1="37.6382285676537" y1="110.198888739434" x2="37.25" y2="110.25"/>
    <line x1="37.25" y1="110.25" x2="36.8617714323462" y2="110.198888739434"/>
    <line x1="36.8617714323462" y1="110.198888739434" x2="36.5" y2="110.049038105677"/>
    <line x1="36.5" y1="110.049038105677" x2="36.1893398282202" y2="109.81066017178"/>
    <line x1="36.1893398282202" y1="109.81066017178" x2="35.9509618943233" y2="109.5"/>
    <line x1="35.9509618943233" y1="109.5" x2="35.8011112605664" y2="109.138228567654"/>
    <line x1="35.8011112605664" y1="109.138228567654" x2="35.75" y2="108.75"/>
    <line x1="35.75" y1="108.75" x2="35.8011112605664" y2="108.361771432346"/>
    <line x1="35.8011112605664" y1="108.361771432346" x2="35.9509618943233" y2="108.0"/>
    <line x1="35.9509618943233" y1="108.0" x2="36.1893398282202" y2="107.68933982822"/>
    <line x1="36.1893398282202" y1="107.68933982822" x2="36.5" y2="107.450961894323"/>
    <line x1="36.5" y1="107.450961894323" x2="36.8617714323462" y2="107.301111260567"/>
    <line x1="36.8617714323462" y1="107.301111260567" x2="37.25" y2="107.25"/>
    <line x1="37.25" y1="107.25" x2="37.6382285676538" y2="107.301111260567"/>
    <line x1="37.6382285676538" y1="107.301111260567" x2="38.0" y2="107.450961894324"/>
    <line x1="38.0" y1="107.450961894324" x2="38.3106601717798" y2="107.68933982822"/>
    <line x1="38.3106601717798" y1="107.68933982822" x2="38.5490381056767" y2="108.0"/>
    <line x1="109.81066017178" y1="109.81066017178" x2="109.5" y2="110.049038105677"/>
    <line x1="109.5" y1="110.049038105677" x2="109.138228567654" y2="110.198888739434"/>
    <line x1="109.138228567654" y1="110.198888739434" x2="108.75" y2="110.25"/>
    <line x1="108.75" y1="110.25" x2="108.361771432346" y2="110.198888739434"/>
    <line x1="108.361771432346" y1="110.198888739434" x2="108.0" y2="110.049038105677"/>
    <line x1="108.0" y1="110.049038105677" x2="107.68933982822" y2="109.81066017178"/>
    <line x1="107.68933982822" y1="109.81066017178" x2="107.450961894323" y2="109.5"/>
    <line x1="107.450961894323" y1="109.5" x2="107.301111260566" y2="109.138228567654"/>
    <line x1="107.301111260566" y1="109.138228567654" x2="107.25" y2="108.75"/>
    <line x1="107.25" y1="108.75" x2="107.301111260566" y2="108.361771432346"/>
    <line x1="107.301111260566" y1="108.361771432346" x2="107.450961894323" y2="108.0"/>
    <line x1="107.450961894323" y1="108.0" x2="107.68933982822" y2="107.68933982822"/>
    <line x1="107.68933982822" y1="107.68933982822" x2="108.0" y2="107.450961894323"/>
    <line x1="108.0" y1="107.450961894323" x2="108.361771432346" y2="107.301111260567"/>
    <line x1="108.361771432346" y1="107.301111260567" x2="108.75" y2="107.25"/>
    <line x1="108.75" y1="107.25" x2="109.138228567654" y2="107.301111260567"/>
    <line x1="109.138228567654" y1="107.301111260567" x2="109.5" y2="107.450961894324"/>
    <line x1="109.5" y1="107.450961894324" x2="109.81066017178" y2="107.68933982822"/>
    <line x1="109.81066017178" y1="107.68933982822" x2="110.049038105677" y2="108.0"/>
    <line x1="110.049038105677" y1="108.0" x2="110.198888739434" y2="108.361771432346"/>
    <line x1="110.198888739434" y1="108.361771432346" x2="110.25" y2="108.75"/>
    <line x1="110.25" y1="108.75" x2="110.198888739434" y2="109.138228567654"/>
    <line x1="110.198888739434" y1="109.138228567654" x2="110.049038105677" y2="109.5"/>
    <line x1="110.049038105677" y1="109.5" x2="109.81066017178" y2="109.81066017178"/>
    <line x1="22.8195290205991" y1="125.738310304018" x2="22.5697779643375" y2="126.341262691261"/>
    <line x1="22.5697779643375" y1="126.341262691261" x2="22.1724814078428" y2="126.859029644228"/>
    <line x1="22.1724814078428" y1="126.859029644228" x2="21.6547144548764" y2="127.256326200723"/>
    <line x1="21.6547144548764" y1="127.256326200723" x2="21.0517620676327" y2="127.506077256984"/>
    <line x1="21.0517620676327" y1="127.506077256984" x2="20.4047144548764" y2="127.591262691261"/>
    <line x1="20.4047144548764" y1="127.591262691261" x2="19.7576668421201" y2="127.506077256984"/>
    <line x1="19.7576668421201" y1="127.506077256984" x2="19.1547144548764" y2="127.256326200723"/>
    <line x1="19.1547144548764" y1="127.256326200723" x2="18.6369475019101" y2="126.859029644228"/>
    <line x1="18.6369475019101" y1="126.859029644228" x2="18.2396509454153" y2="126.341262691261"/>
    <line x1="18.2396509454153" y1="126.341262691261" x2="17.9898998891537" y2="125.738310304018"/>
    <line x1="17.9898998891537" y1="125.738310304018" x2="17.9047144548765" y2="125.091262691261"/>
    <line x1="17.9047144548765" y1="125.091262691261" x2="17.9898998891537" y2="124.444215078505"/>
    <line x1="17.9898998891537" y1="124.444215078505" x2="18.2396509454153" y2="123.841262691261"/>
    <line x1="18.2396509454153" y1="123.841262691261" x2="18.6369475019101" y2="123.323495738295"/>
    <line x1="18.6369475019101" y1="123.323495738295" x2="19.1547144548764" y2="122.9261991818"/>
    <line x1="19.1547144548764" y1="122.9261991818" x2="19.7576668421201" y2="122.676448125539"/>
    <line x1="19.7576668421201" y1="122.676448125539" x2="20.4047144548764" y2="122.591262691261"/>
    <line x1="20.4047144548764" y1="122.591262691261" x2="21.0517620676327" y2="122.676448125539"/>
    <line x1="21.0517620676327" y1="122.676448125539" x2="21.6547144548764" y2="122.9261991818"/>
    <line x1="21.6547144548764" y1="122.9261991818" x2="22.1724814078428" y2="123.323495738295"/>
    <line x1="22.1724814078428" y1="123.323495738295" x2="22.5697779643375" y2="123.841262691261"/>
    <line x1="22.5697779643375" y1="123.841262691261" x2="22.8195290205991" y2="124.444215078505"/>
    <line x1="22.8195290205991" y1="124.444215078505" x2="22.9047144548764" y2="125.091262691261"/>
    <line x1="22.9047144548764" y1="125.091262691261" x2="22.8195290205991" y2="125.738310304018"/>
  </g>
  <g id="face1" fill="none" stroke="rgb(0,0,255)" stroke-width="1" stroke-miterlimit="4" stroke-dasharray="none" stroke-linejoin="round" stroke-linecap="round">
    <line x1="12.9999999999999" y1="269.0" x2="55.0" y2="269.0"/>
    <line x1="55.0" y1="269.0" x2="55.0" y2="267.0"/>
    <line x1="55.0" y1="267.0" x2="53.7" y2="267.0"/>
    <line x1="53.7" y1="267.0" x2="53.7" y2="264.8"/>
    <line x1="53.7" y1="264.8" x2="55.0" y2="264.8"/>
    <line x1="55.0" y1="264.8" x2="55.0" y2="261.8"/>
    <line x1="55.0" y1="261.8" x2="58.0" y2="261.8"/>
    <line x1="58.0" y1="261.8" x2="58.0" y2="264.8"/>
    <line x1="58.0" y1="264.8" x2="59.3" y2="264.8"/>
    <line x1="59.3" y1="264.8" x2="59.3" y2="267.0"/>
    <line x1="59.3" y1="267.0" x2="58.0" y2="267.0"/>
    <line x1="58.0" y1="267.0" x2="58.0" y2="269.0"/>
    <line x1="58.0" y1="269.0" x2="86.0" y2="269.0"/>
    <line x1="86.0" y1="269.0" x2="86.0" y2="272.0"/>
    <line x1="86.0" y1="272.0" x2="96.0000000000001" y2="272.0"/>
    <line x1="96.0000000000001" y1="272.0" x2="96.0000000000001" y2="269.0"/>
    <line x1="96.0000000000001" y1="269.0" x2="106.0" y2="269.0"/>
    <line x1="106.0" y1="269.0" x2="106.0" y2="256.0"/>
    <line x1="106.0" y1="256.0" x2="109.0" y2="256.0"/>
    <line x1="109.0" y1="256.0" x2="109.0" y2="236.0"/>
    <line x1="109.0" y1="236.0" x2="106.0" y2="236.0"/>
    <line x1="106.0" y1="236.0" x2="106.0" y2="215.5"/>
    <line x1="106.0" y1="215.5" x2="104.0" y2="215.5"/>
    <line x1="104.0" y1="215.5" x2="104.0" y2="216.8"/>
    <line x1="104.0" y1="216.8" x2="101.78" y2="216.8"/>
    <line x1="101.78" y1="216.8" x2="101.78" y2="215.5"/>
    <line x1="101.78" y1="215.5" x2="98.7800000000001" y2="215.5"/>
    <line x1="98.7800000000001" y1="215.5" x2="98.7800000000001" y2="212.5"/>
    <line x1="98.7800000000001" y1="212.5" x2="101.78" y2="212.5"/>
    <line x1="101.78" y1="212.5" x2="101.78" y2="211.2"/>
    <line x1="101.78" y1="211.2" x2="103.98" y2="211.2"/>
    <line x1="103.98" y1="211.2" x2="103.98" y2="212.5"/>
    <line x1="103.98" y1="212.5" x2="106.0" y2="212.5"/>
    <line x1="106.0" y1="212.5" x2="106.0" y2="192.0"/>
    <line x1="106.0" y1="192.0" x2="109.0" y2="192.0"/>
    <line x1="109.0" y1="192.0" x2="109.0" y2="162.0"/>
    <line x1="109.0" y1="162.0" x2="106.0" y2="162.0"/>
    <line x1="106.0" y1="162.0" x2="106.0" y2="149.0"/>
    <line x1="106.0" y1="149.0" x2="96.0000000000001" y2="149.0"/>
    <line x1="96.0000000000001" y1="149.0" x2="96.0000000000001" y2="146.0"/>
    <line x1="96.0000000000001" y1="146.0" x2="86.0" y2="146.0"/>
    <line x1="86.0" y1="146.0" x2="86.0000000000001" y2="149.0"/>
    <line x1="86.0000000000001" y1="149.0" x2="58.0" y2="149.0"/>
    <line x1="58.0" y1="149.0" x2="58.0" y2="151.0"/>
    <line x1="58.0" y1="151.0" x2="59.3" y2="151.0"/>
    <line x1="59.3" y1="151.0" x2="59.3" y2="153.2"/>
    <line x1="59.3" y1="153.2" x2="58.0" y2="153.2"/>
    <line x1="58.0" y1="153.2" x2="58.0" y2="156.2"/>
    <line x1="58.0" y1="156.2" x2="55.0" y2="156.2"/>
    <line x1="55.0" y1="156.2" x2="55.0" y2="153.2"/>
    <line x1="55.0" y1="153.2" x2="53.7" y2="153.2"/>
    <line x1="53.7" y1="153.2" x2="53.7" y2="151.0"/>
    <line x1="53.7" y1="151.0" x2="55.0" y2="151.0"/>
    <line x1="55.0" y1="151.0" x2="55.0" y2="149.0"/>
    <line x1="55.0" y1="149.0" x2="12.9999999999999" y2="149.0"/>
    <line x1="12.9999999999999" y1="149.0" x2="12.9999999999999" y2="155.5"/>
    <line x1="12.9999999999999" y1="155.5" x2="10.0" y2="155.5"/>
    <line x1="10.0" y1="155.5" x2="10.0" y2="162.0"/>
    <line x1="10.0" y1="162.0" x2="43.0" y2="162.0"/>
    <line x1="43.0" y1="162.0" x2="46.0243228592073" y2="169.477553463425"/>
    <line x1="46.0243228592073" y1="169.477553463425" x2="48.5191586407447" y2="177.148024699161"/>
    <line x1="48.5191586407447" y1="177.148024699161" x2="50.4723295012993" y2="184.973972446532"/>
    <line x1="50.4723295012993" y1="184.973972446532" x2="51.8743015834209" y2="192.91719652974"/>
    <line x1="51.8743015834209" y1="192.91719652974" x2="52.7182315523816" y2="200.938924321344"/>
    <line x1="52.7182315523816" y1="200.938924321344" x2="53.0" y2="209.0"/>
    <line x1="53.0" y1="209.0" x2="52.7182315523816" y2="217.061075678656"/>
    <line x1="52.7182315523816" y1="217.061075678656" x2="51.874301583421" y2="225.08280347026"/>
    <line x1="51.874301583421" y1="225.08280347026" x2="50.4723295012993" y2="233.026027553468"/>
    <line x1="50.4723295012993" y1="233.026027553468" x2="48.5191586407447" y2="240.851975300839"/>
    <line x1="48.5191586407447" y1="240.851975300839" x2="46.0243228592073" y2="248.522446536575"/>
    <line x1="46.0243228592073" y1="248.522446536575" x2="43.0" y2="256.0"/>
    <line x1="43.0" y1="256.0" x2="10.0" y2="256.0"/>
    <line x1="10.0" y1="256.0" x2="10.0" y2="262.5"/>
    <line x1="10.0" y1="262.5" x2="12.9999999999999" y2="262.5"/>
    <line x1="12.9999999999999" y1="262.5" x2="12.9999999999999" y2="269.0"/>
    <line x1="73.0000000000001" y1="236.0" x2="76.0" y2="236.0"/>
    <line x1="76.0" y1="236.0" x2="76.0" y2="256.0"/>
    <line x1="76.0" y1="256.0" x2="73.0000000000001" y2="256.0"/>
    <line x1="73.0000000000001" y1="256.0" x2="73.0000000000001" y2="236.0"/>
    <line x1="73.0000000000001" y1="162.0" x2="76.0000000000001" y2="162.0"/>
    <line x1="76.0000000000001" y1="162.0" x2="76.0000000000001" y2="192.0"/>
    <line x1="76.0000000000001" y1="192.0" x2="73.0000000000001" y2="192.0"/>
    <line x1="73.0000000000001" y1="192.0" x2="73.0000000000001" y2="162.0"/>
  </g>
  <g id="face2" fill="none" stroke="rgb(0,0,255)" stroke-width="1" stroke-miterlimit="4" stroke-dasharray="none" stroke-linejoin="round" stroke-linecap="round">
    <line x1="13.0" y1="392.0" x2="13.0" y2="405.0"/>
    <line x1="13.0" y1="405.0" x2="23.0" y2="405.0"/>
    <line x1="23.0" y1="405.0" x2="23.0" y2="408.0"/>
    <line x1="23.0" y1="408.0" x2="33.0" y2="408.0"/>
    <line x1="33.0" y1="408.0" x2="33.0" y2="405.0"/>
    <line x1="33.0" y1="405.0" x2="61.0000000000001" y2="405.0"/>
    <line x1="61.0000000000001" y1="405.0" x2="61.0000000000001" y2="403.0"/>
    <line x1="61.0000000000001" y1="403.0" x2="59.7000000000001" y2="403.0"/>
    <line x1="59.7000000000001" y1="403.0" x2="59.7000000000001" y2="400.8"/>
    <line x1="59.7000000000001" y1="400.8" x2="61.0000000000001" y2="400.8"/>
    <line x1="61.0000000000001" y1="400.8" x2="61.0000000000001" y2="397.8"/>
    <line x1="61.0000000000001" y1="397.8" x2="64.0000000000001" y2="397.8"/>
    <line x1="64.0000000000001" y1="397.8" x2="64.0000000000001" y2="400.8"/>
    <line x1="64.0000000000001" y1="400.8" x2="65.3000000000001" y2="400.8"/>
    <line x1="65.3000000000001" y1="400.8" x2="65.3000000000001" y2="403.0"/>
    <line x1="65.3000000000001" y1="403.0" x2="64.0000000000001" y2="403.0"/>
    <line x1="64.0000000000001" y1="403.0" x2="64.0000000000001" y2="405.0"/>
    <line x1="64.0000000000001" y1="405.0" x2="106.0" y2="405.0"/>
    <line x1="106.0" y1="405.0" x2="106.0" y2="398.5"/>
    <line x1="106.0" y1="398.5" x2="109.0" y2="398.5"/>
    <line x1="109.0" y1="398.5" x2="109.0" y2="392.0"/>
    <line x1="109.0" y1="392.0" x2="76.0000000000001" y2="392.0"/>
    <line x1="76.0000000000001" y1="392.0" x2="72.9756771407928" y2="384.522446536575"/>
    <line x1="72.9756771407928" y1="384.522446536575" x2="70.4808413592555" y2="376.851975300839"/>
    <line x1="70.4808413592555" y1="376.851975300839" x2="68.5276704987009" y2="369.026027553468"/>
    <line x1="68.5276704987009" y1="369.026027553468" x2="67.1256984165791" y2="361.08280347026"/>
    <line x1="67.1256984165791" y1="361.08280347026" x2="66.2817684476185" y2="353.061075678656"/>
    <line x1="66.2817684476185" y1="353.061075678656" x2="66.0" y2="345.0"/>
    <line x1="66.0" y1="345.0" x2="66.2817684476185" y2="336.938924321344"/>
    <line x1="66.2817684476185" y1="336.938924321344" x2="67.1256984165791" y2="328.91719652974"/>
    <line x1="67.1256984165791" y1="328.91719652974" x2="68.5276704987009" y2="320.973972446532"/>
    <line x1="68.5276704987009" y1="320.973972446532" x2="70.4808413592555" y2="313.148024699161"/>
    <line x1="70.4808413592555" y1="313.148024699161" x2="72.9756771407928" y2="305.477553463425"/>
    <line x1="72.9756771407928" y1="305.477553463425" x2="76.0000000000001" y2="298.0"/>
    <line x1="76.0000000000001" y1="298.0" x2="109.0" y2="298.0"/>
    <line x1="109.0" y1="298.0" x2="109.0" y2="291.5"/>
    <line x1="109.0" y1="291.5" x2="106.0" y2="291.5"/>
    <line x1="106.0" y1="291.5" x2="106.0" y2="285.0"/>
    <line x1="106.0" y1="285.0" x2="64.0000000000001" y2="285.0"/>
    <line x1="64.0000000000001" y1="285.0" x2="64.0000000000001" y2="287.0"/>
    <line x1="64.0000000000001" y1="287.0" x2="65.3000000000001" y2="287.0"/>
    <line x1="65.3000000000001" y1="287.0" x2="65.3000000000001" y2="289.2"/>
    <line x1="65.3000000000001" y1="289.2" x2="64.0000000000001" y2="289.2"/>
    <line x1="64.0000000000001" y1="289.2" x2="64.0000000000001" y2="292.2"/>
    <line x1="64.0000000000001" y1="292.2" x2="61.0000000000001" y2="292.2"/>
    <line x1="61.0000000000001" y1="292.2" x2="61.0000000000001" y2="289.2"/>
    <line x1="61.0000000000001" y1="289.2" x2="59.7000000000001" y2="289.2"/>
    <line x1="59.7000000000001" y1="289.2" x2="59.7000000000001" y2="287.0"/>
    <line x1="59.7000000000001" y1="287.0" x2="61.0000000000001" y2="287.0"/>
    <line x1="61.0000000000001" y1="287.0" x2="61.0000000000001" y2="285.0"/>
    <line x1="61.0000000000001" y1="285.0" x2="33.0" y2="285.0"/>
    <line x1="33.0" y1="285.0" x2="33.0" y2="282.0"/>
    <line x1="33.0" y1="282.0" x2="23.0" y2="282.0"/>
    <line x1="23.0" y1="282.0" x2="23.0" y2="285.0"/>
    <line x1="23.0" y1="285.0" x2="13.0" y2="285.0"/>
    <line x1="13.0" y1="285.0" x2="13.0" y2="298.0"/>
    <line x1="13.0" y1="298.0" x2="10.0" y2="298.0"/>
    <line x1="10.0" y1="298.0" x2="10.0" y2="328.0"/>
    <line x1="10.0" y1="328.0" x2="13.0" y2="328.0"/>
    <line x1="13.0" y1="328.0" x2="13.0" y2="348.5"/>
    <line x1="13.0" y1="348.5" x2="15.02" y2="348.5"/>
    <line x1="15.02" y1="348.5" x2="15.02" y2="347.2"/>
    <line x1="15.02" y1="347.2" x2="17.22" y2="347.2"/>
    <line x1="17.22" y1="347.2" x2="17.22" y2="348.5"/>
    <line x1="17.22" y1="348.5" x2="20.22" y2="348.5"/>
    <line x1="20.22" y1="348.5" x2="20.22" y2="351.5"/>
    <line x1="20.22" y1="351.5" x2="17.22" y2="351.5"/>
    <line x1="17.22" y1="351.5" x2="17.22" y2="352.8"/>
    <line x1="17.22" y1="352.8" x2="15.0" y2="352.8"/>
    <line x1="15.0" y1="352.8" x2="15.0" y2="351.5"/>
    <line x1="15.0" y1="351.5" x2="13.0" y2="351.5"/>
    <line x1="13.0" y1="351.5" x2="13.0" y2="372.0"/>
    <line x1="13.0" y1="372.0" x2="10.0" y2="372.0"/>
    <line x1="10.0" y1="372.0" x2="10.0" y2="392.0"/>
    <line x1="10.0" y1="392.0" x2="13.0" y2="392.0"/>
    <line x1="43.0000000000001" y1="372.0" x2="46.0" y2="372.0"/>
    <line x1="46.0" y1="372.0" x2="46.0" y2="392.0"/>
    <line x1="46.0" y1="392.0" x2="43.0000000000001" y2="392.0"/>
    <line x1="43.0000000000001" y1="392.0" x2="43.0000000000001" y2="372.0"/>
    <line x1="43.0" y1="298.0" x2="46.0" y2="298.0"/>
    <line x1="46.0" y1="298.0" x2="46.0" y2="328.0"/>
    <line x1="46.0" y1="328.0" x2="43.0" y2="328.0"/>
    <line x1="43.0" y1="328.0" x2="43.0" y2="298.0"/>
  </g>
  <g id="face3" fill="none" stroke="rgb(0,0,255)" stroke-width="1" stroke-miterlimit="4" stroke-dasharray="none" stroke-linejoin="round" stroke-linecap="round">
    <line x1="10.0" y1="418.0" x2="10.0" y2="550.0"/>
    <line x1="10.0" y1="550.0" x2="142.0" y2="550.0"/>
    <line x1="142.0" y1="550.0" x2="142.0" y2="418.0"/>
    <line x1="142.0" y1="418.0" x2="10.0" y2="418.0"/>
    <line x1="126.0" y1="547.0" x2="106.0" y2="547.0"/>
    <line x1="106.0" y1="547.0" x2="106.0" y2="544.0"/>
    <line x1="106.0" y1="544.0" x2="126.0" y2="544.0"/>
    <line x1="126.0" y1="544.0" x2="126.0" y2="547.0"/>
    <line x1="82.7009618943233" y1="546.25" x2="82.5511112605664" y2="545.888228567654"/>
    <line x1="82.5511112605664" y1="545.888228567654" x2="82.5" y2="545.5"/>
    <line x1="82.5" y1="545.5" x2="82.5511112605664" y2="545.111771432346"/>
    <line x1="82.5511112605664" y1="545.111771432346" x2="82.7009618943233" y2="544.75"/>
    <line x1="82.7009618943233" y1="544.75" x2="82.9393398282202" y2="544.43933982822"/>
    <line x1="82.9393398282202" y1="544.43933982822" x2="83.25" y2="544.200961894323"/>
    <line x1="83.25" y1="544.200961894323" x2="83.6117714323462" y2="544.051111260567"/>
    <line x1="83.6117714323462" y1="544.051111260567" x2="84.0" y2="544.0"/>
    <line x1="84.0" y1="544.0" x2="84.3882285676538" y2="544.051111260567"/>
    <line x1="84.3882285676538" y1="544.051111260567" x2="84.75" y2="544.200961894324"/>
    <line x1="84.75" y1="544.200961894324" x2="85.0606601717798" y2="544.43933982822"/>
    <line x1="85.0606601717798" y1="544.43933982822" x2="85.2990381056767" y2="544.75"/>
    <line x1="85.2990381056767" y1="544.75" x2="85.4488887394336" y2="545.111771432346"/>
    <line x1="85.4488887394336" y1="545.111771432346" x2="85.5" y2="545.5"/>
    <line x1="85.5" y1="545.5" x2="85.4488887394336" y2="545.888228567654"/>
    <line x1="85.4488887394336" y1="545.888228567654" x2="85.2990381056767" y2="546.25"/>
    <line x1="85.2990381056767" y1="546.25" x2="85.0606601717798" y2="546.56066017178"/>
    <line x1="85.0606601717798" y1="546.56066017178" x2="84.75" y2="546.799038105677"/>
    <line x1="84.75" y1="546.799038105677" x2="84.3882285676538" y2="546.948888739434"/>
    <line x1="84.3882285676538" y1="546.948888739434" x2="84.0" y2="547.0"/>
    <line x1="84.0" y1="547.0" x2="83.6117714323462" y2="546.948888739434"/>
    <line x1="83.6117714323462" y1="546.948888739434" x2="83.25" y2="546.799038105677"/>
    <line x1="83.25" y1="546.799038105677" x2="82.9393398282202" y2="546.56066017178"/>
    <line x1="82.9393398282202" y1="546.56066017178" x2="82.7009618943233" y2="546.25"/>
    <line x1="138.999999999995" y1="531.0" x2="135.999999999986" y2="531.0"/>
    <line x1="135.999999999986" y1="531.0" x2="135.999999999986" y2="501.000000000001"/>
    <line x1="135.999999999986" y1="501.000000000001" x2="138.999999999995" y2="501.000000000001"/>
    <line x1="138.999999999995" y1="501.000000000001" x2="138.999999999995" y2="531.0"/>
    <line x1="19.5365843720567" y1="536.796602134136" x2="19.9607346676548" y2="537.292609894288"/>
    <line x1="19.9607346676548" y1="537.292609894288" x2="20.2420561375552" y2="537.881494774345"/>
    <line x1="20.2420561375552" y1="537.881494774345" x2="20.3613771884899" y2="538.523125242909"/>
    <line x1="20.3613771884899" y1="538.523125242909" x2="20.3105662880252" y2="539.173775243894"/>
    <line x1="20.3105662880252" y1="539.173775243894" x2="20.0930861150586" y2="539.78910405498"/>
    <line x1="20.0930861150586" y1="539.78910405498" x2="19.723757583975" y2="540.327178034572"/>
    <line x1="19.723757583975" y1="540.327178034572" x2="19.2277498238233" y2="540.75132833017"/>
    <line x1="19.2277498238233" y1="540.75132833017" x2="18.6388649437663" y2="541.032649800071"/>
    <line x1="18.6388649437663" y1="541.032649800071" x2="17.9972344752017" y2="541.151970851006"/>
    <line x1="17.9972344752017" y1="541.151970851006" x2="17.3465844742176" y2="541.101159950541"/>
    <line x1="17.3465844742176" y1="541.101159950541" x2="16.7312556631311" y2="540.883679777574"/>
    <line x1="16.7312556631311" y1="540.883679777574" x2="16.1931816835389" y2="540.514351246491"/>
    <line x1="16.1931816835389" y1="540.514351246491" x2="15.7690313879408" y2="540.018343486339"/>
    <line x1="15.7690313879408" y1="540.018343486339" x2="15.4877099180404" y2="539.429458606282"/>
    <line x1="15.4877099180404" y1="539.429458606282" x2="15.3683888671056" y2="538.787828137717"/>
    <line x1="15.3683888671056" y1="538.787828137717" x2="15.4191997675704" y2="538.137178136733"/>
    <line x1="15.4191997675704" y1="538.137178136733" x2="15.636679940537" y2="537.521849325647"/>
    <line x1="15.636679940537" y1="537.521849325647" x2="16.0060084716206" y2="536.983775346054"/>
    <line x1="16.0060084716206" y1="536.983775346054" x2="16.5020162317724" y2="536.559625050456"/>
    <line x1="16.5020162317724" y1="536.559625050456" x2="17.0909011118293" y2="536.278303580556"/>
    <line x1="17.0909011118293" y1="536.278303580556" x2="17.7325315803939" y2="536.158982529621"/>
    <line x1="17.7325315803939" y1="536.158982529621" x2="18.383181581378" y2="536.209793430086"/>
    <line x1="18.383181581378" y1="536.209793430086" x2="18.9985103924645" y2="536.427273603053"/>
    <line x1="18.9985103924645" y1="536.427273603053" x2="19.5365843720567" y2="536.796602134136"/>
    <line x1="56.0" y1="544.0" x2="56.0" y2="547.0"/>
    <line x1="56.0" y1="547.0" x2="26.0" y2="547.0"/>
    <line x1="26.0" y1="547.0" x2="26.0" y2="544.0"/>
    <line x1="26.0" y1="544.0" x2="56.0" y2="544.0"/>
    <line x1="13.0511112605664" y1="489.388228567654" x2="13.0" y2="489.0"/>
    <line x1="13.0" y1="489.0" x2="13.0511112605664" y2="488.611771432346"/>
    <line x1="13.0511112605664" y1="488.611771432346" x2="13.2009618943233" y2="488.25"/>
    <line x1="13.2009618943233" y1="488.25" x2="13.4393398282202" y2="487.93933982822"/>
    <line x1="13.4393398282202" y1="487.93933982822" x2="13.75" y2="487.700961894323"/>
    <line x1="13.75" y1="487.700961894323" x2="14.1117714323462" y2="487.551111260567"/>
    <line x1="14.1117714323462" y1="487.551111260567" x2="14.5" y2="487.5"/>
    <line x1="14.5" y1="487.5" x2="14.8882285676538" y2="487.551111260567"/>
    <line x1="14.8882285676538" y1="487.551111260567" x2="15.25" y2="487.700961894323"/>
    <line x1="15.25" y1="487.700961894323" x2="15.5606601717798" y2="487.93933982822"/>
    <line x1="15.5606601717798" y1="487.93933982822" x2="15.7990381056766" y2="488.25"/>
    <line x1="15.7990381056766" y1="488.25" x2="15.9488887394336" y2="488.611771432346"/>
    <line x1="15.9488887394336" y1="488.611771432346" x2="16.0" y2="489.0"/>
    <line x1="16.0" y1="489.0" x2="15.9488887394336" y2="489.388228567654"/>
    <line x1="15.9488887394336" y1="489.388228567654" x2="15.7990381056767" y2="489.75"/>
    <line x1="15.7990381056767" y1="489.75" x2="15.5606601717798" y2="490.06066017178"/>
    <line x1="15.5606601717798" y1="490.06066017178" x2="15.25" y2="490.299038105677"/>
    <line x1="15.25" y1="490.299038105677" x2="14.8882285676538" y2="490.448888739434"/>
    <line x1="14.8882285676538" y1="490.448888739434" x2="14.5" y2="490.5"/>
    <line x1="14.5" y1="490.5" x2="14.1117714323462" y2="490.448888739434"/>
    <line x1="14.1117714323462" y1="490.448888739434" x2="13.75" y2="490.299038105677"/>
    <line x1="13.75" y1="490.299038105677" x2="13.4393398282202" y2="490.06066017178"/>
    <line x1="13.4393398282202" y1="490.06066017178" x2="13.2009618943233" y2="489.75"/>
    <line x1="13.2009618943233" y1="489.75" x2="13.0511112605664" y2="489.388228567654"/>
    <line x1="13.0" y1="511.0" x2="16.0" y2="511.0"/>
    <line x1="16.0" y1="511.0" x2="16.0" y2="531.0"/>
    <line x1="16.0" y1="531.0" x2="13.0" y2="531.0"/>
    <line x1="13.0" y1="531.0" x2="13.0" y2="511.0"/>
    <line x1="67.6117714323462" y1="421.051111260566" x2="68.0" y2="421.0"/>
    <line x1="68.0" y1="421.0" x2="68.3882285676538" y2="421.051111260567"/>
    <line x1="68.3882285676538" y1="421.051111260567" x2="68.75" y2="421.200961894323"/>
    <line x1="68.75" y1="421.200961894323" x2="69.0606601717798" y2="421.43933982822"/>
    <line x1="69.0606601717798" y1="421.43933982822" x2="69.2990381056767" y2="421.75"/>
    <line x1="69.2990381056767" y1="421.75" x2="69.4488887394336" y2="422.111771432346"/>
    <line x1="69.4488887394336" y1="422.111771432346" x2="69.5" y2="422.5"/>
    <line x1="69.5" y1="422.5" x2="69.4488887394336" y2="422.888228567654"/>
    <line x1="69.4488887394336" y1="422.888228567654" x2="69.2990381056767" y2="423.25"/>
    <line x1="69.2990381056767" y1="423.25" x2="69.0606601717798" y2="423.56066017178"/>
    <line x1="69.0606601717798" y1="423.56066017178" x2="68.75" y2="423.799038105677"/>
    <line x1="68.75" y1="423.799038105677" x2="68.3882285676538" y2="423.948888739434"/>
    <line x1="68.3882285676538" y1="423.948888739434" x2="68.0" y2="424.0"/>
    <line x1="68.0" y1="424.0" x2="67.6117714323462" y2="423.948888739434"/>
    <line x1="67.6117714323462" y1="423.948888739434" x2="67.25" y2="423.799038105677"/>
    <line x1="67.25" y1="423.799038105677" x2="66.9393398282202" y2="423.56066017178"/>
    <line x1="66.9393398282202" y1="423.56066017178" x2="66.7009618943234" y2="423.25"/>
    <line x1="66.7009618943234" y1="423.25" x2="66.5511112605664" y2="422.888228567654"/>
    <line x1="66.5511112605664" y1="422.888228567654" x2="66.5" y2="422.5"/>
    <line x1="66.5" y1="422.5" x2="66.5511112605664" y2="422.111771432346"/>
    <line x1="66.5511112605664" y1="422.111771432346" x2="66.7009618943234" y2="421.75"/>
    <line x1="66.7009618943234" y1="421.75" x2="66.9393398282202" y2="421.43933982822"/>
    <line x1="66.9393398282202" y1="421.43933982822" x2="67.25" y2="421.200961894323"/>
    <line x1="67.25" y1="421.200961894323" x2="67.6117714323462" y2="421.051111260566"/>
    <line x1="16.0" y1="467.0" x2="13.0" y2="467.0"/>
    <line x1="13.0" y1="467.0" x2="13.0" y2="437.0"/>
    <line x1="13.0" y1="437.0" x2="16.0" y2="437.0"/>
    <line x1="16.0" y1="437.0" x2="16.0" y2="467.0"/>
    <line x1="46.0" y1="421.0" x2="46.0" y2="424.0"/>
    <line x1="46.0" y1="424.0" x2="26.0" y2="424.0"/>
    <line x1="26.0" y1="424.0" x2="26.0" y2="421.0"/>
    <line x1="26.0" y1="421.0" x2="46.0" y2="421.0"/>
    <line x1="136.000000000008" y1="437.000000000001" x2="139.000000000014" y2="437.000000000001"/>
    <line x1="139.000000000014" y1="437.000000000001" x2="139.000000000014" y2="457.0"/>
    <line x1="139.000000000014" y1="457.0" x2="136.000000000008" y2="457.0"/>
    <line x1="136.000000000008" y1="457.0" x2="136.000000000008" y2="437.000000000001"/>
    <line x1="136.750000000004" y1="477.700961894323" x2="137.11177143235" y2="477.551111260566"/>
    <line x1="137.11177143235" y1="477.551111260566" x2="137.500000000004" y2="477.5"/>
    <line x1="137.500000000004" y1="477.5" x2="137.888228567657" y2="477.551111260566"/>
    <line x1="137.888228567657" y1="477.551111260566" x2="138.250000000004" y2="477.700961894323"/>
    <line x1="138.250000000004" y1="477.700961894323" x2="138.560660171783" y2="477.93933982822"/>
    <line x1="138.560660171783" y1="477.93933982822" x2="138.79903810568" y2="478.25"/>
    <line x1="138.79903810568" y1="478.25" x2="138.948888739437" y2="478.611771432346"/>
    <line x1="138.948888739437" y1="478.611771432346" x2="139.000000000003" y2="479.0"/>
    <line x1="139.000000000003" y1="479.0" x2="138.948888739437" y2="479.388228567654"/>
    <line x1="138.948888739437" y1="479.388228567654" x2="138.799038105679" y2="479.75"/>
    <line x1="138.799038105679" y1="479.75" x2="138.560660171783" y2="480.06066017178"/>
    <line x1="138.560660171783" y1="480.06066017178" x2="138.250000000003" y2="480.299038105677"/>
    <line x1="138.250000000003" y1="480.299038105677" x2="137.888228567656" y2="480.448888739433"/>
    <line x1="137.888228567656" y1="480.448888739433" x2="137.500000000003" y2="480.5"/>
    <line x1="137.500000000003" y1="480.5" x2="137.111771432349" y2="480.448888739433"/>
    <line x1="137.111771432349" y1="480.448888739433" x2="136.750000000003" y2="480.299038105676"/>
    <line x1="136.750000000003" y1="480.299038105676" x2="136.439339828223" y2="480.060660171779"/>
    <line x1="136.439339828223" y1="480.060660171779" x2="136.200961894326" y2="479.749999999999"/>
    <line x1="136.200961894326" y1="479.749999999999" x2="136.051111260569" y2="479.388228567653"/>
    <line x1="136.051111260569" y1="479.388228567653" x2="136.000000000003" y2="478.999999999999"/>
    <line x1="136.000000000003" y1="478.999999999999" x2="136.05111126057" y2="478.611771432345"/>
    <line x1="136.05111126057" y1="478.611771432345" x2="136.200961894327" y2="478.249999999999"/>
    <line x1="136.200961894327" y1="478.249999999999" x2="136.439339828224" y2="477.939339828219"/>
    <line x1="136.439339828224" y1="477.939339828219" x2="136.750000000004" y2="477.700961894323"/>
    <line x1="126.0" y1="424.0" x2="96.0" y2="424.0"/>
    <line x1="96.0" y1="424.0" x2="96.0" y2="421.0"/>
    <line x1="96.0" y1="421.0" x2="126.0" y2="420.999999999999"/>
    <line x1="126.0" y1="420.999999999999" x2="126.0" y2="424.0"/>
    <line x1="73.0511112605664" y1="456.638228567653" x2="73.0511112605664" y2="451.638228567653"/>
    <line x1="73.0511112605664" y1="451.638228567653" x2="76.0511112605664" y2="451.638228567653"/>
    <line x1="76.0511112605664" y1="451.638228567653" x2="76.0511112605664" y2="456.638228567653"/>
    <line x1="76.0511112605664" y1="456.638228567653" x2="73.0511112605664" y2="456.638228567653"/>
    <line x1="42.8011112605664" y1="484.888228567652" x2="42.8011112605664" y2="481.888228567653"/>
    <line x1="42.8011112605664" y1="481.888228567653" x2="47.8011112605664" y2="481.888228567652"/>
    <line x1="47.8011112605664" y1="481.888228567652" x2="47.8011112605664" y2="484.888228567652"/>
    <line x1="47.8011112605664" y1="484.888228567652" x2="42.8011112605664" y2="484.888228567652"/>
    <line x1="106.301111260566" y1="481.888228567653" x2="106.301111260566" y2="484.888228567653"/>
    <line x1="106.301111260566" y1="484.888228567653" x2="101.301111260566" y2="484.888228567653"/>
    <line x1="101.301111260566" y1="484.888228567653" x2="101.301111260566" y2="481.888228567653"/>
    <line x1="101.301111260566" y1="481.888228567653" x2="106.301111260566" y2="481.888228567653"/>
    <line x1="76.0511112605663" y1="515.138228567653" x2="73.0511112605664" y2="515.138228567653"/>
    <line x1="73.0511112605664" y1="515.138228567653" x2="73.0511112605664" y2="510.138228567653"/>
    <line x1="73.0511112605664" y1="510.138228567653" x2="76.0511112605663" y2="510.138228567653"/>
    <line x1="76.0511112605663" y1="510.138228567653" x2="76.0511112605663" y2="515.138228567653"/>
  </g>
  <g id="face4" fill="none" stroke="rgb(0,0,255)" stroke-width="1" stroke-miterlimit="4" stroke-dasharray="none" stroke-linejoin="round" stroke-linecap="round">
    <line x1="10.0" y1="560.0" x2="10.0" y2="692.0"/>
    <line x1="10.0" y1="692.0" x2="142.0" y2="692.0"/>
    <line x1="142.0" y1="692.0" x2="142.0" y2="560.0"/>
    <line x1="142.0" y1="560.0" x2="10.0" y2="560.0"/>
    <line x1="119.466662183008" y1="614.353142970387" x2="121.0" y2="626.0"/>
    <line x1="121.0" y1="626.0" x2="119.466662183008" y2="637.646857029614"/>
    <line x1="119.466662183008" y1="637.646857029614" x2="114.9711431703" y2="648.5"/>
    <line x1="114.9711431703" y1="648.5" x2="107.819805153395" y2="657.819805153395"/>
    <line x1="107.819805153395" y1="657.819805153395" x2="98.5" y2="664.9711431703"/>
    <line x1="98.5" y1="664.9711431703" x2="87.6468570296135" y2="669.466662183008"/>
    <line x1="87.6468570296135" y1="669.466662183008" x2="76.0" y2="671.0"/>
    <line x1="76.0" y1="671.0" x2="64.3531429703866" y2="669.466662183008"/>
    <line x1="64.3531429703866" y1="669.466662183008" x2="53.5" y2="664.9711431703"/>
    <line x1="53.5" y1="664.9711431703" x2="44.1801948466054" y2="657.819805153395"/>
    <line x1="44.1801948466054" y1="657.819805153395" x2="37.0288568297003" y2="648.5"/>
    <line x1="37.0288568297003" y1="648.5" x2="32.5333378169919" y2="637.646857029614"/>
    <line x1="32.5333378169919" y1="637.646857029614" x2="31.0000000000001" y2="626.0"/>
    <line x1="31.0000000000001" y1="626.0" x2="32.5333378169919" y2="614.353142970387"/>
    <line x1="32.5333378169919" y1="614.353142970387" x2="37.0288568297003" y2="603.5"/>
    <line x1="37.0288568297003" y1="603.5" x2="44.1801948466054" y2="594.180194846606"/>
    <line x1="44.1801948466054" y1="594.180194846606" x2="53.5" y2="587.028856829701"/>
    <line x1="53.5" y1="587.028856829701" x2="64.3531429703866" y2="582.533337816992"/>
    <line x1="64.3531429703866" y1="582.533337816992" x2="76.0" y2="581.0"/>
    <line x1="76.0" y1="581.0" x2="87.6468570296135" y2="582.533337816992"/>
    <line x1="87.6468570296135" y1="582.533337816992" x2="98.5" y2="587.028856829701"/>
    <line x1="98.5" y1="587.028856829701" x2="107.819805153395" y2="594.180194846606"/>
    <line x1="107.819805153395" y1="594.180194846606" x2="114.9711431703" y2="603.5"/>
    <line x1="114.9711431703" y1="603.5" x2="119.466662183008" y2="614.353142970387"/>
    <line x1="20.0" y1="689.0" x2="20.0" y2="686.0"/>
    <line x1="20.0" y1="686.0" x2="40.0" y2="686.0"/>
    <line x1="40.0" y1="686.0" x2="40.0" y2="689.0"/>
    <line x1="40.0" y1="689.0" x2="20.0" y2="689.0"/>
    <line x1="16.0000000000001" y1="679.5" x2="13.0000000000001" y2="679.5"/>
    <line x1="13.0000000000001" y1="679.5" x2="13.0000000000001" y2="673.0"/>
    <line x1="13.0000000000001" y1="673.0" x2="16.0000000000001" y2="673.0"/>
    <line x1="16.0000000000001" y1="673.0" x2="16.0000000000001" y2="679.5"/>
    <line x1="112.0" y1="689.0" x2="112.0" y2="686.0"/>
    <line x1="112.0" y1="686.0" x2="132.0" y2="686.0"/>
    <line x1="132.0" y1="686.0" x2="132.0" y2="689.0"/>
    <line x1="132.0" y1="689.0" x2="112.0" y2="689.0"/>
    <line x1="135.999999999986" y1="673.0" x2="138.999999999984" y2="673.0"/>
    <line x1="138.999999999984" y1="673.0" x2="138.999999999984" y2="679.500000000001"/>
    <line x1="138.999999999984" y1="679.500000000001" x2="135.999999999986" y2="679.500000000001"/>
    <line x1="135.999999999986" y1="679.500000000001" x2="135.999999999986" y2="673.0"/>
    <line x1="136.000000000016" y1="572.5" x2="139.000000000014" y2="572.5"/>
    <line x1="139.000000000014" y1="572.5" x2="139.000000000014" y2="579.000000000001"/>
    <line x1="139.000000000014" y1="579.000000000001" x2="136.000000000016" y2="579.000000000001"/>
    <line x1="136.000000000016" y1="579.000000000001" x2="136.000000000016" y2="572.5"/>
    <line x1="132.0" y1="563.0" x2="132.0" y2="566.0"/>
    <line x1="132.0" y1="566.0" x2="112.0" y2="566.0"/>
    <line x1="112.0" y1="566.0" x2="112.0" y2="563.0"/>
    <line x1="112.0" y1="563.0" x2="132.0" y2="563.0"/>
    <line x1="40.0" y1="566.0" x2="20.0" y2="566.0"/>
    <line x1="20.0" y1="566.0" x2="20.0" y2="563.0"/>
    <line x1="20.0" y1="563.0" x2="40.0" y2="563.0"/>
    <line x1="40.0" y1="563.0" x2="40.0" y2="566.0"/>
    <line x1="16.0" y1="572.5" x2="16.0" y2="579.0"/>
    <line x1="16.0" y1="579.0" x2="13.0000000000001" y2="579.0"/>
    <line x1="13.0000000000001" y1="579.0" x2="13.0000000000001" y2="572.5"/>
    <line x1="13.0000000000001" y1="572.5" x2="16.0" y2="572.5"/>
    <line x1="77.4488887394336" y1="564.111771432346" x2="77.5" y2="564.5"/>
    <line x1="77.5" y1="564.5" x2="77.4488887394336" y2="564.888228567654"/>
    <line x1="77.4488887394336" y1="564.888228567654" x2="77.2990381056767" y2="565.25"/>
    <line x1="77.2990381056767" y1="565.25" x2="77.0606601717798" y2="565.56066017178"/>
    <line x1="77.0606601717798" y1="565.56066017178" x2="76.75" y2="565.799038105677"/>
    <line x1="76.75" y1="565.799038105677" x2="76.3882285676538" y2="565.948888739434"/>
    <line x1="76.3882285676538" y1="565.948888739434" x2="76.0" y2="566.0"/>
    <line x1="76.0" y1="566.0" x2="75.6117714323462" y2="565.948888739434"/>
    <line x1="75.6117714323462" y1="565.948888739434" x2="75.2500000000001" y2="565.799038105677"/>
    <line x1="75.2500000000001" y1="565.799038105677" x2="74.9393398282202" y2="565.56066017178"/>
    <line x1="74.9393398282202" y1="565.56066017178" x2="74.7009618943234" y2="565.25"/>
    <line x1="74.7009618943234" y1="565.25" x2="74.5511112605664" y2="564.888228567654"/>
    <line x1="74.5511112605664" y1="564.888228567654" x2="74.5" y2="564.5"/>
    <line x1="74.5" y1="564.5" x2="74.5511112605664" y2="564.111771432347"/>
    <line x1="74.5511112605664" y1="564.111771432347" x2="74.7009618943234" y2="563.75"/>
    <line x1="74.7009618943234" y1="563.75" x2="74.9393398282202" y2="563.43933982822"/>
    <line x1="74.9393398282202" y1="563.43933982822" x2="75.2500000000001" y2="563.200961894324"/>
    <line x1="75.2500000000001" y1="563.200961894324" x2="75.6117714323462" y2="563.051111260567"/>
    <line x1="75.6117714323462" y1="563.051111260567" x2="76.0" y2="563.0"/>
    <line x1="76.0" y1="563.0" x2="76.3882285676538" y2="563.051111260566"/>
    <line x1="76.3882285676538" y1="563.051111260566" x2="76.75" y2="563.200961894324"/>
    <line x1="76.75" y1="563.200961894324" x2="77.0606601717798" y2="563.43933982822"/>
    <line x1="77.0606601717798" y1="563.43933982822" x2="77.2990381056767" y2="563.75"/>
    <line x1="77.2990381056767" y1="563.75" x2="77.4488887394336" y2="564.111771432346"/>
    <line x1="77.4488887394336" y1="687.111771432346" x2="77.5" y2="687.5"/>
    <line x1="77.5" y1="687.5" x2="77.4488887394336" y2="687.888228567654"/>
    <line x1="77.4488887394336" y1="687.888228567654" x2="77.2990381056767" y2="688.25"/>
    <line x1="77.2990381056767" y1="688.25" x2="77.0606601717798" y2="688.56066017178"/>
    <line x1="77.0606601717798" y1="688.56066017178" x2="76.75" y2="688.799038105677"/>
    <line x1="76.75" y1="688.799038105677" x2="76.3882285676538" y2="688.948888739434"/>
    <line x1="76.3882285676538" y1="688.948888739434" x2="76.0" y2="689.0"/>
    <line x1="76.0" y1="689.0" x2="75.6117714323462" y2="688.948888739434"/>
    <line x1="75.6117714323462" y1="688.948888739434" x2="75.2500000000001" y2="688.799038105677"/>
    <line x1="75.2500000000001" y1="688.799038105677" x2="74.9393398282202" y2="688.56066017178"/>
    <line x1="74.9393398282202" y1="688.56066017178" x2="74.7009618943234" y2="688.25"/>
    <line x1="74.7009618943234" y1="688.25" x2="74.5511112605664" y2="687.888228567654"/>
    <line x1="74.5511112605664" y1="687.888228567654" x2="74.5" y2="687.5"/>
    <line x1="74.5" y1="687.5" x2="74.5511112605664" y2="687.111771432346"/>
    <line x1="74.5511112605664" y1="687.111771432346" x2="74.7009618943234" y2="686.75"/>
    <line x1="74.7009618943234" y1="686.75" x2="74.9393398282202" y2="686.43933982822"/>
    <line x1="74.9393398282202" y1="686.43933982822" x2="75.2500000000001" y2="686.200961894324"/>
    <line x1="75.2500000000001" y1="686.200961894324" x2="75.6117714323462" y2="686.051111260567"/>
    <line x1="75.6117714323462" y1="686.051111260567" x2="76.0" y2="686.0"/>
    <line x1="76.0" y1="686.0" x2="76.3882285676538" y2="686.051111260567"/>
    <line x1="76.3882285676538" y1="686.051111260567" x2="76.75" y2="686.200961894324"/>
    <line x1="76.75" y1="686.200961894324" x2="77.0606601717798" y2="686.43933982822"/>
    <line x1="77.0606601717798" y1="686.43933982822" x2="77.2990381056767" y2="686.75"/>
    <line x1="77.2990381056767" y1="686.75" x2="77.4488887394336" y2="687.111771432346"/>
  </g>
  <g id="face5" fill="none" stroke="rgb(0,0,255)" stroke-width="1" stroke-miterlimit="4" stroke-dasharray="none" stroke-linejoin="round" stroke-linecap="round">
    <line x1="15.0" y1="705.000000000001" x2="10.0" y2="705.000000000001"/>
    <line x1="10.0" y1="705.000000000001" x2="10.0000000000012" y2="711.000000000002"/>
    <line x1="10.0000000000012" y1="711.000000000002" x2="15.0000000000012" y2="711.000000000001"/>
    <line x1="15.0000000000012" y1="711.000000000001" x2="15.0000000000006" y2="708.000000000001"/>
    <line x1="15.0000000000006" y1="708.000000000001" x2="25.0000000000006" y2="707.999999999999"/>
    <line x1="25.0000000000006" y1="707.999999999999" x2="25.0" y2="705.000000000001"/>
    <line x1="25.0" y1="705.000000000001" x2="20.0" y2="705.000000000001"/>
    <line x1="20.0" y1="705.000000000001" x2="19.9999999999994" y2="702.0"/>
    <line x1="19.9999999999994" y1="702.0" x2="14.9999999999994" y2="702.000000000001"/>
    <line x1="14.9999999999994" y1="702.000000000001" x2="15.0" y2="705.000000000001"/>
  </g>
  <g id="face6" fill="none" stroke="rgb(0,0,255)" stroke-width="1" stroke-miterlimit="4" stroke-dasharray="none" stroke-linejoin="round" stroke-linecap="round">
    <line x1="132.0" y1="817.000000000002" x2="142.0" y2="817.000000000002"/>
    <line x1="142.0" y1="817.000000000002" x2="142.0" y2="724.000000000002"/>
    <line x1="142.0" y1="724.000000000002" x2="126.0" y2="724.000000000002"/>
    <line x1="126.0" y1="724.000000000002" x2="126.0" y2="721.000000000002"/>
    <line x1="126.0" y1="721.000000000002" x2="106.0" y2="721.000000000002"/>
    <line x1="106.0" y1="721.000000000002" x2="106.0" y2="724.000000000002"/>
    <line x1="106.0" y1="724.000000000002" x2="85.5" y2="724.000000000002"/>
    <line x1="85.5" y1="724.000000000002" x2="85.5000000000001" y2="726.000000000002"/>
    <line x1="85.5000000000001" y1="726.000000000002" x2="86.8" y2="726.000000000002"/>
    <line x1="86.8" y1="726.000000000002" x2="86.8" y2="728.200000000002"/>
    <line x1="86.8" y1="728.200000000002" x2="85.5" y2="728.200000000002"/>
    <line x1="85.5" y1="728.200000000002" x2="85.5000000000001" y2="731.200000000002"/>
    <line x1="85.5000000000001" y1="731.200000000002" x2="82.5" y2="731.200000000002"/>
    <line x1="82.5" y1="731.200000000002" x2="82.5" y2="728.200000000002"/>
    <line x1="82.5" y1="728.200000000002" x2="81.3" y2="728.200000000002"/>
    <line x1="81.3" y1="728.200000000002" x2="81.3" y2="726.000000000002"/>
    <line x1="81.3" y1="726.000000000002" x2="82.6" y2="726.000000000002"/>
    <line x1="82.6" y1="726.000000000002" x2="82.6" y2="724.000000000002"/>
    <line x1="82.6" y1="724.000000000002" x2="56.0" y2="724.000000000002"/>
    <line x1="56.0" y1="724.000000000002" x2="56.0" y2="721.000000000002"/>
    <line x1="56.0" y1="721.000000000002" x2="26.0" y2="721.000000000002"/>
    <line x1="26.0" y1="721.000000000002" x2="25.9999999999999" y2="724.000000000002"/>
    <line x1="25.9999999999999" y1="724.000000000002" x2="10.0" y2="724.000000000002"/>
    <line x1="10.0" y1="724.000000000002" x2="10.0" y2="817.000000000002"/>
    <line x1="10.0" y1="817.000000000002" x2="20.0" y2="817.000000000002"/>
    <line x1="20.0" y1="817.000000000002" x2="20.0" y2="820.000000000002"/>
    <line x1="20.0" y1="820.000000000002" x2="40.0" y2="820.000000000003"/>
    <line x1="40.0" y1="820.000000000003" x2="40.0" y2="817.000000000002"/>
    <line x1="40.0" y1="817.000000000002" x2="74.5" y2="817.000000000002"/>
    <line x1="74.5" y1="817.000000000002" x2="74.5" y2="815.000000000002"/>
    <line x1="74.5" y1="815.000000000002" x2="73.2" y2="815.000000000002"/>
    <line x1="73.2" y1="815.000000000002" x2="73.2" y2="812.800000000002"/>
    <line x1="73.2" y1="812.800000000002" x2="74.5" y2="812.800000000002"/>
    <line x1="74.5" y1="812.800000000002" x2="74.5" y2="809.800000000002"/>
    <line x1="74.5" y1="809.800000000002" x2="77.5" y2="809.800000000002"/>
    <line x1="77.5" y1="809.800000000002" x2="77.5" y2="812.800000000002"/>
    <line x1="77.5" y1="812.800000000002" x2="78.8" y2="812.800000000002"/>
    <line x1="78.8" y1="812.800000000002" x2="78.8" y2="815.000000000002"/>
    <line x1="78.8" y1="815.000000000002" x2="77.5" y2="815.000000000002"/>
    <line x1="77.5" y1="815.000000000002" x2="77.5" y2="817.000000000002"/>
    <line x1="77.5" y1="817.000000000002" x2="112.0" y2="817.000000000002"/>
    <line x1="112.0" y1="817.000000000002" x2="112.0" y2="820.000000000002"/>
    <line x1="112.0" y1="820.000000000002" x2="132.0" y2="820.000000000002"/>
    <line x1="132.0" y1="820.000000000002" x2="132.0" y2="817.000000000002"/>
    <line x1="102.705149161488" y1="769.500000000002" x2="103.499742274477" y2="768.46446609407"/>
    <line x1="103.499742274477" y1="768.46446609407" x2="104.53527618041" y2="767.66987298108"/>
    <line x1="104.53527618041" y1="767.66987298108" x2="105.741180954897" y2="767.170370868557"/>
    <line x1="105.741180954897" y1="767.170370868557" x2="107.03527618041" y2="767.000000000002"/>
    <line x1="107.03527618041" y1="767.000000000002" x2="108.329371405923" y2="767.170370868557"/>
    <line x1="108.329371405923" y1="767.170370868557" x2="109.53527618041" y2="767.66987298108"/>
    <line x1="109.53527618041" y1="767.66987298108" x2="110.570810086343" y2="768.46446609407"/>
    <line x1="110.570810086343" y1="768.46446609407" x2="111.365403199332" y2="769.500000000002"/>
    <line x1="111.365403199332" y1="769.500000000002" x2="111.864905311855" y2="770.70590477449"/>
    <line x1="111.864905311855" y1="770.70590477449" x2="112.03527618041" y2="772.000000000002"/>
    <line x1="112.03527618041" y1="772.000000000002" x2="111.864905311855" y2="773.294095225515"/>
    <line x1="111.864905311855" y1="773.294095225515" x2="111.365403199332" y2="774.500000000002"/>
    <line x1="111.365403199332" y1="774.500000000002" x2="110.570810086343" y2="775.535533905935"/>
    <line x1="110.570810086343" y1="775.535533905935" x2="109.53527618041" y2="776.330127018925"/>
    <line x1="109.53527618041" y1="776.330127018925" x2="108.329371405923" y2="776.829629131448"/>
    <line x1="108.329371405923" y1="776.829629131448" x2="107.03527618041" y2="777.000000000002"/>
    <line x1="107.03527618041" y1="777.000000000002" x2="105.741180954898" y2="776.829629131448"/>
    <line x1="105.741180954898" y1="776.829629131448" x2="104.53527618041" y2="776.330127018925"/>
    <line x1="104.53527618041" y1="776.330127018925" x2="103.499742274477" y2="775.535533905935"/>
    <line x1="103.499742274477" y1="775.535533905935" x2="102.705149161488" y2="774.500000000002"/>
    <line x1="102.705149161488" y1="774.500000000002" x2="102.205647048965" y2="773.294095225515"/>
    <line x1="102.205647048965" y1="773.294095225515" x2="102.03527618041" y2="772.000000000002"/>
    <line x1="102.03527618041" y1="772.000000000002" x2="102.205647048965" y2="770.70590477449"/>
    <line x1="102.205647048965" y1="770.70590477449" x2="102.705149161488" y2="769.500000000002"/>
    <line x1="14.8882285676538" y1="774.948888739436" x2="14.5" y2="775.000000000002"/>
    <line x1="14.5" y1="775.000000000002" x2="14.1117714323462" y2="774.948888739436"/>
    <line x1="14.1117714323462" y1="774.948888739436" x2="13.75" y2="774.799038105679"/>
    <line x1="13.75" y1="774.799038105679" x2="13.4393398282202" y2="774.560660171782"/>
    <line x1="13.4393398282202" y1="774.560660171782" x2="13.2009618943233" y2="774.250000000002"/>
    <line x1="13.2009618943233" y1="774.250000000002" x2="13.0511112605664" y2="773.888228567656"/>
    <line x1="13.0511112605664" y1="773.888228567656" x2="13.0" y2="773.500000000002"/>
    <line x1="13.0" y1="773.500000000002" x2="13.0511112605664" y2="773.111771432348"/>
    <line x1="13.0511112605664" y1="773.111771432348" x2="13.2009618943233" y2="772.750000000002"/>
    <line x1="13.2009618943233" y1="772.750000000002" x2="13.4393398282202" y2="772.439339828222"/>
    <line x1="13.4393398282202" y1="772.439339828222" x2="13.75" y2="772.200961894325"/>
    <line x1="13.75" y1="772.200961894325" x2="14.1117714323462" y2="772.051111260569"/>
    <line x1="14.1117714323462" y1="772.051111260569" x2="14.5" y2="772.000000000002"/>
    <line x1="14.5" y1="772.000000000002" x2="14.8882285676538" y2="772.051111260569"/>
    <line x1="14.8882285676538" y1="772.051111260569" x2="15.25" y2="772.200961894325"/>
    <line x1="15.25" y1="772.200961894325" x2="15.5606601717798" y2="772.439339828222"/>
    <line x1="15.5606601717798" y1="772.439339828222" x2="15.7990381056766" y2="772.750000000002"/>
    <line x1="15.7990381056766" y1="772.750000000002" x2="15.9488887394336" y2="773.111771432348"/>
    <line x1="15.9488887394336" y1="773.111771432348" x2="16.0" y2="773.500000000002"/>
    <line x1="16.0" y1="773.500000000002" x2="15.9488887394336" y2="773.888228567656"/>
    <line x1="15.9488887394336" y1="773.888228567656" x2="15.7990381056766" y2="774.250000000002"/>
    <line x1="15.7990381056766" y1="774.250000000002" x2="15.5606601717798" y2="774.560660171782"/>
    <line x1="15.5606601717798" y1="774.560660171782" x2="15.25" y2="774.799038105679"/>
    <line x1="15.25" y1="774.799038105679" x2="14.8882285676538" y2="774.948888739436"/>
    <line x1="137.888228567654" y1="774.948888739436" x2="137.5" y2="775.000000000002"/>
    <line x1="137.5" y1="775.000000000002" x2="137.111771432346" y2="774.948888739436"/>
    <line x1="137.111771432346" y1="774.948888739436" x2="136.75" y2="774.799038105679"/>
    <line x1="136.75" y1="774.799038105679" x2="136.43933982822" y2="774.560660171782"/>
    <line x1="136.43933982822" y1="774.560660171782" x2="136.200961894323" y2="774.250000000002"/>
    <line x1="136.200961894323" y1="774.250000000002" x2="136.051111260566" y2="773.888228567656"/>
    <line x1="136.051111260566" y1="773.888228567656" x2="136.0" y2="773.500000000002"/>
    <line x1="136.0" y1="773.500000000002" x2="136.051111260566" y2="773.111771432348"/>
    <line x1="136.051111260566" y1="773.111771432348" x2="136.200961894323" y2="772.750000000002"/>
    <line x1="136.200961894323" y1="772.750000000002" x2="136.43933982822" y2="772.439339828222"/>
    <line x1="136.43933982822" y1="772.439339828222" x2="136.75" y2="772.200961894325"/>
    <line x1="136.75" y1="772.200961894325" x2="137.111771432346" y2="772.051111260569"/>
    <line x1="137.111771432346" y1="772.051111260569" x2="137.5" y2="772.000000000002"/>
    <line x1="137.5" y1="772.000000000002" x2="137.888228567654" y2="772.051111260569"/>
    <line x1="137.888228567654" y1="772.051111260569" x2="138.25" y2="772.200961894325"/>
    <line x1="138.25" y1="772.200961894325" x2="138.56066017178" y2="772.439339828222"/>
    <line x1="138.56066017178" y1="772.439339828222" x2="138.799038105677" y2="772.750000000002"/>
    <line x1="138.799038105677" y1="772.750000000002" x2="138.948888739434" y2="773.111771432348"/>
    <line x1="138.948888739434" y1="773.111771432348" x2="139.0" y2="773.500000000002"/>
    <line x1="139.0" y1="773.500000000002" x2="138.948888739434" y2="773.888228567656"/>
    <line x1="138.948888739434" y1="773.888228567656" x2="138.799038105677" y2="774.250000000002"/>
    <line x1="138.799038105677" y1="774.250000000002" x2="138.56066017178" y2="774.560660171782"/>
    <line x1="138.56066017178" y1="774.560660171782" x2="138.25" y2="774.799038105679"/>
    <line x1="138.25" y1="774.799038105679" x2="137.888228567654" y2="774.948888739436"/>
    <line x1="138.999999999982" y1="744.000000000002" x2="135.999999999982" y2="744.000000000002"/>
    <line x1="135.999999999982" y1="744.000000000002" x2="135.999999999982" y2="734.000000000002"/>
    <line x1="135.999999999982" y1="734.000000000002" x2="138.999999999982" y2="734.000000000002"/>
    <line x1="138.999999999982" y1="734.000000000002" x2="138.999999999982" y2="744.000000000002"/>
    <line x1="16.0" y1="744.000000000002" x2="13.0" y2="744.000000000002"/>
    <line x1="13.0" y1="744.000000000002" x2="13.0" y2="734.000000000002"/>
    <line x1="13.0" y1="734.000000000002" x2="16.0" y2="734.000000000002"/>
    <line x1="16.0" y1="734.000000000002" x2="16.0" y2="744.000000000002"/>
    <line x1="103.0" y1="757.000000000002" x2="103.0" y2="754.000000000003"/>
    <line x1="103.0" y1="754.000000000003" x2="123.0" y2="754.000000000003"/>
    <line x1="123.0" y1="754.000000000003" x2="123.0" y2="757.000000000002"/>
    <line x1="123.0" y1="757.000000000002" x2="103.0" y2="757.000000000002"/>
    <line x1="29.0" y1="757.000000000002" x2="29.0" y2="754.000000000002"/>
    <line x1="29.0" y1="754.000000000002" x2="59.0" y2="754.000000000002"/>
    <line x1="59.0" y1="754.000000000002" x2="59.0" y2="757.000000000002"/>
    <line x1="59.0" y1="757.000000000002" x2="29.0" y2="757.000000000002"/>
    <line x1="70.1470476127563" y1="775.714814565725" x2="69.5" y2="775.800000000002"/>
    <line x1="69.5" y1="775.800000000002" x2="68.8529523872437" y2="775.714814565725"/>
    <line x1="68.8529523872437" y1="775.714814565725" x2="68.25" y2="775.465063509464"/>
    <line x1="68.25" y1="775.465063509464" x2="67.7322330470336" y2="775.067766952969"/>
    <line x1="67.7322330470336" y1="775.067766952969" x2="67.3349364905389" y2="774.550000000002"/>
    <line x1="67.3349364905389" y1="774.550000000002" x2="67.0851854342773" y2="773.947047612759"/>
    <line x1="67.0851854342773" y1="773.947047612759" x2="67.0" y2="773.300000000002"/>
    <line x1="67.0" y1="773.300000000002" x2="67.0851854342773" y2="772.652952387246"/>
    <line x1="67.0851854342773" y1="772.652952387246" x2="67.3349364905389" y2="772.050000000003"/>
    <line x1="67.3349364905389" y1="772.050000000003" x2="67.7322330470336" y2="771.532233047036"/>
    <line x1="67.7322330470336" y1="771.532233047036" x2="68.25" y2="771.134936490541"/>
    <line x1="68.25" y1="771.134936490541" x2="68.8529523872437" y2="770.88518543428"/>
    <line x1="68.8529523872437" y1="770.88518543428" x2="69.5" y2="770.800000000002"/>
    <line x1="69.5" y1="770.800000000002" x2="70.1470476127563" y2="770.88518543428"/>
    <line x1="70.1470476127563" y1="770.88518543428" x2="70.75" y2="771.134936490541"/>
    <line x1="70.75" y1="771.134936490541" x2="71.2677669529664" y2="771.532233047036"/>
    <line x1="71.2677669529664" y1="771.532233047036" x2="71.6650635094611" y2="772.050000000002"/>
    <line x1="71.6650635094611" y1="772.050000000002" x2="71.9148145657227" y2="772.652952387246"/>
    <line x1="71.9148145657227" y1="772.652952387246" x2="72.0" y2="773.300000000002"/>
    <line x1="72.0" y1="773.300000000002" x2="71.9148145657227" y2="773.947047612759"/>
    <line x1="71.9148145657227" y1="773.947047612759" x2="71.6650635094611" y2="774.550000000002"/>
    <line x1="71.6650635094611" y1="774.550000000002" x2="71.2677669529664" y2="775.067766952969"/>
    <line x1="71.2677669529664" y1="775.067766952969" x2="70.75" y2="775.465063509464"/>
    <line x1="70.75" y1="775.465063509464" x2="70.1470476127563" y2="775.714814565725"/>
    <line x1="45.9" y1="766.500000000002" x2="45.9" y2="779.500000000002"/>
    <line x1="45.9" y1="779.500000000002" x2="27.1" y2="779.500000000002"/>
    <line x1="27.1" y1="779.500000000002" x2="27.1" y2="766.500000000002"/>
    <line x1="27.1" y1="766.500000000002" x2="45.9" y2="766.500000000002"/>
    <line x1="54.0" y1="788.419389471531" x2="67.0" y2="788.419389471531"/>
    <line x1="67.0" y1="788.419389471531" x2="67.0" y2="807.219389471531"/>
    <line x1="67.0" y1="807.219389471531" x2="54.0" y2="807.219389471531"/>
    <line x1="54.0" y1="807.219389471531" x2="54.0" y2="788.419389471531"/>
    <line x1="69.5" y1="788.419389471531" x2="82.5" y2="788.419389471531"/>
    <line x1="82.5" y1="788.419389471531" x2="82.5" y2="807.219389471531"/>
    <line x1="82.5" y1="807.219389471531" x2="69.5" y2="807.219389471531"/>
    <line x1="69.5" y1="807.219389471531" x2="69.5" y2="788.419389471531"/>
    <line x1="85.0" y1="788.419389471531" x2="98.0" y2="788.419389471531"/>
    <line x1="98.0" y1="788.419389471531" x2="98.0" y2="807.219389471531"/>
    <line x1="98.0" y1="807.219389471531" x2="85.0" y2="807.219389471531"/>
    <line x1="85.0" y1="807.219389471531" x2="85.0" y2="788.419389471531"/>
  </g>
  <g id="face7" fill="none" stroke="rgb(0,0,255)" stroke-width="1" stroke-miterlimit="4" stroke-dasharray="none" stroke-linejoin="round" stroke-linecap="round">
    <line x1="77.5" y1="837.200000000003" x2="77.5" y2="840.200000000003"/>
    <line x1="77.5" y1="840.200000000003" x2="74.5" y2="840.200000000003"/>
    <line x1="74.5" y1="840.200000000003" x2="74.5" y2="837.200000000003"/>
    <line x1="74.5" y1="837.200000000003" x2="73.2" y2="837.200000000003"/>
    <line x1="73.2" y1="837.200000000003" x2="73.2" y2="835.000000000003"/>
    <line x1="73.2" y1="835.000000000003" x2="74.5" y2="835.000000000003"/>
    <line x1="74.5" y1="835.000000000003" x2="74.5" y2="833.000000000003"/>
    <line x1="74.5" y1="833.000000000003" x2="40.0" y2="833.000000000003"/>
    <line x1="40.0" y1="833.000000000003" x2="40.0" y2="830.000000000003"/>
    <line x1="40.0" y1="830.000000000003" x2="20.0" y2="830.000000000003"/>
    <line x1="20.0" y1="830.000000000003" x2="20.0" y2="833.000000000003"/>
    <line x1="20.0" y1="833.000000000003" x2="10.0" y2="833.000000000003"/>
    <line x1="10.0" y1="833.000000000003" x2="10.0" y2="926.000000000003"/>
    <line x1="10.0" y1="926.000000000003" x2="26.0" y2="926.000000000003"/>
    <line x1="26.0" y1="926.000000000003" x2="26.0" y2="929.000000000003"/>
    <line x1="26.0" y1="929.000000000003" x2="46.0" y2="929.000000000003"/>
    <line x1="46.0" y1="929.000000000003" x2="46.0" y2="926.000000000003"/>
    <line x1="46.0" y1="926.000000000003" x2="66.5" y2="926.000000000003"/>
    <line x1="66.5" y1="926.000000000003" x2="66.5" y2="924.000000000003"/>
    <line x1="66.5" y1="924.000000000003" x2="65.2" y2="924.000000000003"/>
    <line x1="65.2" y1="924.000000000003" x2="65.2" y2="921.800000000003"/>
    <line x1="65.2" y1="921.800000000003" x2="66.5" y2="921.800000000003"/>
    <line x1="66.5" y1="921.800000000003" x2="66.5" y2="918.800000000003"/>
    <line x1="66.5" y1="918.800000000003" x2="69.5" y2="918.800000000003"/>
    <line x1="69.5" y1="918.800000000003" x2="69.5" y2="921.800000000003"/>
    <line x1="69.5" y1="921.800000000003" x2="70.8" y2="921.800000000003"/>
    <line x1="70.8" y1="921.800000000003" x2="70.8" y2="924.000000000003"/>
    <line x1="70.8" y1="924.000000000003" x2="69.5" y2="924.000000000003"/>
    <line x1="69.5" y1="924.000000000003" x2="69.5" y2="926.000000000003"/>
    <line x1="69.5" y1="926.000000000003" x2="96.0" y2="926.000000000003"/>
    <line x1="96.0" y1="926.000000000003" x2="96.0" y2="929.000000000003"/>
    <line x1="96.0" y1="929.000000000003" x2="126.0" y2="929.000000000003"/>
    <line x1="126.0" y1="929.000000000003" x2="126.0" y2="926.000000000003"/>
    <line x1="126.0" y1="926.000000000003" x2="142.0" y2="926.000000000003"/>
    <line x1="142.0" y1="926.000000000003" x2="142.0" y2="833.000000000002"/>
    <line x1="142.0" y1="833.000000000002" x2="132.0" y2="833.000000000003"/>
    <line x1="132.0" y1="833.000000000003" x2="132.0" y2="830.000000000003"/>
    <line x1="132.0" y1="830.000000000003" x2="112.0" y2="830.000000000003"/>
    <line x1="112.0" y1="830.000000000003" x2="112.0" y2="833.000000000003"/>
    <line x1="112.0" y1="833.000000000003" x2="77.5" y2="833.000000000003"/>
    <line x1="77.5" y1="833.000000000003" x2="77.5" y2="835.000000000003"/>
    <line x1="77.5" y1="835.000000000003" x2="78.8" y2="835.000000000003"/>
    <line x1="78.8" y1="835.000000000003" x2="78.8" y2="837.200000000003"/>
    <line x1="78.8" y1="837.200000000003" x2="77.5" y2="837.200000000003"/>
    <line x1="136.000000000018" y1="906.000000000003" x2="139.000000000018" y2="906.000000000003"/>
    <line x1="139.000000000018" y1="906.000000000003" x2="139.000000000018" y2="916.000000000003"/>
    <line x1="139.000000000018" y1="916.000000000003" x2="136.000000000018" y2="916.000000000003"/>
    <line x1="136.000000000018" y1="916.000000000003" x2="136.000000000018" y2="906.000000000003"/>
    <line x1="15.9999999999999" y1="916.000000000003" x2="13.0" y2="916.000000000003"/>
    <line x1="13.0" y1="916.000000000003" x2="13.0" y2="906.000000000003"/>
    <line x1="13.0" y1="906.000000000003" x2="15.9999999999999" y2="906.000000000003"/>
    <line x1="15.9999999999999" y1="906.000000000003" x2="15.9999999999999" y2="916.000000000003"/>
    <line x1="137.111771432346" y1="875.051111260569" x2="137.5" y2="875.000000000003"/>
    <line x1="137.5" y1="875.000000000003" x2="137.888228567654" y2="875.051111260569"/>
    <line x1="137.888228567654" y1="875.051111260569" x2="138.25" y2="875.200961894326"/>
    <line x1="138.25" y1="875.200961894326" x2="138.56066017178" y2="875.439339828223"/>
    <line x1="138.56066017178" y1="875.439339828223" x2="138.799038105677" y2="875.750000000003"/>
    <line x1="138.799038105677" y1="875.750000000003" x2="138.948888739434" y2="876.111771432349"/>
    <line x1="138.948888739434" y1="876.111771432349" x2="139.0" y2="876.500000000003"/>
    <line x1="139.0" y1="876.500000000003" x2="138.948888739434" y2="876.888228567656"/>
    <line x1="138.948888739434" y1="876.888228567656" x2="138.799038105677" y2="877.250000000003"/>
    <line x1="138.799038105677" y1="877.250000000003" x2="138.56066017178" y2="877.560660171782"/>
    <line x1="138.56066017178" y1="877.560660171782" x2="138.25" y2="877.799038105679"/>
    <line x1="138.25" y1="877.799038105679" x2="137.888228567654" y2="877.948888739436"/>
    <line x1="137.888228567654" y1="877.948888739436" x2="137.5" y2="878.000000000003"/>
    <line x1="137.5" y1="878.000000000003" x2="137.111771432346" y2="877.948888739436"/>
    <line x1="137.111771432346" y1="877.948888739436" x2="136.75" y2="877.799038105679"/>
    <line x1="136.75" y1="877.799038105679" x2="136.43933982822" y2="877.560660171782"/>
    <line x1="136.43933982822" y1="877.560660171782" x2="136.200961894323" y2="877.250000000003"/>
    <line x1="136.200961894323" y1="877.250000000003" x2="136.051111260566" y2="876.888228567656"/>
    <line x1="136.051111260566" y1="876.888228567656" x2="136.0" y2="876.500000000003"/>
    <line x1="136.0" y1="876.500000000003" x2="136.051111260566" y2="876.111771432349"/>
    <line x1="136.051111260566" y1="876.111771432349" x2="136.200961894323" y2="875.750000000003"/>
    <line x1="136.200961894323" y1="875.750000000003" x2="136.43933982822" y2="875.439339828223"/>
    <line x1="136.43933982822" y1="875.439339828223" x2="136.75" y2="875.200961894326"/>
    <line x1="136.75" y1="875.200961894326" x2="137.111771432346" y2="875.051111260569"/>
    <line x1="14.1117714323462" y1="875.051111260569" x2="14.5" y2="875.000000000003"/>
    <line x1="14.5" y1="875.000000000003" x2="14.8882285676538" y2="875.051111260569"/>
    <line x1="14.8882285676538" y1="875.051111260569" x2="15.25" y2="875.200961894326"/>
    <line x1="15.25" y1="875.200961894326" x2="15.5606601717798" y2="875.439339828223"/>
    <line x1="15.5606601717798" y1="875.439339828223" x2="15.7990381056766" y2="875.750000000003"/>
    <line x1="15.7990381056766" y1="875.750000000003" x2="15.9488887394336" y2="876.111771432349"/>
    <line x1="15.9488887394336" y1="876.111771432349" x2="16.0" y2="876.500000000003"/>
    <line x1="16.0" y1="876.500000000003" x2="15.9488887394336" y2="876.888228567656"/>
    <line x1="15.9488887394336" y1="876.888228567656" x2="15.7990381056766" y2="877.250000000003"/>
    <line x1="15.7990381056766" y1="877.250000000003" x2="15.5606601717798" y2="877.560660171783"/>
    <line x1="15.5606601717798" y1="877.560660171783" x2="15.25" y2="877.799038105679"/>
    <line x1="15.25" y1="877.799038105679" x2="14.8882285676538" y2="877.948888739436"/>
    <line x1="14.8882285676538" y1="877.948888739436" x2="14.5" y2="878.000000000003"/>
    <line x1="14.5" y1="878.000000000003" x2="14.1117714323462" y2="877.948888739436"/>
    <line x1="14.1117714323462" y1="877.948888739436" x2="13.75" y2="877.799038105679"/>
    <line x1="13.75" y1="877.799038105679" x2="13.4393398282202" y2="877.560660171782"/>
    <line x1="13.4393398282202" y1="877.560660171782" x2="13.2009618943233" y2="877.250000000003"/>
    <line x1="13.2009618943233" y1="877.250000000003" x2="13.0511112605664" y2="876.888228567656"/>
    <line x1="13.0511112605664" y1="876.888228567656" x2="13.0" y2="876.500000000003"/>
    <line x1="13.0" y1="876.500000000003" x2="13.0511112605664" y2="876.111771432349"/>
    <line x1="13.0511112605664" y1="876.111771432349" x2="13.2009618943233" y2="875.750000000003"/>
    <line x1="13.2009618943233" y1="875.750000000003" x2="13.4393398282202" y2="875.439339828223"/>
    <line x1="13.4393398282202" y1="875.439339828223" x2="13.75" y2="875.200961894326"/>
    <line x1="13.75" y1="875.200961894326" x2="14.1117714323462" y2="875.051111260569"/>
    <line x1="29.0" y1="896.000000000003" x2="29.0" y2="893.000000000003"/>
    <line x1="29.0" y1="893.000000000003" x2="49.0" y2="893.000000000003"/>
    <line x1="49.0" y1="893.000000000003" x2="49.0" y2="896.000000000003"/>
    <line x1="49.0" y1="896.000000000003" x2="29.0" y2="896.000000000003"/>
    <line x1="123.0" y1="896.000000000003" x2="93.0" y2="896.000000000003"/>
    <line x1="93.0" y1="896.000000000003" x2="93.0" y2="893.000000000003"/>
    <line x1="93.0" y1="893.000000000003" x2="123.0" y2="893.000000000003"/>
    <line x1="123.0" y1="893.000000000003" x2="123.0" y2="896.000000000003"/>
    <line x1="75.4823619097949" y1="864.268148347424" x2="76.0" y2="864.200000000003"/>
    <line x1="76.0" y1="864.200000000003" x2="76.517638090205" y2="864.268148347424"/>
    <line x1="76.517638090205" y1="864.268148347424" x2="77.0" y2="864.467949192434"/>
    <line x1="77.0" y1="864.467949192434" x2="77.414213562373" y2="864.785786437629"/>
    <line x1="77.414213562373" y1="864.785786437629" x2="77.7320508075689" y2="865.200000000003"/>
    <line x1="77.7320508075689" y1="865.200000000003" x2="77.9318516525781" y2="865.682361909797"/>
    <line x1="77.9318516525781" y1="865.682361909797" x2="78.0" y2="866.200000000003"/>
    <line x1="78.0" y1="866.200000000003" x2="77.9318516525781" y2="866.717638090208"/>
    <line x1="77.9318516525781" y1="866.717638090208" x2="77.7320508075689" y2="867.200000000003"/>
    <line x1="77.7320508075689" y1="867.200000000003" x2="77.414213562373" y2="867.614213562376"/>
    <line x1="77.414213562373" y1="867.614213562376" x2="77.0" y2="867.932050807571"/>
    <line x1="77.0" y1="867.932050807571" x2="76.517638090205" y2="868.131851652581"/>
    <line x1="76.517638090205" y1="868.131851652581" x2="76.0" y2="868.200000000003"/>
    <line x1="76.0" y1="868.200000000003" x2="75.4823619097949" y2="868.131851652581"/>
    <line x1="75.4823619097949" y1="868.131851652581" x2="75.0" y2="867.932050807571"/>
    <line x1="75.0" y1="867.932050807571" x2="74.5857864376269" y2="867.614213562376"/>
    <line x1="74.5857864376269" y1="867.614213562376" x2="74.2679491924311" y2="867.200000000003"/>
    <line x1="74.2679491924311" y1="867.200000000003" x2="74.0681483474218" y2="866.717638090208"/>
    <line x1="74.0681483474218" y1="866.717638090208" x2="74.0" y2="866.200000000003"/>
    <line x1="74.0" y1="866.200000000003" x2="74.0681483474218" y2="865.682361909797"/>
    <line x1="74.0681483474218" y1="865.682361909797" x2="74.2679491924311" y2="865.200000000003"/>
    <line x1="74.2679491924311" y1="865.200000000003" x2="74.5857864376269" y2="864.785786437629"/>
    <line x1="74.5857864376269" y1="864.785786437629" x2="75.0" y2="864.467949192434"/>
    <line x1="75.0" y1="864.467949192434" x2="75.4823619097949" y2="864.268148347424"/>
    <line x1="41.3026589860922" y1="870.773009238042" x2="41.1663622912485" y2="871.808285418452"/>
    <line x1="41.1663622912485" y1="871.808285418452" x2="40.76676060123" y2="872.773009238043"/>
    <line x1="40.76676060123" y1="872.773009238043" x2="40.1310861108384" y2="873.601436362789"/>
    <line x1="40.1310861108384" y1="873.601436362789" x2="39.3026589860922" y2="874.23711085318"/>
    <line x1="39.3026589860922" y1="874.23711085318" x2="38.3379351665023" y2="874.636712543199"/>
    <line x1="38.3379351665023" y1="874.636712543199" x2="37.3026589860922" y2="874.773009238043"/>
    <line x1="37.3026589860922" y1="874.773009238043" x2="36.2673828056821" y2="874.636712543199"/>
    <line x1="36.2673828056821" y1="874.636712543199" x2="35.3026589860922" y2="874.23711085318"/>
    <line x1="35.3026589860922" y1="874.23711085318" x2="34.474231861346" y2="873.601436362789"/>
    <line x1="34.474231861346" y1="873.601436362789" x2="33.8385573709544" y2="872.773009238043"/>
    <line x1="33.8385573709544" y1="872.773009238043" x2="33.4389556809359" y2="871.808285418452"/>
    <line x1="33.4389556809359" y1="871.808285418452" x2="33.3026589860922" y2="870.773009238043"/>
    <line x1="33.3026589860922" y1="870.773009238043" x2="33.4389556809359" y2="869.737733057632"/>
    <line x1="33.4389556809359" y1="869.737733057632" x2="33.8385573709544" y2="868.773009238043"/>
    <line x1="33.8385573709544" y1="868.773009238043" x2="34.474231861346" y2="867.944582113296"/>
    <line x1="34.474231861346" y1="867.944582113296" x2="35.3026589860922" y2="867.308907622905"/>
    <line x1="35.3026589860922" y1="867.308907622905" x2="36.2673828056821" y2="866.909305932886"/>
    <line x1="36.2673828056821" y1="866.909305932886" x2="37.3026589860922" y2="866.773009238043"/>
    <line x1="37.3026589860922" y1="866.773009238043" x2="38.3379351665023" y2="866.909305932886"/>
    <line x1="38.3379351665023" y1="866.909305932886" x2="39.3026589860922" y2="867.308907622905"/>
    <line x1="39.3026589860922" y1="867.308907622905" x2="40.1310861108384" y2="867.944582113296"/>
    <line x1="40.1310861108384" y1="867.944582113296" x2="40.76676060123" y2="868.773009238042"/>
    <line x1="40.76676060123" y1="868.773009238042" x2="41.1663622912485" y2="869.737733057632"/>
    <line x1="41.1663622912485" y1="869.737733057632" x2="41.3026589860922" y2="870.773009238042"/>
  </g>
</svg>
